<?xml version="1.0" encoding="UTF-8"?><svg xmlns="http://www.w3.org/2000/svg" viewBox="0 0 70.87 95.67"><defs><style>.cls-1,.cls-2{stroke:#086;}.cls-1,.cls-3{fill:#086;}.cls-2{fill:none;}.cls-3{stroke-width:0px;}</style></defs><g id="Pictogrammes"><rect class="cls-2" x="21.38" y="13.46" width="26.8" height="41.65" rx="2.07" ry="2.07"/><path class="cls-3" d="M26.5,57.4h-2.07c-.3,0-.54-.24-.54-.54v-1.44h3.14v1.44c0,.3-.24.54-.54.54Z"/><path class="cls-3" d="M45.13,57.4h-2.07c-.3,0-.54-.24-.54-.54v-1.44h3.14v1.44c0,.3-.24.54-.54.54Z"/><line class="cls-2" x1="21.38" y1="25.87" x2="48.18" y2="25.87"/><path class="cls-1" d="M45.81,21.31c-.35.29-1.53.35-1.82,0-.11-.13-.11-.56,0-.69.29-.35,1.5-.32,1.82,0,.12.12.13.58,0,.69Z"/><path class="cls-1" d="M45.71,36.25h-.73c-.19,0-.34-.23-.34-.51v-7.08c0-.28.15-.51.34-.51h.73c.19,0,.34.23.34.51v7.08c0,.28-.15.51-.34.51Z"/><path class="cls-3" d="M14.44,76.5h-.9v-7.94h1.66c.61,0,1,.73,1,2.08,0,1.01-.21,1.77-.8,1.95v.02c.2.04.78.13.78,1.56,0,.51.02,2,.1,2.33h-.88c-.12-.48-.09-1.02-.09-1.54,0-.95.05-1.75-.64-1.75h-.23v3.29ZM14.44,71.99h.4c.36,0,.46-.66.46-1.17,0-.76-.17-1.05-.46-1.05h-.4v2.21Z"/><path class="cls-3" d="M16.96,76.5v-7.94h2.34v1.22h-1.44v1.96h1.33v1.22h-1.33v2.32h1.49v1.22h-2.39ZM18.89,66.17l-.95,1.57h-.39l.53-1.57h.8Z"/><path class="cls-3" d="M20,76.5v-7.94h2.23v1.22h-1.33v2.04h1.27v1.22h-1.27v3.47h-.9Z"/><path class="cls-3" d="M23.63,76.5h-.9v-7.94h1.66c.61,0,1,.73,1,2.08,0,1.01-.21,1.77-.8,1.95v.02c.2.04.78.13.78,1.56,0,.51.02,2,.1,2.33h-.88c-.12-.48-.09-1.02-.09-1.54,0-.95.05-1.75-.64-1.75h-.23v3.29ZM23.63,71.99h.4c.36,0,.46-.66.46-1.17,0-.76-.17-1.05-.46-1.05h-.4v2.21Z"/><path class="cls-3" d="M26.14,76.5v-7.94h.9v7.94h-.9Z"/><path class="cls-3" d="M29.84,71c0-.74-.06-1.39-.53-1.39-.56,0-.56,1.4-.56,2.94,0,2.49.13,2.93.64,2.93.15,0,.31-.07.44-.15v-1.76h-.49v-1.22h1.38v4.03c-.24.09-.85.26-1.21.26-1.51,0-1.68-1.15-1.68-4.17,0-2,.05-4.04,1.52-4.04.88,0,1.42.91,1.37,2.57h-.89Z"/><path class="cls-3" d="M31.61,76.5v-7.94h2.34v1.22h-1.44v1.96h1.33v1.22h-1.33v2.32h1.49v1.22h-2.39ZM33.54,66.17l-.95,1.57h-.39l.53-1.57h.8Z"/><path class="cls-3" d="M35.55,76.5h-.9v-7.94h1.66c.61,0,1,.73,1,2.08,0,1.01-.21,1.77-.79,1.95v.02c.2.04.78.13.78,1.56,0,.51.02,2,.1,2.33h-.88c-.12-.48-.09-1.02-.09-1.54,0-.95.05-1.75-.64-1.75h-.23v3.29ZM35.55,71.99h.4c.36,0,.46-.66.46-1.17,0-.76-.17-1.05-.46-1.05h-.4v2.21Z"/><path class="cls-3" d="M37.73,76.5l1.19-7.94h1.18l1.16,7.94h-.94l-.24-1.76h-1.22l-.24,1.76h-.88ZM39.46,70.09h-.01l-.41,3.43h.85l-.43-3.43Z"/><path class="cls-3" d="M43.98,68.56v1.32h-1v6.62h-.9v-6.62h-1v-1.32h2.89Z"/><path class="cls-3" d="M44.49,76.5v-7.94h2.34v1.22h-1.44v1.96h1.33v1.22h-1.33v2.32h1.49v1.22h-2.39Z"/><path class="cls-3" d="M50.44,68.56v5.63c0,1.19-.36,2.44-1.45,2.44-.99,0-1.46-.95-1.46-2.44v-5.63h.9v5.52c0,.98.23,1.36.55,1.36.39,0,.57-.48.57-1.36v-5.52h.9Z"/><path class="cls-3" d="M52.15,76.5h-.9v-7.94h1.66c.61,0,1,.73,1,2.08,0,1.01-.21,1.77-.79,1.95v.02c.2.04.78.13.78,1.56,0,.51.02,2,.1,2.33h-.88c-.12-.48-.09-1.02-.09-1.54,0-.95.05-1.75-.64-1.75h-.23v3.29ZM52.15,71.99h.4c.36,0,.46-.66.46-1.17,0-.76-.17-1.05-.46-1.05h-.4v2.21Z"/><path class="cls-3" d="M55.82,76.63c-1.11,0-1.32-1.21-1.27-2.58h.9c0,.76.02,1.4.51,1.4.3,0,.45-.36.45-.9,0-1.43-1.8-1.52-1.8-3.88,0-1.24.32-2.23,1.41-2.23.87,0,1.31.73,1.25,2.39h-.87c0-.59-.05-1.2-.42-1.2-.29,0-.46.3-.46.85,0,1.51,1.8,1.38,1.8,3.87,0,2.06-.81,2.3-1.5,2.3Z"/><path class="cls-3" d="M15.43,83.53c0-2.1,0-4.1,1.48-4.1.91,0,1.28.94,1.25,2.64h-.88c0-1.06-.1-1.45-.37-1.45-.5,0-.57.88-.57,2.92s.06,2.92.57,2.92c.42,0,.4-.99.41-1.62h.88c0,2.12-.46,2.8-1.29,2.8-1.48,0-1.48-2.02-1.48-4.1Z"/><path class="cls-3" d="M18.83,83.53c0-2.1,0-4.1,1.48-4.1s1.48,2,1.48,4.1,0,4.1-1.48,4.1-1.48-2.02-1.48-4.1ZM20.88,83.53c0-2.04-.07-2.92-.57-2.92s-.57.88-.57,2.92.06,2.92.57,2.92.57-.88.57-2.92Z"/><path class="cls-3" d="M22.59,87.5v-7.94h1.21l1.14,5.5h.01v-5.5h.84v7.94h-1.18l-1.17-5.81h-.01v5.81h-.84Z"/><path class="cls-3" d="M28.6,82c0-.74-.06-1.39-.53-1.39-.56,0-.56,1.4-.56,2.94,0,2.49.13,2.93.64,2.93.15,0,.31-.07.44-.15v-1.76h-.49v-1.22h1.38v4.03c-.24.09-.85.26-1.21.26-1.51,0-1.68-1.15-1.68-4.17,0-2,.05-4.04,1.52-4.04.88,0,1.42.91,1.37,2.57h-.89Z"/><path class="cls-3" d="M30.36,87.5v-7.94h2.34v1.22h-1.44v1.96h1.33v1.22h-1.33v2.32h1.49v1.22h-2.39ZM32.29,77.17l-.95,1.57h-.39l.53-1.57h.8Z"/><path class="cls-3" d="M33.43,87.5v-7.94h.9v6.62h1.34v1.32h-2.24Z"/><path class="cls-3" d="M35.82,87.5l1.19-7.94h1.18l1.16,7.94h-.94l-.24-1.76h-1.22l-.24,1.76h-.88ZM37.55,81.09h-.01l-.41,3.43h.85l-.43-3.43Z"/><path class="cls-3" d="M42.07,79.56v1.32h-1v6.62h-.9v-6.62h-1v-1.32h2.89Z"/><path class="cls-3" d="M42.57,87.5v-7.94h2.34v1.22h-1.44v1.96h1.33v1.22h-1.33v2.32h1.49v1.22h-2.39Z"/><path class="cls-3" d="M48.53,79.56v5.63c0,1.19-.36,2.44-1.45,2.44-.99,0-1.46-.95-1.46-2.44v-5.63h.9v5.52c0,.98.23,1.37.55,1.37.39,0,.57-.48.57-1.37v-5.52h.9Z"/><path class="cls-3" d="M50.24,87.5h-.9v-7.94h1.66c.61,0,1,.73,1,2.08,0,1.01-.21,1.77-.79,1.95v.02c.2.04.78.13.78,1.56,0,.51.02,2,.1,2.33h-.88c-.12-.48-.09-1.02-.09-1.54,0-.95.05-1.75-.64-1.75h-.23v3.29ZM50.24,82.99h.4c.36,0,.46-.66.46-1.17,0-.76-.17-1.05-.46-1.05h-.4v2.21Z"/><path class="cls-3" d="M53.91,87.63c-1.11,0-1.32-1.21-1.27-2.58h.9c0,.76.02,1.4.51,1.4.3,0,.45-.36.45-.9,0-1.43-1.8-1.52-1.8-3.88,0-1.24.32-2.23,1.41-2.23.87,0,1.31.73,1.25,2.39h-.87c0-.59-.05-1.2-.41-1.2-.29,0-.46.3-.46.85,0,1.51,1.8,1.38,1.8,3.87,0,2.06-.81,2.3-1.5,2.3Z"/></g><g id="Cadres"><path class="cls-2" d="M17.48,8.5h35.9c4.95,0,8.98,4.02,8.98,8.98v35.9c0,4.95-4.02,8.98-8.98,8.98H17.48c-4.95,0-8.98-4.02-8.98-8.98V17.48c0-4.95,4.02-8.98,8.98-8.98Z"/></g></svg>