<?xml version="1.0" encoding="UTF-8"?><svg xmlns="http://www.w3.org/2000/svg" viewBox="0 0 70.87 95.67"><defs><style>.cls-1,.cls-2{fill:none;stroke:#086;}.cls-3{fill:#086;stroke-width:0px;}.cls-2{stroke-miterlimit:10;}</style></defs><g id="Pictogrammes"><path class="cls-3" d="M28.71,25.09l-8.57,8.57-.83.83-3.07,3.07c-.11.12-.31.12-.43,0l-2.57-2.57c-.12-.11-.12-.31,0-.43l12.46-12.47c.12-.11.31-.11.43,0l.57.57c.1.1.11.25.04.37l-.11.23.49-.05c.16-.02.31.1.33.27,0,.05,0,.11-.02.15l-.35,1.02,1.38-.09c.17,0,.31.12.32.29,0,.09-.02.17-.08.23ZM30.02,34.36h1.7l-.86-3.28-.84,3.28ZM32.12,34.97h-2.49s-.05,0-.08,0c-.16-.04-.26-.21-.22-.37l1.23-4.78c.02-.11.11-.2.22-.23.16-.04.33.06.37.22l1.25,4.77s.02.07.02.1c0,.17-.14.3-.31.3ZM24.91,31.69l3.48-2.95c.13-.11.32-.09.43.04.08.1.1.22.04.32l-1.73,4.22c-.06.16-.24.23-.4.17-.02-.01-.04-.02-.06-.04l-1.74-1.28c-.14-.1-.17-.29-.07-.42.01-.02.03-.04.05-.05ZM27.82,30.01l-2.23,1.89,1.11.82,1.11-2.71ZM31.56,19.87l3.96-1.6c.15-.06.32.01.39.16l1.12,2.6c.07.16,0,.34-.16.4-.06.02-.12.03-.18.02l-5.09-1c-.16-.04-.27-.19-.24-.36.02-.11.1-.2.2-.23ZM35.47,18.95l-2.75,1.11,3.52.69-.78-1.8ZM28.54,13.82h2.79c.17,0,.3.14.3.31,0,.04,0,.07-.02.1l-1.4,5.34c-.04.16-.21.26-.37.22-.11-.03-.2-.13-.22-.23l-1.38-5.35c-.04-.16.06-.32.22-.37.02,0,.05-.01.07-.01ZM30.94,14.44h-2l.99,3.84,1.01-3.84ZM23.98,17.22l2.63,2.24-1.32-3.21-1.32.97ZM27.18,20.73l-3.89-3.3s-.04-.04-.05-.05c-.1-.14-.07-.32.07-.43l1.94-1.43h0s.04-.02.07-.03c.16-.07.33,0,.4.16l1.94,4.72c.05.1.04.23-.04.32-.11.13-.3.14-.43.04ZM37.88,27.64c-.08.2-.22.43-.38.64-.15.2-.32.41-.51.6-.19.19-.39.36-.6.51-.22.16-.43.29-.64.37l.72.73c.1.1.43-.08.79-.35.18-.13.36-.28.53-.46.17-.17.33-.35.46-.53.27-.37.45-.7.35-.79l-.72-.72ZM35.23,29.26c.1.1.43-.07.8-.35.17-.13.35-.29.53-.46.17-.17.33-.35.46-.53.28-.37.45-.7.35-.8l-4.38-4.38-.24.24.07.31c.03.16-.07.32-.23.35l-.51.12v.73c0,.13-.08.26-.22.29l-.84.23,4.22,4.22ZM30.37,24.58l1.09-.3v-.75c-.01-.14.09-.26.23-.3l.47-.11-.04-.18c-.02-.11.01-.2.08-.28l.57-.57c.12-.11.31-.11.43,0l4.6,4.6,1.23,1.24c.36.35.16.99-.29,1.59-.15.2-.33.41-.52.6s-.39.37-.6.52c-.61.45-1.24.65-1.59.29l-1.23-1.23-4.6-4.6c-.11-.12-.11-.31,0-.43.05-.05.1-.07.16-.08ZM17.78,30.88l2.14,2.14,6.21-6.21-2.14-2.14-6.21,6.21ZM19.48,33.44l-2.13-2.13-.4.4,2.14,2.14.4-.4ZM18.66,34.27l-2.14-2.14-2.63,2.63,2.14,2.14,2.63-2.63ZM24.43,24.23l2.14,2.14,1.14-1.14-1.03.07s-.08,0-.11-.01c-.16-.06-.25-.23-.19-.39l.35-1.02-.57.06c-.06,0-.11,0-.17-.03-.15-.08-.22-.26-.14-.41l.28-.56-.2-.2-1.49,1.49ZM51.27,35.43l3.99,1.53c.15.06.23.23.18.39l-.96,2.67c-.06.16-.23.24-.39.18-.06-.02-.11-.06-.14-.11l-3.05-4.2c-.09-.14-.07-.33.07-.43.1-.07.21-.08.31-.03ZM54.76,37.42l-2.77-1.06,2.11,2.91.66-1.85ZM53.18,28.95l2.04,1.9c.12.11.13.31.01.43-.02.03-.05.04-.08.06l-4.66,2.96c-.14.09-.33.05-.42-.09-.06-.1-.06-.23,0-.32l2.64-4.86c.08-.15.27-.2.41-.12.02.01.04.02.06.04ZM54.51,31.03l-1.47-1.36-1.89,3.49,3.36-2.13ZM47.53,28.33l.4,3.43,1.22-3.24-1.62-.19ZM47.47,33.08l-.6-5.07s0-.05,0-.07c.02-.17.17-.29.34-.27l2.4.28h0s.05.01.07.02c.16.06.24.23.18.39l-1.8,4.78c-.03.11-.13.19-.25.21-.17.02-.32-.1-.34-.26Z"/><path class="cls-3" d="M35.83,45.43c-.62.62-.29,1.01.53,1.83.82.81,1.21,1.14,1.83.51.62-.62.28-1-.53-1.81-.82-.81-1.2-1.15-1.83-.52Z"/><path class="cls-3" d="M42.64,36.25l-16.11,16.39,4.67,4.59,16.11-16.39-4.67-4.59ZM35,51.91c-.97.97-1.76,1.12-2.42.46-.06-.06-.11-.13-.17-.2l.9-.9.2.2c.34.34.58.41.99,0,.39-.39.46-.71.21-.96-.22-.22-.51-.15-1.05.06l-.67.25c-.9.34-1.36.48-1.8.04-.52-.52-.33-1.35.51-2.2.89-.89,1.71-1.07,2.31-.47.04.04.07.07.11.12l-.85.86-.08-.08c-.33-.33-.63-.32-1.03.08-.29.29-.35.58-.15.78.2.2.51.07,1.01-.13l.71-.28c.91-.36,1.39-.42,1.85.03.57.56.38,1.4-.56,2.34ZM38.65,48.24c-.61.61-1.08.88-1.67.88-.43,0-.92-.33-1.54-.94-.62-.61-.95-1.1-.95-1.54,0-.59.27-1.06.88-1.67.61-.61,1.08-.88,1.67-.88.44,0,.92.33,1.54.94.61.61.95,1.1.95,1.54,0,.59-.27,1.06-.88,1.67ZM39.86,45.05c-.06-.06-.11-.13-.17-.2l.9-.9.2.2c.34.34.58.41.99,0,.38-.39.46-.71.21-.96-.22-.22-.51-.15-1.05.06l-.67.25c-.9.34-1.36.48-1.8.04-.52-.52-.33-1.35.51-2.2.89-.9,1.71-1.07,2.31-.47.04.04.07.07.11.12l-.85.86-.08-.08c-.33-.33-.63-.32-1.03.08-.29.29-.35.58-.15.77.2.2.51.07,1.01-.13l.71-.28c.91-.37,1.39-.42,1.85.03.57.56.38,1.4-.56,2.34-.97.97-1.76,1.12-2.42.46Z"/><rect class="cls-2" x="43.67" y="34.75" width="6.03" height="4.1" transform="translate(39.19 -22.17) rotate(44.51)"/><path class="cls-3" d="M7.82,68.51h1.4c.85,0,1.2.63,1.2,2.24s-.4,2.31-1.21,2.31h-.59v3.35h-.8v-7.89ZM8.93,71.96c.49,0,.68-.29.68-1.19,0-.94-.19-1.17-.67-1.17h-.35v2.35h.34Z"/><path class="cls-3" d="M11.77,73.05l-1.13-4.55h.89l.66,2.97.64-2.97h.87l-1.12,4.55v3.35h-.81v-3.35Z"/><path class="cls-3" d="M14.11,68.51h1.44c.87,0,1.23.6,1.23,2.07,0,1.03-.21,1.63-.61,1.73.59.28.58.85.6,1.87l.02,1.05c.01.51.06.88.22,1.18h-.96c-.06-.34-.07-.73-.07-1.23v-.83s-.01-.21-.01-.21c0-1.03-.24-1.2-.81-1.2h-.28v3.46h-.78v-7.89ZM15.35,71.85c.47,0,.62-.29.62-1.18s-.2-1.06-.69-1.06h-.4v2.24h.47Z"/><path class="cls-3" d="M17.61,69.32c.26-.75.59-1,1.14-1s.87.25,1.14,1c.2.56.26,1.58.26,3.14s-.07,2.58-.26,3.14c-.26.75-.59,1-1.14,1s-.87-.25-1.14-1c-.2-.55-.26-1.58-.26-3.14s.07-2.59.26-3.14ZM18.75,75.41c.55,0,.58-.9.58-2.96s-.02-2.97-.58-2.97-.58.91-.58,2.97.03,2.96.59,2.96Z"/><path class="cls-3" d="M21.42,69.81h-.93v-1.3h2.66v1.3h-.93v6.59h-.81v-6.59Z"/><path class="cls-3" d="M23.58,68.51h2.22v1.31h-1.42v1.83h1.32v1.25h-1.32v2.17h1.46v1.33h-2.25v-7.89Z"/><path class="cls-3" d="M28.92,73.59c0,.1,0,.2,0,.3,0,1.83-.41,2.7-1.28,2.7-.4,0-.7-.18-.91-.6-.37-.69-.4-1.83-.4-3.63,0-1.51.06-2.51.22-3.01.24-.73.57-1.03,1.09-1.03.88,0,1.25.8,1.26,2.64h-.78v-.19c0-.85-.15-1.27-.46-1.27-.5,0-.5.83-.5,2.85,0,2.2,0,3.05.49,3.05.39,0,.48-.49.48-1.7v-.1h.78Z"/><path class="cls-3" d="M29.57,68.51h.8v3.1h1.1v-3.1h.8v7.89h-.8v-3.58h-1.1v3.58h-.8v-7.89Z"/><path class="cls-3" d="M33.01,68.51h.83l1.13,5.52-.02-5.52h.76v7.89h-.82l-1.13-5.53.02,5.53h-.76v-7.89Z"/><path class="cls-3" d="M36.44,68.51h.81v7.89h-.81v-7.89Z"/><path class="cls-3" d="M37.98,68.51h2.22v1.31h-1.42v1.83h1.32v1.25h-1.32v2.17h1.46v1.33h-2.25v-7.89Z"/><path class="cls-3" d="M41.72,77.38l1.62-9.06h.43l-1.62,9.06h-.43Z"/><path class="cls-3" d="M45.47,68.51h2.26v1.29h-1.46v1.87h1.38v1.26h-1.38v3.47h-.81v-7.89Z"/><path class="cls-3" d="M49.08,68.51v5.32c0,1.09.1,1.56.56,1.56s.55-.48.55-1.58v-5.3h.79v5.45c0,.76-.01,1.32-.21,1.81-.23.55-.61.83-1.14.83-1.03,0-1.35-.77-1.35-2.64v-5.45h.81Z"/><path class="cls-3" d="M52.44,73.63v.5c0,.85.08,1.26.44,1.26.34,0,.52-.33.52-.93,0-.57-.16-.83-.49-1.26l-.41-.54c-.55-.7-.82-1.11-.82-2.23,0-1.32.46-2.12,1.21-2.12.8,0,1.24.82,1.24,2.32,0,.09,0,.19,0,.28h-.77v-.21c0-.84-.14-1.2-.49-1.2-.26,0-.41.29-.41.79s.2.74.51,1.11l.44.55c.57.69.81,1.23.81,2.38,0,1.43-.46,2.25-1.3,2.25s-1.29-.81-1.29-2.49c0-.15,0-.3.01-.47h.81Z"/><path class="cls-3" d="M54.86,68.51h2.22v1.31h-1.42v1.83h1.32v1.25h-1.32v2.17h1.46v1.33h-2.25v-7.89ZM56.04,66.39h.72l-.86,1.46h-.35l.49-1.46Z"/><path class="cls-3" d="M57.71,68.51h2.22v1.31h-1.42v1.83h1.32v1.25h-1.32v2.17h1.46v1.33h-2.25v-7.89Z"/><path class="cls-3" d="M61.28,73.63v.5c0,.85.08,1.26.44,1.26.34,0,.52-.33.52-.93,0-.57-.16-.83-.49-1.26l-.41-.54c-.55-.7-.82-1.11-.82-2.23,0-1.32.46-2.12,1.21-2.12.8,0,1.24.82,1.24,2.32,0,.09,0,.19,0,.28h-.77v-.21c0-.84-.14-1.2-.49-1.2-.26,0-.41.29-.41.79s.2.74.51,1.11l.44.55c.57.69.81,1.23.81,2.38,0,1.43-.46,2.25-1.3,2.25s-1.29-.81-1.29-2.49c0-.15,0-.3.01-.47h.81Z"/><path class="cls-3" d="M19.77,79.51h1.29c.47,0,.79.12,1.02.52.37.66.41,1.59.41,2.94,0,1.52,0,2.68-.28,3.56-.24.79-.64.87-1.33.87h-1.11v-7.89ZM20.92,86.24c.28,0,.45-.02.56-.32.18-.5.21-1.33.21-2.56s-.03-2.04-.25-2.46c-.11-.21-.27-.24-.53-.24h-.35v5.57h.36Z"/><path class="cls-3" d="M23.15,79.51h2.22v1.31h-1.42v1.83h1.32v1.25h-1.32v2.17h1.46v1.33h-2.25v-7.89Z"/><path class="cls-3" d="M27.44,79.51h1.29c.47,0,.79.12,1.02.52.37.66.41,1.59.41,2.94,0,1.52,0,2.68-.28,3.56-.24.79-.64.87-1.33.87h-1.11v-7.89ZM28.58,86.24c.28,0,.45-.02.56-.32.18-.5.21-1.33.21-2.56s-.03-2.04-.25-2.46c-.11-.21-.27-.24-.53-.24h-.35v5.57h.36Z"/><path class="cls-3" d="M30.82,79.51h2.22v1.31h-1.42v1.83h1.32v1.25h-1.32v2.17h1.46v1.33h-2.25v-7.89ZM32,77.39h.72l-.86,1.46h-.35l.49-1.46Z"/><path class="cls-3" d="M34.28,80.81h-.93v-1.3h2.66v1.3h-.93v6.59h-.81v-6.59Z"/><path class="cls-3" d="M36.44,79.51h1.44c.87,0,1.23.6,1.23,2.07,0,1.03-.21,1.63-.61,1.73.59.28.58.85.6,1.87l.02,1.05c.01.51.06.88.22,1.18h-.96c-.06-.34-.07-.73-.07-1.23v-.83s-.01-.21-.01-.21c0-1.03-.24-1.2-.81-1.2h-.28v3.46h-.78v-7.89ZM37.68,82.85c.47,0,.62-.29.62-1.18s-.2-1.06-.69-1.06h-.4v2.24h.47Z"/><path class="cls-3" d="M39.75,79.51h2.22v1.31h-1.42v1.83h1.32v1.25h-1.32v2.17h1.46v1.33h-2.25v-7.89Z"/><path class="cls-3" d="M43.32,84.63v.5c0,.85.08,1.26.44,1.26.34,0,.52-.33.52-.93,0-.57-.16-.83-.49-1.26l-.41-.54c-.55-.7-.82-1.11-.82-2.23,0-1.32.46-2.12,1.21-2.12.8,0,1.24.82,1.24,2.32,0,.09,0,.19,0,.28h-.77v-.21c0-.84-.14-1.2-.49-1.2-.26,0-.41.29-.41.79s.2.74.51,1.11l.44.55c.57.69.81,1.23.81,2.38,0,1.43-.46,2.25-1.3,2.25s-1.29-.81-1.29-2.49c0-.15,0-.3.01-.47h.81Z"/><path class="cls-3" d="M46.48,84.63v.5c0,.85.08,1.26.44,1.26.34,0,.52-.33.52-.93,0-.57-.16-.83-.5-1.26l-.41-.54c-.55-.7-.82-1.11-.82-2.23,0-1.32.46-2.12,1.21-2.12.8,0,1.24.82,1.24,2.32,0,.09,0,.19,0,.28h-.77v-.21c0-.84-.14-1.2-.49-1.2-.26,0-.41.29-.41.79s.2.74.51,1.11l.44.55c.57.69.81,1.23.81,2.38,0,1.43-.46,2.25-1.3,2.25s-1.29-.81-1.29-2.49c0-.15,0-.3.01-.47h.81Z"/><path class="cls-3" d="M48.9,79.51h2.22v1.31h-1.42v1.83h1.32v1.25h-1.32v2.17h1.46v1.33h-2.25v-7.89Z"/></g><g id="Cadres"><path class="cls-1" d="M17.48,8.5h35.9c4.95,0,8.98,4.02,8.98,8.98v35.9c0,4.95-4.02,8.98-8.98,8.98H17.48c-4.95,0-8.98-4.02-8.98-8.98V17.48c0-4.95,4.02-8.98,8.98-8.98Z"/></g></svg>