<?xml version="1.0" encoding="UTF-8"?><svg xmlns="http://www.w3.org/2000/svg" viewBox="0 0 70.87 95.67"><defs><style>.cls-1{fill:none;stroke:#086;}.cls-2{fill:#086;stroke-width:0px;}</style></defs><g id="Pictogrammes"><rect class="cls-1" x="17.98" y="18.27" width="34.39" height="37.57" rx="1.95" ry="1.95"/><line class="cls-1" x1="17.98" y1="26.49" x2="52.37" y2="26.49"/><path class="cls-2" d="M43.24,22.45c0,.8-.65,1.45-1.45,1.45s-1.45-.65-1.45-1.45.65-1.46,1.45-1.46,1.45.65,1.45,1.46Z"/><path class="cls-2" d="M48.67,22.45c0,.8-.65,1.45-1.46,1.45s-1.45-.65-1.45-1.45.65-1.46,1.45-1.46,1.46.65,1.46,1.46Z"/><path class="cls-1" d="M41.39,41.42c0,3.43-2.78,6.22-6.22,6.22s-6.22-2.78-6.22-6.22,2.78-6.22,6.22-6.22,6.22,2.78,6.22,6.22Z"/><path class="cls-1" d="M44.7,41.42c0,5.26-4.26,9.52-9.52,9.52s-9.52-4.26-9.52-9.52,4.26-9.52,9.52-9.52,9.52,4.26,9.52,9.52Z"/><path class="cls-2" d="M40.78,78.18l-.95,1.57h-.39l.54-1.57h.8Z"/><path class="cls-2" d="M41.82,88.51v-7.94h1.21l1.14,5.5h.01v-5.5h.84v7.94h-1.18l-1.17-5.81h-.01v5.81h-.84Z"/><path class="cls-2" d="M45.45,88.51l1.19-7.94h1.18l1.16,7.94h-.94l-.24-1.76h-1.22l-.24,1.76h-.88ZM47.17,82.1h-.01l-.41,3.43h.86l-.43-3.43Z"/><path class="cls-2" d="M51.35,83.01c0-.74-.06-1.39-.53-1.39-.56,0-.56,1.4-.56,2.94,0,2.49.13,2.93.64,2.93.15,0,.31-.07.44-.15v-1.76h-.49v-1.22h1.38v4.03c-.24.09-.85.26-1.21.26-1.51,0-1.68-1.16-1.68-4.17,0-2,.05-4.04,1.52-4.04.88,0,1.43.91,1.37,2.57h-.89Z"/><path class="cls-2" d="M53.02,88.51v-7.94h2.34v1.22h-1.44v1.96h1.33v1.22h-1.33v2.32h1.49v1.22h-2.39Z"/><path class="cls-2" d="M56.87,88.51h-.9v-7.94h1.66c.61,0,1,.73,1,2.08,0,1.01-.21,1.77-.79,1.95v.02c.2.04.78.13.78,1.56,0,.51.02,2,.1,2.33h-.88c-.12-.48-.09-1.02-.09-1.54,0-.95.05-1.75-.64-1.75h-.23v3.29ZM56.87,84h.4c.36,0,.46-.66.46-1.17,0-.76-.17-1.05-.46-1.05h-.4v2.21Z"/><path class="cls-2" d="M28.15,71.09c0-.74-.06-1.39-.53-1.39-.56,0-.56,1.4-.56,2.94,0,2.49.13,2.93.64,2.93.15,0,.31-.07.44-.15v-1.76h-.49v-1.22h1.38v4.03c-.24.09-.85.26-1.21.26-1.51,0-1.68-1.15-1.68-4.17,0-2,.05-4.04,1.52-4.04.88,0,1.43.91,1.37,2.57h-.89Z"/><path class="cls-2" d="M30.7,76.59h-.9v-7.94h1.66c.61,0,1,.73,1,2.08,0,1.01-.21,1.77-.8,1.95v.02c.2.04.78.13.78,1.56,0,.51.02,2,.1,2.33h-.88c-.12-.48-.09-1.02-.09-1.54,0-.95.05-1.75-.64-1.75h-.23v3.29ZM30.7,72.08h.4c.36,0,.46-.66.46-1.17,0-.76-.17-1.04-.46-1.04h-.4v2.21Z"/><path class="cls-2" d="M33.07,72.62c0-2.1,0-4.1,1.48-4.1s1.48,2,1.48,4.1,0,4.1-1.48,4.1-1.48-2.02-1.48-4.1ZM35.12,72.62c0-2.04-.06-2.92-.57-2.92s-.57.88-.57,2.92.06,2.92.57,2.92.57-.88.57-2.92Z"/><path class="cls-2" d="M37.9,76.72c-1.11,0-1.32-1.21-1.27-2.59h.9c0,.76.02,1.4.51,1.4.3,0,.45-.36.45-.9,0-1.43-1.8-1.52-1.8-3.88,0-1.24.32-2.23,1.41-2.23.87,0,1.31.73,1.25,2.39h-.87c0-.59-.05-1.2-.41-1.2-.29,0-.46.3-.46.85,0,1.51,1.8,1.38,1.8,3.87,0,2.06-.81,2.3-1.5,2.3Z"/><path class="cls-2" d="M12.15,88.58v-7.94h2.34v1.22h-1.44v1.96h1.33v1.22h-1.33v2.32h1.49v1.22h-2.39ZM14.09,78.25l-.95,1.57h-.39l.54-1.57h.8Z"/><path class="cls-2" d="M15.13,88.58v-7.94h.9v6.62h1.34v1.32h-2.24Z"/><path class="cls-2" d="M17.75,88.58v-7.94h2.34v1.22h-1.44v1.96h1.33v1.22h-1.33v2.32h1.49v1.22h-2.39Z"/><path class="cls-2" d="M20.68,84.61c0-2.1,0-4.1,1.48-4.1.91,0,1.28.94,1.25,2.64h-.88c0-1.06-.1-1.45-.37-1.45-.51,0-.57.88-.57,2.92s.06,2.92.57,2.92c.41,0,.4-.99.41-1.62h.88c0,2.12-.46,2.8-1.29,2.8-1.48,0-1.48-2.02-1.48-4.1Z"/><path class="cls-2" d="M26.57,80.64v1.32h-1v6.62h-.9v-6.62h-1v-1.32h2.89Z"/><path class="cls-2" d="M27.86,88.58h-.9v-7.94h1.66c.61,0,1,.73,1,2.08,0,1.01-.21,1.77-.8,1.95v.02c.2.04.78.13.78,1.56,0,.51.02,2,.1,2.33h-.88c-.12-.48-.09-1.02-.09-1.54,0-.95.05-1.75-.64-1.75h-.23v3.29ZM27.86,84.07h.4c.36,0,.46-.66.46-1.17,0-.76-.17-1.04-.46-1.04h-.4v2.21Z"/><path class="cls-2" d="M30.24,84.61c0-2.1,0-4.1,1.48-4.1s1.48,2,1.48,4.1,0,4.1-1.48,4.1-1.48-2.02-1.48-4.1ZM32.29,84.61c0-2.04-.07-2.92-.57-2.92s-.57.88-.57,2.92.06,2.92.57,2.92.57-.88.57-2.92Z"/><path class="cls-2" d="M33.89,88.58v-7.94h1.44l.67,5.4h.01l.71-5.4h1.39v7.94h-.87v-6.13h-.01l-.82,6.13h-.86l-.78-6.13h-.01v6.13h-.87Z"/><path class="cls-2" d="M38.85,88.58v-7.94h2.34v1.22h-1.44v1.96h1.33v1.22h-1.33v2.32h1.49v1.22h-2.39Z"/><rect class="cls-2" x="20.21" y="55.84" width="3.1" height="1.72"/><rect class="cls-2" x="47.04" y="55.84" width="3.1" height="1.72"/></g><g id="Cadres"><path class="cls-1" d="M17.48,8.5h35.9c4.95,0,8.98,4.02,8.98,8.98v35.9c0,4.95-4.02,8.98-8.98,8.98H17.48c-4.95,0-8.98-4.02-8.98-8.98V17.48c0-4.95,4.02-8.98,8.98-8.98Z"/></g></svg>