<?xml version="1.0" encoding="UTF-8"?><svg xmlns="http://www.w3.org/2000/svg" viewBox="0 0 70.87 95.67"><defs><style>.cls-1,.cls-2{stroke:#086;}.cls-1,.cls-3{fill:none;}.cls-2{stroke-width:.5px;}.cls-2,.cls-4{fill:#008966;}.cls-3,.cls-5,.cls-4{stroke-width:0px;}.cls-5{fill:#086;}</style></defs><g id="Pictogrammes"><path class="cls-5" d="M22.81,56.53h-6.81c-.89,0-1.61-.72-1.61-1.61v-18.5s.27-.88.27-.88v-2.52l-.28-1.32.02-.08c.4-1.61,2.24-3.56,3.41-4.29v-1.81h3.18v1.84c1.91,1.51,3.02,3.1,3.4,4.02l.04.09-.26,1.5v2.56s.25.98.25.98v18.41c0,.89-.72,1.61-1.61,1.61ZM15.09,36.57v18.36c0,.51.41.92.92.92h6.81c.51,0,.92-.41.92-.92v-18.36l-.24-.98v-2.66l.23-1.36c-.38-.87-1.45-2.34-3.28-3.75l-.13-.1v-1.49h-1.8v1.52l-.18.1c-1.01.55-2.83,2.45-3.23,3.88l.25,1.23v2.68s-.26.93-.26.93Z"/><path class="cls-5" d="M20.78,26.22h-2.77c-.27,0-.49-.22-.49-.49v-1.74c0-.27.22-.49.49-.49h2.77c.27,0,.49.22.49.49v1.74c0,.27-.22.49-.49.49ZM18.21,25.53h2.36v-1.33h-2.36v1.33Z"/><rect class="cls-5" x="14.96" y="31.42" width="8.88" height=".69"/><rect class="cls-5" x="14.96" y="32.84" width="8.88" height=".69"/><rect class="cls-5" x="14.96" y="34.04" width="8.88" height=".69"/><rect class="cls-5" x="14.96" y="35.24" width="8.88" height=".69"/><rect class="cls-5" x="14.96" y="36.32" width="8.88" height=".69"/><path class="cls-5" d="M22.81,56.53h-6.81c-.89,0-1.61-.72-1.61-1.61v-18.5s.27-.88.27-.88v-2.52l-.28-1.32.02-.08c.4-1.61,2.24-3.56,3.41-4.29v-1.81h3.18v1.84c1.91,1.51,3.02,3.1,3.4,4.02l.04.09-.26,1.5v2.56s.25.98.25.98v18.41c0,.89-.72,1.61-1.61,1.61ZM15.09,36.57v18.36c0,.51.41.92.92.92h6.81c.51,0,.92-.41.92-.92v-18.36l-.24-.98v-2.66l.23-1.36c-.38-.87-1.45-2.34-3.28-3.75l-.13-.1v-1.49h-1.8v1.52l-.18.1c-1.01.55-2.83,2.45-3.23,3.88l.25,1.23v2.68s-.26.93-.26.93Z"/><path class="cls-3" d="M20.07,49.23c-.12.05-.08-.03-.04-.08.04-.05.1-.18.12-.29.02-.11-.07.04-.14.14-.1.15-.19.09-.17-.06.04-.47-.05-.43-.05-.43,0,0-.07-.13-.19.52-.03.17-.2-.07-.29-.31-.02.2.01.42.11.74,0,.07-.26-.09-.35-.24-.1-.17-.07-.18-.13-.3-.18.76.38.92.38.92,0,0,.1.05.22.03.36-.02.61-.51.68-.65.07-.14-.03-.05-.15,0Z"/><path class="cls-3" d="M20.66,48.37c.19-.3,0-.65-.11-.73-.12-.09-.07,0-.06.07.01.07.01.39-.17.61-.2.07.04-.32.01-.76-.02-.44-.31-.61-.4-.7-.08-.08.01.14.02.2.09.44,0,.43,0,.43,0,0-.05-.37-.19-.59-.14-.22-.26-.55-.26-.65s-.07-.18-.13-.1c-.18.19.1,1.02.14,1.19.04.17-.1.14-.14.04-.05-.11-.18-.54-.47-.63-.13-.04-.16.01-.02.13.13.12.16.54.16.66s-.02.14-.08.09c-.06-.06-.2-.16-.4-.23-.19-.07-.16.07-.07.13.08.06.18.3.16.56-.02.26-.18,0-.32-.02-.14-.02-.26.04-.2.06.29.12.26.34.3.99.02.59.36.79.44.83h1.28c.46-.24.62-.49.71-.73.08-.24,0-.56.1-.88-.45.38-.41.2-.26,0ZM20.22,49.22c-.07.14-.32.62-.68.65-.12.02-.22-.03-.22-.03,0,0-.56-.17-.38-.92.06.12.03.13.13.3.09.15.34.31.35.24-.1-.32-.13-.54-.11-.74.08.24.26.48.29.31.12-.64.19-.52.19-.52,0,0,.09-.04.05.43-.01.15.08.22.17.06.07-.1.16-.26.14-.14-.02.11-.08.25-.12.29-.04.05-.08.13.04.08.12-.05.22-.14.15,0Z"/><path class="cls-3" d="M18.4,49.13c.02.59.36.79.44.83.01,0,.03.02.03.02,0,0,1.14.02,1.24-.01,0,0,0,0,0,0,.46-.24.62-.49.71-.73.08-.24,0-.56.1-.88-.45.38-.41.2-.26,0,.19-.3,0-.65-.11-.73-.12-.09-.07,0-.06.07.01.07.01.39-.17.61-.2.07.04-.32.01-.76-.02-.44-.31-.61-.4-.7-.08-.08.01.14.02.2.09.44,0,.43,0,.43,0,0-.05-.37-.19-.59-.14-.22-.26-.55-.26-.65s-.07-.18-.13-.1c-.18.19.1,1.02.14,1.19.04.17-.1.14-.14.04-.05-.11-.18-.54-.47-.63-.13-.04-.16.01-.02.13.13.12.16.54.16.66s-.02.14-.08.09c-.06-.06-.2-.16-.4-.23-.19-.07-.16.07-.07.13.08.06.18.3.16.56-.02.26-.18,0-.32-.02-.14-.02-.26.04-.2.06.29.12.26.34.3.99Z"/><path class="cls-5" d="M19.45,44.91l-3.32,3.32,3.32,3.32,3.32-3.32-3.32-3.32ZM18.3,48.09c.14.02.3.29.32.02.02-.26-.07-.51-.16-.56-.08-.06-.12-.2.07-.13.19.07.34.17.4.23.06.06.08.04.08-.09s-.02-.54-.16-.66c-.13-.12-.1-.17.02-.13.3.09.43.52.47.63.05.11.18.13.14-.04-.04-.17-.32-1-.14-1.19.06-.09.13,0,.13.1s.12.43.26.65c.14.22.19.59.19.59,0,0,.1.01,0-.43-.01-.06-.11-.29-.02-.2.08.09.37.25.4.7.02.44-.21.83-.01.76.18-.21.18-.53.17-.61-.01-.07-.06-.16.06-.07.11.08.29.43.11.73-.15.19-.19.37.26,0-.11.31-.02.64-.1.88-.08.24-.24.49-.71.73,0,0,0,0,0,0-.1.04-1.24.01-1.24.01,0,0-.02-.01-.03-.02-.08-.04-.42-.25-.44-.83-.04-.65-.01-.86-.3-.99-.06-.02.06-.08.2-.06Z"/><path class="cls-5" d="M20.11,49.97s0,0,0,0h-1.28s.03.02.03.02c0,0,1.14.02,1.24-.01Z"/><path class="cls-4" d="M20.22,49.22c.07-.14-.03-.05-.15,0-.12.05-.08-.03-.04-.08.04-.05.1-.18.12-.29.02-.11-.07.04-.14.14-.1.15-.19.09-.17-.06.04-.47-.05-.43-.05-.43,0,0-.07-.13-.19.52-.03.17-.2-.07-.29-.31-.02.2.01.42.11.74,0,.07-.26-.09-.35-.24-.1-.17-.07-.18-.13-.3-.18.76.38.92.38.92,0,0,.1.05.22.03.36-.02.61-.51.68-.65Z"/><path class="cls-5" d="M11.87,68.39h1.56c.57,0,.96.12,1.23.53.44.66.5,1.58.5,2.94,0,1.52,0,2.68-.34,3.56-.29.79-.77.87-1.61.87h-1.34v-7.89ZM13.25,75.12c.33,0,.54-.02.67-.31.22-.5.25-1.33.25-2.56s-.04-2.04-.3-2.46c-.13-.21-.33-.24-.64-.24h-.42v5.57h.43Z"/><path class="cls-5" d="M15.95,68.39h2.68v1.31h-1.71v1.83h1.6v1.25h-1.6v2.17h1.75v1.33h-2.72v-7.89ZM17.37,66.27h.87l-1.03,1.46h-.42l.59-1.46Z"/><path class="cls-5" d="M22.39,73.47c0,.11,0,.2,0,.3,0,1.83-.5,2.7-1.55,2.7-.49,0-.84-.18-1.1-.6-.44-.69-.48-1.83-.48-3.63,0-1.51.07-2.51.26-3.01.28-.73.69-1.03,1.32-1.03,1.06,0,1.51.8,1.52,2.63h-.94v-.19c0-.85-.18-1.27-.56-1.27-.6,0-.6.83-.6,2.84,0,2.21,0,3.05.6,3.05.47,0,.58-.49.58-1.7v-.11h.94Z"/><path class="cls-5" d="M23.18,68.39h.96v3.1h1.33v-3.1h.96v7.89h-.96v-3.58h-1.33v3.58h-.96v-7.89Z"/><path class="cls-5" d="M27.32,68.39h2.68v1.31h-1.71v1.83h1.6v1.25h-1.6v2.17h1.75v1.33h-2.72v-7.89Z"/><path class="cls-5" d="M31.49,69.7h-1.12v-1.3h3.2v1.3h-1.12v6.59h-.97v-6.59Z"/><path class="cls-5" d="M34.97,73.52v.5c0,.85.09,1.26.53,1.26.42,0,.63-.33.63-.93,0-.57-.19-.83-.6-1.26l-.5-.54c-.67-.7-.99-1.11-.99-2.23,0-1.32.55-2.12,1.46-2.12.96,0,1.5.82,1.5,2.32,0,.09,0,.19,0,.28h-.92v-.21c0-.84-.17-1.2-.6-1.2-.31,0-.5.29-.5.79s.24.73.61,1.11l.53.55c.69.69.98,1.23.98,2.38,0,1.43-.55,2.25-1.57,2.25s-1.55-.81-1.55-2.49c0-.15,0-.3.01-.47h.97Z"/><path class="cls-5" d="M39.62,68.39h1.56c.57,0,.96.12,1.23.53.44.66.5,1.58.5,2.94,0,1.52,0,2.68-.34,3.56-.29.79-.77.87-1.61.87h-1.34v-7.89ZM41,75.12c.33,0,.54-.02.67-.31.22-.5.25-1.33.25-2.56s-.04-2.04-.3-2.46c-.13-.21-.33-.24-.64-.24h-.42v5.57h.43Z"/><path class="cls-5" d="M43.7,68.39h.97v7.89h-.97v-7.89Z"/><path class="cls-5" d="M45.56,68.39h2.73v1.29h-1.75v1.87h1.66v1.26h-1.66v3.47h-.97v-7.89Z"/><path class="cls-5" d="M48.95,68.39h2.73v1.29h-1.75v1.87h1.66v1.26h-1.66v3.47h-.97v-7.89Z"/><path class="cls-5" d="M53.31,68.39v5.32c0,1.09.12,1.56.67,1.56s.66-.48.66-1.58v-5.3h.96v5.45c0,.76-.01,1.32-.26,1.81-.28.55-.74.83-1.37.83-1.24,0-1.63-.77-1.63-2.63v-5.45h.97Z"/><path class="cls-5" d="M57.35,73.52v.5c0,.85.09,1.26.53,1.26.42,0,.63-.33.63-.93,0-.57-.19-.83-.6-1.26l-.5-.54c-.67-.7-.99-1.11-.99-2.23,0-1.32.55-2.12,1.46-2.12.96,0,1.5.82,1.5,2.32,0,.09,0,.19,0,.28h-.92v-.21c0-.84-.17-1.2-.6-1.2-.31,0-.5.29-.5.79s.24.73.61,1.11l.53.55c.69.69.98,1.23.98,2.38,0,1.43-.55,2.25-1.57,2.25s-1.55-.81-1.55-2.49c0-.15,0-.3.01-.47h.97Z"/><path class="cls-5" d="M9.15,84.52v.5c0,.85.09,1.26.53,1.26.42,0,.63-.33.63-.93,0-.57-.19-.83-.6-1.26l-.5-.54c-.67-.7-.99-1.11-.99-2.23,0-1.32.55-2.12,1.46-2.12.96,0,1.5.82,1.5,2.32,0,.09,0,.19,0,.28h-.92v-.21c0-.84-.17-1.2-.6-1.2-.31,0-.5.29-.5.79s.24.73.61,1.11l.53.55c.69.69.98,1.23.98,2.38,0,1.43-.55,2.25-1.57,2.25s-1.55-.81-1.55-2.49c0-.15,0-.3.01-.47h.97Z"/><path class="cls-5" d="M12.07,79.39h1.69c1.02,0,1.45.63,1.45,2.24s-.48,2.31-1.46,2.31h-.71v3.35h-.96v-7.89ZM13.42,82.85c.59,0,.82-.29.82-1.19,0-.94-.23-1.17-.8-1.17h-.42v2.35h.41Z"/><path class="cls-5" d="M15.85,79.39h2.68v1.31h-1.71v1.83h1.6v1.25h-1.6v2.17h1.75v1.33h-2.72v-7.89ZM17.27,77.27h.87l-1.03,1.46h-.42l.59-1.46Z"/><path class="cls-5" d="M22.3,84.47c0,.11,0,.2,0,.3,0,1.83-.5,2.7-1.55,2.7-.49,0-.84-.18-1.1-.6-.44-.69-.48-1.83-.48-3.63,0-1.51.07-2.51.26-3.01.28-.73.69-1.03,1.32-1.03,1.06,0,1.51.8,1.52,2.63h-.94v-.19c0-.85-.18-1.27-.55-1.27-.6,0-.6.83-.6,2.84,0,2.21,0,3.05.6,3.05.47,0,.58-.49.58-1.7v-.11h.94Z"/><path class="cls-5" d="M23.08,79.39h.97v7.89h-.97v-7.89Z"/><path class="cls-5" d="M24.94,79.39h2.73v1.29h-1.75v1.87h1.66v1.26h-1.66v3.47h-.97v-7.89Z"/><path class="cls-5" d="M28.33,79.39h.97v7.89h-.97v-7.89Z"/><path class="cls-5" d="M31.77,87.48c-.66,0-1.05-.25-1.37-1-.24-.56-.32-1.6-.32-3.14s.08-2.58.32-3.14c.32-.75.71-1,1.37-1s1.05.25,1.37,1c.24.56.32,1.6.32,3.14,0,1.66-.09,2.7-.32,3.14l.58.88-.49.76-.6-.9c-.25.19-.53.26-.87.26ZM31.72,85.81l.49-.75.21.33c.05-.54.07-1.11.07-1.76,0-2.26-.01-3.25-.71-3.25s-.7.91-.7,2.97.04,2.96.66,2.96c.08,0,.16-.02.27-.05l-.28-.44Z"/><path class="cls-5" d="M35.23,79.39v5.32c0,1.09.12,1.56.67,1.56s.66-.48.66-1.58v-5.3h.96v5.45c0,.76-.01,1.32-.26,1.81-.28.55-.74.83-1.37.83-1.24,0-1.63-.77-1.63-2.63v-5.45h.97Z"/><path class="cls-5" d="M38.39,79.39h2.68v1.31h-1.71v1.83h1.6v1.25h-1.6v2.17h1.75v1.33h-2.72v-7.89Z"/><path class="cls-5" d="M42.7,84.52v.5c0,.85.09,1.26.53,1.26.42,0,.63-.33.63-.93,0-.57-.19-.83-.6-1.26l-.5-.54c-.67-.7-.99-1.11-.99-2.23,0-1.32.55-2.12,1.46-2.12.96,0,1.5.82,1.5,2.32,0,.09,0,.19,0,.28h-.92v-.21c0-.84-.17-1.2-.6-1.2-.31,0-.5.29-.5.79s.24.73.61,1.11l.53.55c.69.69.98,1.23.98,2.38,0,1.43-.55,2.25-1.57,2.25s-1.55-.81-1.55-2.49c0-.15,0-.3.01-.47h.97Z"/><path class="cls-5" d="M47.39,84.02c0-1.74.35-3.44,1.01-4.82h.56c-.43,1.11-.67,2.83-.67,5.08,0,2.06.2,3.7.69,5h-.57c-.73-1.58-1.03-3.24-1.03-5.26Z"/><path class="cls-5" d="M49.64,79.39h1.56c.57,0,.96.12,1.23.53.44.66.5,1.58.5,2.94,0,1.52,0,2.68-.34,3.56-.29.79-.77.87-1.61.87h-1.34v-7.89ZM51.02,86.12c.33,0,.54-.02.67-.31.22-.5.25-1.33.25-2.56s-.04-2.04-.3-2.46c-.13-.21-.33-.24-.64-.24h-.42v5.57h.43Z"/><path class="cls-5" d="M53.71,79.39h1.56c.57,0,.96.12,1.23.53.44.66.5,1.58.5,2.94,0,1.52,0,2.68-.34,3.56-.29.79-.77.87-1.61.87h-1.34v-7.89ZM55.09,86.12c.33,0,.54-.02.67-.31.22-.5.25-1.33.25-2.56s-.04-2.04-.3-2.46c-.13-.21-.33-.24-.64-.24h-.42v5.57h.43Z"/><path class="cls-5" d="M58.66,84.52v.5c0,.85.09,1.26.53,1.26.42,0,.63-.33.63-.93,0-.57-.19-.83-.6-1.26l-.5-.54c-.67-.7-.99-1.11-.99-2.23,0-1.32.55-2.12,1.46-2.12.96,0,1.5.82,1.5,2.32,0,.09,0,.19,0,.28h-.92v-.21c0-.84-.17-1.2-.6-1.2-.31,0-.5.29-.5.79s.24.73.61,1.11l.53.55c.69.69.98,1.23.98,2.38,0,1.43-.55,2.25-1.57,2.25s-1.55-.81-1.55-2.49c0-.15,0-.3.01-.47h.97Z"/><path class="cls-5" d="M61.36,89.28c.49-1.3.69-2.94.69-5,0-2.25-.24-3.97-.67-5.08h.56c.66,1.38,1.01,3.08,1.01,4.82,0,2.02-.3,3.67-1.03,5.26h-.57Z"/><path class="cls-2" d="M50.77,13.05c.82.14,1.37.93,1.22,1.75l-1.08,6.08c-.03.19-.21.32-.4.28l-2.28-.4c-.19-.03-.32-.21-.28-.4l1.08-6.08c.14-.82.93-1.37,1.75-1.22Z"/><path class="cls-2" d="M40.58,27.14l14.92,2.64c.49.09.82.56.73,1.05l-.6,3.38c-.09.49-.56.82-1.05.73l-14.92-2.64c-.49-.09-.82-.56-.73-1.05l.6-3.38c.09-.49.56-.82,1.05-.73ZM54.63,34.69c.35.06.69-.17.76-.53l.6-3.38c.06-.35-.17-.69-.53-.76l-14.92-2.64c-.35-.06-.69.17-.76.53l-.6,3.38c-.06.35.17.69.53.76l14.92,2.64Z"/><path class="cls-2" d="M49.27,20.81l.25.04-.3,1.72c-.08.48-.46.84-.94.92l-9.68,1.5c-.23.04-.42.22-.46.45l-.56,3.14c-.05.3.15.58.44.64l1.36.24-.04.25-1.36-.24c-.43-.08-.72-.49-.65-.93l.56-3.14c.06-.34.33-.6.66-.65l9.68-1.5c.37-.06.66-.34.73-.71l.3-1.72Z"/><path class="cls-2" d="M36.96,18.48c-.09-.26-.27-.48-.51-.61l-8.57-4.47c-.34-.18-.76-.05-.94.29-.48.93-1.34,1.61-2.36,1.87-1.01.27-2.09.09-2.97-.48l-2.67-1.76c-.73-.47-1.62-.6-2.43-.34-.07.02-.14.05-.21.08-.74.29-1.14,1.06-.96,1.83.21.92.85,1.67,1.72,2.02l2.97,1.19c.97.39,1.74,1.18,2.1,2.16s.29,2.08-.19,3.01c-.18.34-.05.76.29.94l7.88,4.11.69.36c.15.08.32.12.48.12.11,0,.21-.02.31-.05.26-.08.48-.26.6-.5l1.01-1.94,3.69-7.04c.09-.18.13-.38.1-.58t0-.02c0-.06-.01-.13-.03-.19ZM36.69,19.16l-3.47,6.65-1.22,2.33c-.1.19-.27.34-.48.4-.2.07-.42.05-.61-.05l-.65-.34-.04-.02h-.02s-7.87-4.12-7.87-4.12c-.23-.12-.32-.41-.2-.64.52-.98.59-2.14.21-3.19-.39-1.04-1.2-1.87-2.23-2.28l-2.97-1.2c-.8-.32-1.39-1.02-1.59-1.86-.15-.66.2-1.32.83-1.58.8-.32,1.71-.23,2.43.25l2.68,1.75c.93.61,2.08.8,3.15.52,1.07-.28,1.98-1,2.5-1.99.12-.23.4-.32.64-.2l8.57,4.48c.16.09.29.23.36.4.01.02.02.05.03.08.06.17.05.35-.01.51,0,.04-.02.07-.04.1Z"/><rect class="cls-2" x="23.38" y="20.95" width="11.97" height=".22" transform="translate(-2.9 37.34) rotate(-62.42)"/><rect class="cls-2" x="21.25" y="19.83" width="11.97" height=".22" transform="translate(-3.05 34.85) rotate(-62.42)"/><circle class="cls-4" cx="17.71" cy="14.97" r=".79"/><path class="cls-4" d="M47.3,39.59c-2.54,0-4.94-.25-6.75-.7-2.04-.51-3.08-1.21-3.08-2.07s1.03-1.56,3.08-2.08c1.81-.45,4.21-.7,6.75-.7s4.94.25,6.75.7c2.04.51,3.08,1.21,3.08,2.08s-1.03,1.56-3.08,2.07c-1.81.45-4.2.7-6.75.7ZM47.3,34.89c-2.48,0-4.8.24-6.54.68-1.92.48-2.43,1.03-2.43,1.25s.51.77,2.43,1.25c1.74.44,4.07.68,6.54.68s4.8-.24,6.54-.68c1.92-.48,2.43-1.03,2.43-1.25s-.51-.77-2.43-1.25c-1.74-.44-4.07-.68-6.54-.68Z"/><path class="cls-4" d="M55.27,38.38c-1.63-.7-4.68-1.14-7.97-1.14s-6.35.44-7.97,1.14l-.34-.78c1.75-.76,4.86-1.21,8.31-1.21s6.56.45,8.31,1.21l-.34.78Z"/><path class="cls-4" d="M47.3,56.19c-2.54,0-4.94-.25-6.75-.7-2.04-.51-3.08-1.21-3.08-2.07v-16.6c0-.87,1.03-1.56,3.08-2.08,1.81-.45,4.21-.7,6.75-.7s4.94.25,6.75.7c2.04.51,3.08,1.21,3.08,2.08v16.6c0,.87-1.03,1.56-3.08,2.07-1.81.45-4.2.7-6.75.7ZM40.76,54.67c1.74.44,4.07.68,6.54.68s4.8-.24,6.54-.68c1.92-.48,2.43-1.03,2.43-1.25v-16.6c0-.22-.51-.77-2.43-1.25-1.74-.44-4.07-.68-6.54-.68s-4.8.24-6.54.68c-1.92.48-2.43,1.03-2.43,1.25v16.6"/><path class="cls-5" d="M55.71,47.92c-.78,0-1.41-.63-1.41-1.41v-3.21c0-.28-.23-.52-.52-.52s-.52.23-.52.52v.38c0,.78-.63,1.41-1.41,1.41h-.04c-.78,0-1.41-.63-1.41-1.41v-4.69h.85s4.98-.55,5.02-1.81.85,0,.85,0v9.33c0,.78-.63,1.41-1.41,1.41Z"/><path class="cls-4" d="M36.36,46.97c-.57,0-1.14-.16-1.65-.47-.93-.58-1.49-1.57-1.49-2.67s.52-2.02,1.38-2.6l3.06-2.07.48.71-3.06,2.07c-.63.43-1.01,1.13-1.01,1.89s.4,1.52,1.08,1.94c.68.42,1.51.46,2.22.1l10.01-4.99.38.76-10.01,4.99c-.45.22-.92.33-1.4.33Z"/><circle class="cls-4" cx="47.58" cy="41.28" r=".96"/><path class="cls-5" d="M33.23,25.54s0,.1,0,.27c0,.13-.01.3-.02.5-.05,1.91-.2,6.77-.2,7.73,0,1.2-1.17,1.55-1.17,0v-3.73c0-.52-.78-.8-.78,0v2.53c0,1.2-.94.74-.94,0v-4.56l.15-.13,2.96-2.61h0Z"/><path class="cls-5" d="M36.73,19.06s-.02.07-.04.1l-3.47,6.65c0-.17,0-.27,0-.27h0l-2.96,2.61-.04-.02h-.02s5.52-10.38,5.52-10.38l.99.72s.02.05.03.08c.06.17.05.35-.01.51Z"/><polygon class="cls-5" points="30.2 28.12 30.22 28.13 30.11 28.28 30.2 28.12"/><path class="cls-5" d="M37,18.68h-.01s-.26.38-.26.38c.06-.16.07-.34.01-.51-.01-.03-.02-.06-.03-.08l.28.2h.01Z"/></g><g id="Cadres"><path class="cls-1" d="M17.61,8.5h35.9c4.95,0,8.98,4.02,8.98,8.98v35.9c0,4.95-4.02,8.98-8.98,8.98H17.61c-4.95,0-8.98-4.02-8.98-8.98V17.48c0-4.95,4.02-8.98,8.98-8.98Z"/></g></svg>