<?xml version="1.0" encoding="UTF-8"?><svg xmlns="http://www.w3.org/2000/svg" viewBox="0 0 70.87 85.04"><defs><style>.cls-1,.cls-2{stroke:#086;}.cls-1,.cls-3{fill:#086;}.cls-2,.cls-4{fill:none;}.cls-4,.cls-3{stroke-width:0px;}</style></defs><g id="Pictogrammes"><path class="cls-1" d="M35.7,31.65c0,1.52-4.98,2.75-11.12,2.75s-11.11-1.23-11.11-2.75,4.98-2.75,11.11-2.75,11.12,1.23,11.12,2.75Z"/><path class="cls-2" d="M13.47,35.21c0,1.52,4.98,2.75,11.11,2.75s11.12-1.23,11.12-2.75v-3.55c0,1.52-4.98,2.75-11.12,2.75s-11.11-1.23-11.11-2.75v3.55Z"/><g id="Tablets-5"><path id="rect48531-7" class="cls-3" d="M53.5,39.54l.22,1.58c.09.66-.36,1.27-1.02,1.36h-.01c-.66.09-1.27-.37-1.36-1.03l-.22-1.58c-.09-.66.37-1.27,1.03-1.36s1.27.37,1.36,1.03Z"/><path id="rect48717-6" class="cls-3" d="M50.44,43.57l.22,1.58c.09.66-.36,1.27-1.02,1.36h-.01c-.66.09-1.27-.37-1.36-1.03l-.22-1.58c-.09-.66.37-1.27,1.03-1.36s1.27.37,1.36,1.03Z"/><path id="rect48729-6" class="cls-4" d="M47.39,47.62l.22,1.6c.09.66-.36,1.27-1.02,1.36h-.01c-.66.09-1.26-.37-1.35-1.03l-.22-1.6c-.07-.65.38-1.24,1.02-1.34.65-.09,1.26.36,1.36,1Z"/><path class="cls-3" d="M42.21,57.68c.56.43,1.26.61,1.95.5.69-.1,1.31-.46,1.73-1.02l11.61-15.38c.42-.55.61-1.24.51-1.93-.1-.69-.46-1.31-1.02-1.73l-10.29-7.79c-1.15-.87-2.8-.65-3.67.51h0s-11.63,15.39-11.63,15.39c-.87,1.15-.64,2.79.51,3.67l10.3,7.78ZM56.32,39.01c.32.24.54.6.59,1,.06.4-.05.8-.29,1.11l-11.63,15.37c-.24.31-.59.52-.97.58-.39.06-.79-.05-1.11-.29l-10.31-7.78c-.66-.5-.79-1.43-.3-2.09,0,0,0,0,0,0h0l11.63-15.38c.5-.66,1.43-.79,2.09-.3,0,0,0,0,0,0"/><path class="cls-3" d="M46.04,37.94c.97-.14,1.64-1.03,1.51-2l-.22-1.58c-.13-.97-1.03-1.64-2-1.51-.97.13-1.64,1.03-1.51,2l.22,1.58c.14.97,1.03,1.64,2,1.51ZM44.93,34.7c-.05-.36.2-.68.55-.73.35-.05.68.19.73.54,0,0,0,0,0,.01l.22,1.58c.05.35-.19.68-.54.73h-.01c-.36.05-.68-.2-.73-.55l-.22-1.58Z"/><path class="cls-3" d="M52.77,43.03c.97-.14,1.64-1.03,1.51-2l-.22-1.58c-.13-.97-1.03-1.64-2-1.51-.97.13-1.64,1.03-1.51,2l.22,1.58c.14.97,1.03,1.64,2,1.51ZM51.66,39.79c-.05-.36.2-.68.55-.73.35-.05.68.19.73.54h0s.22,1.59.22,1.59c.05.35-.19.68-.54.73h-.01c-.36.05-.68-.2-.73-.55l-.22-1.58Z"/><path class="cls-3" d="M42.98,41.97c.97-.14,1.64-1.03,1.51-2l-.22-1.58c-.13-.97-1.03-1.64-2-1.51-.97.13-1.64,1.03-1.51,2h0s.22,1.58.22,1.58c.14.97,1.03,1.64,2,1.51ZM41.87,38.74c-.05-.36.2-.68.55-.73.35-.05.68.19.73.54h0s.22,1.59.22,1.59c.05.35-.19.68-.54.73h-.01c-.36.05-.68-.2-.73-.55l-.22-1.58Z"/><path class="cls-3" d="M49,41.99c-.97.14-1.64,1.03-1.51,2l.22,1.58c.13.97,1.03,1.64,2,1.51.97-.13,1.64-1.03,1.51-2l-.22-1.58c-.14-.97-1.03-1.64-2-1.51ZM50.11,45.23c.05.35-.19.68-.54.73h-.01c-.36.05-.68-.2-.73-.55l-.22-1.58c-.05-.36.2-.68.55-.73.35-.05.68.19.73.54,0,0,0,0,0,.01l.22,1.58Z"/><path class="cls-3" d="M39.92,46.02c.97-.14,1.64-1.03,1.51-2l-.22-1.58c-.13-.97-1.03-1.64-2-1.51-.97.13-1.64,1.03-1.51,2l.22,1.58c.14.97,1.03,1.64,2,1.51ZM38.82,42.78c-.05-.36.2-.68.55-.73.35-.05.68.19.73.54,0,0,0,0,0,.01l.22,1.58c.05.35-.19.68-.54.73,0,0,0,0-.01,0-.36.05-.68-.2-.73-.55l-.22-1.58Z"/><path class="cls-3" d="M45.95,46.06c-.95.14-1.62,1.01-1.5,1.97l.22,1.6c.13.97,1.03,1.64,2,1.51.97-.13,1.64-1.03,1.51-2h0s-.22-1.6-.22-1.6c-.15-.96-1.04-1.62-2-1.48ZM47.05,49.3c.05.35-.19.68-.54.73h-.01c-.35.04-.67-.2-.72-.55l-.22-1.6c-.03-.34.21-.65.55-.7.35-.05.68.19.73.54h0s.22,1.59.22,1.59Z"/><path class="cls-3" d="M36.86,50.06c.97-.14,1.64-1.03,1.51-2l-.22-1.58c-.13-.97-1.03-1.64-2-1.51-.97.13-1.64,1.03-1.51,2l.22,1.58c.14.97,1.03,1.64,2,1.51ZM35.76,46.82c-.05-.36.2-.68.55-.73.35-.05.68.19.73.54h0s.22,1.59.22,1.59c.05.35-.19.68-.54.73h-.01c-.36.05-.68-.2-.73-.55l-.22-1.58Z"/><path class="cls-3" d="M42.89,50.07c-.97.14-1.64,1.03-1.51,2l.22,1.58c.13.97,1.03,1.64,2,1.51.97-.13,1.64-1.03,1.51-2l-.22-1.58c-.14-.97-1.03-1.64-2-1.51ZM43.99,53.31c.05.35-.19.68-.54.73h-.01c-.36.05-.68-.2-.73-.55l-.22-1.58c-.05-.36.2-.68.55-.73.35-.05.68.19.73.54h0s.22,1.59.22,1.59Z"/><path class="cls-3" d="M39.42,50.67c.25.19.6.14.79-.11h0s9.4-12.44,9.4-12.44c.19-.25.14-.6-.11-.79-.25-.19-.6-.14-.79.11h0l-9.4,12.43c-.19.25-.14.6.11.78,0,0,0,0,0,0h0Z"/></g><path id="rect48531-7-2" class="cls-3" d="M46.77,34.66l.2,1.44c.09.6-.33,1.16-.93,1.25,0,0,0,0-.01,0-.61.08-1.16-.34-1.25-.94l-.2-1.44c-.08-.61.34-1.16.94-1.25s1.16.34,1.25.94Z"/><path class="cls-3" d="M13.51,68.68h1.55l.76,5.11.76-5.11h1.55v7.89h-.99l.02-7-1.03,7h-.63l-1.03-7,.02,7h-.99v-7.89Z"/><path class="cls-3" d="M19.07,68.68h2.84v1.31h-1.82v1.83h1.69v1.25h-1.69v2.17h1.86v1.33h-2.88v-7.89ZM20.58,66.56h.92l-1.1,1.46h-.45l.63-1.46Z"/><path class="cls-3" d="M22.71,68.68h1.65c.6,0,1.02.12,1.3.52.47.66.53,1.58.53,2.94,0,1.52,0,2.68-.36,3.56-.31.79-.82.87-1.71.87h-1.42v-7.89ZM24.17,75.41c.35,0,.57-.02.71-.31.24-.5.27-1.33.27-2.56s-.04-2.04-.32-2.46c-.14-.21-.35-.24-.68-.24h-.44v5.57h.46Z"/><path class="cls-3" d="M27.03,68.68h1.03v7.89h-1.03v-7.89Z"/><path class="cls-3" d="M32.2,73.76c0,.1,0,.2,0,.3,0,1.83-.53,2.7-1.64,2.7-.51,0-.89-.18-1.17-.6-.47-.69-.51-1.83-.51-3.63,0-1.51.07-2.51.28-3.01.3-.73.73-1.03,1.4-1.03,1.13,0,1.6.8,1.61,2.63h-1v-.19c0-.85-.19-1.27-.59-1.27-.64,0-.64.83-.64,2.84,0,2.21,0,3.06.63,3.06.49,0,.62-.49.62-1.7v-.1h1Z"/><path class="cls-3" d="M33.86,68.68h1.38l1.26,7.89h-1.11l-.27-1.98h-1.18l-.26,1.98h-1.05l1.24-7.89ZM34.97,73.41l-.44-3.31-.43,3.31h.88Z"/><path class="cls-3" d="M37.05,68.68h1.55l.76,5.11.76-5.11h1.55v7.89h-.99l.02-7-1.03,7h-.63l-1.03-7,.02,7h-.99v-7.89Z"/><path class="cls-3" d="M42.6,68.68h2.84v1.31h-1.82v1.83h1.69v1.25h-1.69v2.17h1.86v1.33h-2.88v-7.89Z"/><path class="cls-3" d="M46.24,68.68h1.06l1.44,5.52-.03-5.52h.97v7.89h-1.05l-1.45-5.53.03,5.53h-.97v-7.89Z"/><path class="cls-3" d="M51.41,69.98h-1.18v-1.3h3.4v1.3h-1.18v6.59h-1.03v-6.59Z"/><path class="cls-3" d="M55.09,73.8v.5c0,.85.1,1.26.57,1.26.44,0,.67-.33.67-.93,0-.57-.21-.83-.63-1.26l-.53-.54c-.71-.7-1.05-1.11-1.05-2.23,0-1.32.59-2.12,1.55-2.12,1.02,0,1.59.82,1.59,2.32,0,.09,0,.19,0,.28h-.98v-.21c0-.84-.18-1.2-.63-1.2-.33,0-.53.29-.53.79s.25.73.65,1.11l.57.55c.73.69,1.04,1.23,1.04,2.38,0,1.43-.59,2.25-1.66,2.25s-1.65-.81-1.65-2.49c0-.15,0-.3.01-.47h1.03Z"/><path class="cls-2" d="M34.55,19.09c1.09-1.45.79-3.5-.66-4.59l-.74-.56c-1.45-1.09-3.5-.79-4.59.66l-8.08,10.81c-1.09,1.45-.79,3.5.66,4.59l.74.56c1.45,1.08,3.5.79,4.59-.66l8.08-10.81Z"/><path class="cls-1" d="M32.99,14.38c-1.97-1.59-4.02.03-4.06.08-.52.65-3.98,4.99-4,5.03-.45.86.57,2.57,1.96,3.61,1.39,1.04,3.33,1.54,4.02.86.03-.03,3.51-5.24,4.01-6,.04-.06.29-1.57-1.92-3.57"/></g><g id="Cadres"><path class="cls-2" d="M17.48,8.5h35.91c4.95,0,8.98,4.02,8.98,8.98v35.9c0,4.95-4.02,8.98-8.98,8.98H17.48c-4.95,0-8.98-4.02-8.98-8.98V17.48c0-4.95,4.02-8.98,8.98-8.98Z"/></g></svg>