<?xml version="1.0" encoding="UTF-8"?><svg xmlns="http://www.w3.org/2000/svg" viewBox="0 0 70.87 85.04"><defs><style>.cls-1{stroke-linecap:round;stroke-linejoin:round;}.cls-1,.cls-2,.cls-3{stroke:#086;}.cls-1,.cls-3{fill:none;}.cls-2,.cls-4{fill:#086;}.cls-4{stroke-width:0px;}</style></defs><g id="Pictogrammes"><rect class="cls-3" x="13.96" y="52.18" width="41.99" height="5.75"/><line class="cls-3" x1="52.44" y1="52.18" x2="52.44" y2="57.93"/><line class="cls-3" x1="17.48" y1="57.93" x2="17.48" y2="52.18"/><line class="cls-1" x1="12.81" y1="53.87" x2="13.41" y2="53.87"/><line class="cls-1" x1="12.81" y1="56.3" x2="13.41" y2="56.3"/><path class="cls-3" d="M40.14,38.81c.54,0,.98-.73.98-1.63v-3.05c0-.9-.44-1.63-.98-1.63-.4,0-.72-.73-.72-1.63v-8.85c0-.9-.73-1.63-1.63-1.63s-1.63.73-1.63,1.63v7.36c0,.9-.54,1.63-1.2,1.63s-1.2-.73-1.2-1.63v-7.36c0-.9-.73-1.63-1.63-1.63s-1.63.73-1.63,1.63v8.85c0,.9-.32,1.63-.72,1.63-.54,0-.98.73-.98,1.63v3.05c0,.9.44,1.63.98,1.63h10.36Z"/><path class="cls-3" d="M30.11,38.81v2.66c0,.06,0,.12,0,.17.09.82.78,1.46,1.62,1.46h6.45c.9,0,1.63-.73,1.63-1.63v-2.66"/><line class="cls-3" x1="32.23" y1="33.71" x2="37.69" y2="33.71"/><line class="cls-1" x1="31.95" y1="43.34" x2="38.15" y2="43.91"/><line class="cls-1" x1="31.95" y1="44.97" x2="38.15" y2="45.53"/><line class="cls-1" x1="31.95" y1="46.72" x2="38.15" y2="47.28"/><path class="cls-2" d="M32.69,47.66c0,.8,1.09,1.45,2.44,1.45s2.44-.65,2.44-1.45h-4.88Z"/><line class="cls-3" x1="23.08" y1="29.12" x2="18.94" y2="29.12"/><line class="cls-3" x1="34.96" y1="13.7" x2="34.96" y2="17.84"/><line class="cls-3" x1="26.17" y1="34.88" x2="23.24" y2="37.8"/><line class="cls-3" x1="26.17" y1="23.36" x2="23.24" y2="20.44"/><line class="cls-3" x1="46.83" y1="29.12" x2="50.97" y2="29.12"/><line class="cls-3" x1="43.75" y1="34.88" x2="46.68" y2="37.8"/><line class="cls-3" x1="43.75" y1="23.36" x2="46.68" y2="20.44"/><line class="cls-1" x1="56.39" y1="53.86" x2="57" y2="53.86"/><line class="cls-1" x1="56.39" y1="56.29" x2="57" y2="56.29"/><path class="cls-4" d="M9.37,68.66h1.26l1.14,7.89h-1.01l-.25-1.98h-1.08l-.24,1.98h-.96l1.13-7.89ZM10.38,73.39l-.4-3.31-.39,3.31h.8Z"/><path class="cls-4" d="M12.27,68.66h1.41l.69,5.11.69-5.11h1.41v7.89h-.9l.02-7-.94,7h-.58l-.94-7,.02,7h-.9v-7.89Z"/><path class="cls-4" d="M17.32,68.66h1.63c.98,0,1.4.63,1.4,2.24s-.46,2.31-1.41,2.31h-.68v3.35h-.93v-7.89ZM18.62,72.12c.57,0,.79-.29.79-1.19,0-.94-.22-1.17-.78-1.17h-.41v2.35h.39Z"/><path class="cls-4" d="M21.17,69.47c.31-.75.69-1,1.32-1s1.02.25,1.33,1c.23.56.31,1.59.31,3.14s-.08,2.58-.31,3.14c-.31.75-.69,1-1.33,1s-1.02-.25-1.32-1c-.23-.55-.31-1.59-.31-3.14s.08-2.59.31-3.14ZM22.5,75.57c.64,0,.67-.9.67-2.96s-.03-2.97-.68-2.97-.68.91-.68,2.97.03,2.96.68,2.96Z"/><path class="cls-4" d="M25.83,68.66v5.32c0,1.09.11,1.56.65,1.56s.64-.48.64-1.59v-5.3h.92v5.45c0,.76-.01,1.32-.25,1.81-.27.55-.71.83-1.32.83-1.2,0-1.57-.77-1.57-2.63v-5.45h.94Z"/><path class="cls-4" d="M28.88,68.66h.94v6.55h1.69v1.34h-2.63v-7.89Z"/><path class="cls-4" d="M32.15,68.66h2.58v1.31h-1.65v1.83h1.54v1.25h-1.54v2.17h1.69v1.33h-2.62v-7.89Z"/><path class="cls-4" d="M36.3,73.79v.5c0,.85.09,1.26.52,1.26.4,0,.61-.33.61-.93,0-.57-.19-.83-.57-1.26l-.48-.54c-.64-.7-.96-1.11-.96-2.23,0-1.32.53-2.12,1.41-2.12.93,0,1.44.82,1.44,2.32,0,.09,0,.19,0,.28h-.89v-.21c0-.84-.16-1.2-.58-1.2-.3,0-.48.29-.48.79s.23.73.59,1.11l.52.55c.66.69.94,1.23.94,2.38,0,1.43-.54,2.25-1.51,2.25s-1.5-.81-1.5-2.49c0-.15,0-.3.01-.47h.94Z"/><path class="cls-4" d="M40.16,77.54l1.89-9.06h.49l-1.89,9.06h-.5Z"/><path class="cls-4" d="M44.52,68.66h.96l1.31,5.52-.03-5.52h.88v7.89h-.96l-1.32-5.53.03,5.53h-.88v-7.89Z"/><path class="cls-4" d="M48.5,68.66h2.58v1.31h-1.65v1.83h1.54v1.25h-1.54v2.17h1.69v1.33h-2.62v-7.89ZM49.87,66.54h.84l-1,1.46h-.41l.57-1.46Z"/><path class="cls-4" d="M52.02,69.47c.31-.75.69-1,1.32-1s1.02.25,1.33,1c.23.56.31,1.59.31,3.14s-.08,2.58-.31,3.14c-.31.75-.69,1-1.33,1s-1.02-.25-1.32-1c-.23-.55-.31-1.59-.31-3.14s.08-2.59.31-3.14ZM53.35,75.57c.64,0,.67-.9.67-2.96s-.03-2.97-.68-2.97-.68.91-.68,2.97.03,2.96.68,2.96Z"/><path class="cls-4" d="M55.74,68.66h.96l1.31,5.52-.03-5.52h.88v7.89h-.96l-1.32-5.53.03,5.53h-.88v-7.89Z"/><path class="cls-4" d="M60.56,73.79v.5c0,.85.09,1.26.52,1.26.4,0,.61-.33.61-.93,0-.57-.19-.83-.57-1.26l-.48-.54c-.64-.7-.96-1.11-.96-2.23,0-1.32.53-2.12,1.41-2.12.93,0,1.44.82,1.44,2.32,0,.09,0,.19,0,.28h-.89v-.21c0-.84-.16-1.2-.58-1.2-.3,0-.48.29-.48.79s.23.73.59,1.11l.52.55c.66.69.94,1.23.94,2.38,0,1.43-.54,2.25-1.51,2.25s-1.5-.81-1.5-2.49c0-.15,0-.3.01-.47h.94Z"/></g><g id="Cadres"><path class="cls-3" d="M17.48,8.5h35.9c4.95,0,8.98,4.02,8.98,8.98v35.9c0,4.95-4.02,8.98-8.98,8.98H17.48c-4.95,0-8.98-4.02-8.98-8.98V17.48c0-4.95,4.02-8.98,8.98-8.98Z"/></g></svg>