<?xml version="1.0" encoding="UTF-8"?><svg xmlns="http://www.w3.org/2000/svg" viewBox="0 0 70.87 85.04"><defs><style>.cls-1{fill:none;stroke:#086;}.cls-2{fill:#086;}.cls-2,.cls-3{stroke-width:0px;}.cls-3{fill:#008966;}</style></defs><g id="Pictogrammes"><path class="cls-3" d="M42.32,53.95h-14.72c-.37,0-.69-.24-.8-.59-.11-.35.02-.74.32-.95l1.23-.87c1.12-.82,1.63-2.23,1.3-3.58l-.2-.84h11.01l-.2.84c-.33,1.35.18,2.76,1.3,3.58l1.23.87c.3.21.43.6.32.95-.11.35-.43.59-.8.59ZM27.91,53.52h0s0,0,0,0ZM29.24,52.58h11.44c-1.26-.97-1.96-2.51-1.86-4.1h-7.71c.1,1.59-.6,3.13-1.86,4.1h0Z"/><path class="cls-3" d="M52.38,48.48H17.54c-1.7,0-3.07-1.38-3.07-3.07v-4.44h40.99v4.44c0,1.7-1.38,3.07-3.07,3.07ZM15.83,42.33v3.08c0,.94.76,1.71,1.71,1.71h34.84c.94,0,1.71-.76,1.71-1.71v-3.08H15.83Z"/><path class="cls-3" d="M55.46,42.33H14.47v-22.2c0-1.7,1.38-3.07,3.07-3.07h34.84c1.7,0,3.07,1.38,3.07,3.07v10.59c0,.38-.31.68-.68.68s-.68-.31-.68-.68v-10.59c0-.94-.76-1.71-1.71-1.71H17.54c-.94,0-1.71.76-1.71,1.71v20.84h38.26v-3.42c0-.38.31-.68.68-.68s.68.31.68.68v4.78h0Z"/><path class="cls-3" d="M54.77,33.45c.38,0,.68.31.68.68s-.31.68-.68.68-.68-.31-.68-.68.31-.68.68-.68Z"/><path class="cls-3" d="M17.88,23.89c-.28,0-.53-.17-.63-.42-.11-.26-.05-.55.15-.74l2.73-2.73c.27-.26.7-.26.96,0s.27.69,0,.96l-2.73,2.73c-.13.13-.3.2-.48.2Z"/><path class="cls-3" d="M18.62,28.64c-.28,0-.53-.17-.63-.42-.11-.26-.05-.55.15-.74l1.37-1.37c.27-.26.7-.26.96,0,.27.27.27.69,0,.96l-1.37,1.37c-.13.13-.3.2-.48.2h0Z"/><path class="cls-3" d="M21.35,25.91c-.18,0-.35-.07-.49-.2-.13-.13-.2-.3-.2-.49,0-.28.16-.53.42-.63.26-.11.55-.05.75.15.2.2.26.49.15.75s-.36.42-.63.42Z"/><path class="cls-3" d="M22.72,24.54c-.28,0-.53-.17-.63-.42-.11-.26-.05-.55.15-.74l2.05-2.05c.27-.26.7-.26.96,0,.27.26.27.69,0,.96l-2.05,2.05c-.13.13-.3.2-.48.2Z"/><path class="cls-3" d="M18.62,34.1c-.28,0-.53-.17-.63-.42s-.05-.55.15-.74l6.15-6.15c.27-.26.7-.26.96,0,.27.27.27.69,0,.96l-6.15,6.15c-.13.13-.3.2-.48.2Z"/><path class="cls-3" d="M26.13,26.59c-.09,0-.18-.02-.26-.05-.04-.02-.09-.04-.12-.06-.03-.03-.07-.05-.1-.08-.06-.07-.11-.14-.14-.23-.07-.17-.07-.35,0-.52.03-.08.08-.16.14-.23l.1-.08s.08-.05.12-.06c.17-.07.35-.07.52,0,.08.03.16.08.23.14.26.27.26.7,0,.97-.07.06-.14.11-.23.14-.08.03-.17.05-.26.05Z"/><path class="cls-3" d="M27.5,25.22c-.28,0-.53-.17-.63-.42s-.05-.55.15-.74l.68-.68c.27-.26.7-.26.96,0s.27.69,0,.96l-.68.68c-.13.13-.3.2-.48.2h0Z"/><path class="cls-3" d="M42.82,55.99h-15.71c-.94,0-1.71-.76-1.71-1.71s.76-1.71,1.71-1.71h15.71c.94,0,1.71.76,1.71,1.71s-.76,1.71-1.71,1.71ZM27.1,53.95c-.19,0-.34.15-.34.34s.15.34.34.34h15.71c.19,0,.34-.15.34-.34s-.15-.34-.34-.34h-15.71Z"/><path class="cls-2" d="M23.74,68.45h2.84v1.31h-1.82v1.83h1.69v1.25h-1.69v2.17h1.86v1.33h-2.88v-7.89ZM25.24,66.33h.92l-1.1,1.46h-.45l.63-1.46Z"/><path class="cls-2" d="M30.57,73.53c0,.1,0,.2,0,.3,0,1.83-.53,2.7-1.64,2.7-.51,0-.89-.18-1.17-.6-.47-.69-.51-1.83-.51-3.63,0-1.51.07-2.51.28-3.01.3-.73.73-1.03,1.4-1.03,1.13,0,1.6.8,1.61,2.63h-1v-.19c0-.85-.19-1.27-.59-1.27-.64,0-.64.83-.64,2.84,0,2.21,0,3.06.63,3.06.49,0,.62-.49.62-1.7v-.1h1Z"/><path class="cls-2" d="M31.4,68.45h1.85c1.11,0,1.57.6,1.57,2.07,0,1.03-.27,1.63-.78,1.73.76.28.74.85.77,1.87l.03,1.05c.01.51.07.88.28,1.18h-1.22c-.07-.34-.09-.73-.1-1.23v-.83s-.01-.21-.01-.21c0-1.03-.3-1.2-1.04-1.2h-.35v3.46h-.99v-7.89ZM32.99,71.79c.6,0,.79-.29.79-1.18s-.26-1.06-.88-1.06h-.51v2.24h.6Z"/><path class="cls-2" d="M36.48,68.45h1.38l1.26,7.89h-1.11l-.27-1.98h-1.18l-.26,1.98h-1.05l1.24-7.89ZM37.59,73.18l-.44-3.31-.43,3.31h.88Z"/><path class="cls-2" d="M39.66,68.45h1.06l1.44,5.52-.03-5.52h.97v7.89h-1.05l-1.45-5.53.03,5.53h-.97v-7.89Z"/><path class="cls-2" d="M44.97,73.57v.5c0,.85.1,1.26.57,1.26.44,0,.67-.33.67-.93,0-.57-.21-.83-.63-1.26l-.53-.54c-.71-.7-1.05-1.11-1.05-2.23,0-1.32.59-2.12,1.55-2.12,1.02,0,1.59.82,1.59,2.32,0,.09,0,.19,0,.28h-.98v-.21c0-.84-.18-1.2-.63-1.2-.33,0-.53.29-.53.79s.25.73.65,1.11l.57.55c.73.69,1.04,1.23,1.04,2.38,0,1.43-.59,2.25-1.66,2.25s-1.65-.81-1.65-2.49c0-.15,0-.3.01-.47h1.03Z"/></g><g id="Cadres"><path class="cls-1" d="M17.48,8.5h35.91c4.95,0,8.98,4.02,8.98,8.98v35.9c0,4.95-4.02,8.98-8.98,8.98H17.48c-4.95,0-8.98-4.02-8.98-8.98V17.48c0-4.95,4.02-8.98,8.98-8.98Z"/></g></svg>