<?xml version="1.0" encoding="UTF-8"?><svg xmlns="http://www.w3.org/2000/svg" viewBox="0 0 70.87 85.04"><defs><style>.cls-1{fill:none;stroke:#086;}.cls-2{fill:#fff;}.cls-2,.cls-3{stroke-width:0px;}.cls-3{fill:#086;}</style></defs><g id="Pictogrammes"><path class="cls-3" d="M22.19,19.98c-.05-.16-.17-.27-.32-.32h0c-.1-.04-.2-.04-.31-.01l-3.12.99s-.05.02-.07.03c-.22.11-.33.36-.25.6,0,.02,0,.03.02.04l.26-.08,1.66-.52,1.88-.61.26-.08s0-.03-.01-.04ZM21.87,19.66h0c-.1-.04-.2-.04-.31-.01l-3.12.99s-.05.02-.07.03c-.22.11-.33.36-.25.6,0,.02,0,.03.02.04l.26-.08,1.66-.52,1.88-.61-.07-.44ZM21.87,19.66h0c-.1-.04-.2-.04-.31-.01l-3.12.99s-.05.02-.07.03c-.22.11-.33.36-.25.6,0,.02,0,.03.02.04l.26-.08,1.66-.52,1.88-.61-.07-.44ZM21.87,19.66h0c-.1-.04-.2-.04-.31-.01l-3.12.99s-.05.02-.07.03c-.22.11-.33.36-.25.6,0,.02,0,.03.02.04l.26-.08,1.66-.52,1.88-.61-.07-.44ZM26.03,18.7l-.19-.42c-.12.12-.17.31-.11.49.01.04.03.08.06.11l.28-.09-.04-.09ZM29.89,17.42c-.06-.2-.25-.33-.45-.34h0c-.06,0-.11,0-.17.02l.03.05.27.42-.48.15-.4.13-1.74.56.03.09,1.26-.4.48-.15h0s.05-.02.05-.02l.37-.12.48-.16h0s.3-.08.3-.08h0c0-.06,0-.1-.02-.15ZM21.87,19.66h0c-.1-.04-.2-.04-.31-.01l-3.12.99s-.05.02-.07.03c-.22.11-.33.36-.25.6,0,.02,0,.03.02.04l.26-.08,1.66-.52,1.88-.61-.07-.44ZM26.03,18.7l-.19-.42c-.12.12-.17.31-.11.49.01.04.03.08.06.11l.28-.09-.04-.09ZM29.89,17.42c-.06-.2-.25-.33-.45-.34h0c-.06,0-.11,0-.17.02l.03.05.27.42-.48.15-.4.13-1.74.56.03.09,1.26-.4.48-.15h0s.05-.02.05-.02l.37-.12.48-.16h0s.3-.08.3-.08h0c0-.06,0-.1-.02-.15ZM21.87,19.66h0c-.1-.04-.2-.04-.31-.01l-3.12.99s-.05.02-.07.03c-.22.11-.33.36-.25.6,0,.02,0,.03.02.04l.26-.08,1.66-.52,1.88-.61-.07-.44ZM26.03,18.7l-.19-.42c-.12.12-.17.31-.11.49.01.04.03.08.06.11l.28-.09-.04-.09ZM29.89,17.42c-.06-.2-.25-.33-.45-.34h0c-.06,0-.11,0-.17.02l.03.05.27.42-.48.15-.4.13-1.74.56.03.09,1.26-.4.48-.15h0s.05-.02.05-.02l.37-.12.48-.16h0s.3-.08.3-.08h0c0-.06,0-.1-.02-.15ZM21.87,19.66h0c-.1-.04-.2-.04-.31-.01l-3.12.99s-.05.02-.07.03c-.22.11-.33.36-.25.6,0,.02,0,.03.02.04l.26-.08,1.66-.52,1.88-.61-.07-.44ZM29.89,17.42c-.06-.2-.25-.33-.45-.34h0c-.06,0-.11,0-.17.02l.03.05.27.42-.48.15s.02.06.05.09l.48-.16h0s.3-.08.3-.08h0c0-.06,0-.1-.02-.15ZM21.87,19.66h0c-.1-.04-.2-.04-.31-.01l-3.12.99s-.05.02-.07.03c-.22.11-.33.36-.25.6,0,.02,0,.03.02.04l.26-.08,1.66-.52,1.88-.61-.07-.44ZM29.89,17.42c-.06-.2-.25-.33-.45-.34h0c-.06,0-.11,0-.17.02l.03.05.27.42-.48.15-.4.13-1.74.56-.43.14-.48.15.04.09.45-.14.45-.15,1.26-.4.48-.15h0s.05-.02.05-.02l.37-.12.48-.15.3-.09h0c0-.06,0-.1-.02-.15ZM21.87,19.66h0c-.1-.04-.2-.04-.31-.01l-3.12.99s-.05.02-.07.03c-.22.11-.33.36-.25.6,0,.02,0,.03.02.04l.26-.08,1.66-.52,1.88-.61-.07-.44ZM29.89,17.42c-.06-.2-.25-.33-.45-.34h0c-.06,0-.11,0-.17.02l.03.05.27.42-.48.15-.4.13-1.74.56-.43.14-.48.15.04.09.45-.14.45-.15,1.26-.4.48-.15h0s.05-.02.05-.02l.37-.12.48-.15.3-.09h0c0-.06,0-.1-.02-.15ZM21.87,19.66h0c-.1-.04-.2-.04-.31-.01l-3.12.99s-.05.02-.07.03c-.22.11-.33.36-.25.6,0,.02,0,.03.02.04l.26-.08,1.66-.52,1.88-.61-.07-.44ZM29.89,17.42c-.06-.2-.25-.33-.45-.34h0c-.06,0-.11,0-.17.02l.03.05.27.42-.48.15-.4.13-1.74.56-.43.14-.48.15.04.09.45-.14.45-.15,1.26-.4.48-.15h0s.05-.02.05-.02l.37-.12.48-.15.3-.09h0c0-.06,0-.1-.02-.15ZM21.87,19.66h0c-.1-.04-.2-.04-.31-.01l-3.12.99s-.05.02-.07.03c-.22.11-.33.36-.25.6,0,.02,0,.03.02.04l.26-.08,1.66-.52,1.88-.61-.07-.44ZM29.89,17.42c-.06-.2-.25-.33-.45-.34h0c-.06,0-.11,0-.17.02l.03.05.27.42-.48.15-.4.13-1.74.56-.43.14-.48.15.04.09.45-.14.45-.15,1.26-.4.48-.15h0s.05-.02.05-.02l.37-.12.48-.15.3-.09h0c0-.06,0-.1-.02-.15ZM22.19,19.98c-.05-.16-.17-.27-.32-.32h0c-.1-.04-.2-.04-.31-.01l-3.12.99s-.05.02-.07.03c-.22.11-.33.36-.25.6,0,.02,0,.03.02.04l.26-.08,1.66-.52,1.88-.61.26-.08s0-.03-.01-.04ZM29.89,17.42c-.06-.2-.25-.33-.45-.34h0c-.06,0-.11,0-.17.02l.03.05.27.42-.48.15-.4.13-1.74.56-.43.14-.48.15-.19-.42c-.12.12-.17.31-.11.49.01.04.03.08.06.11l.28-.09.45-.14.45-.15,1.26-.4.48-.15h0s.05-.02.05-.02l.37-.12.48-.15.3-.09h0c0-.06,0-.1-.02-.15ZM22.19,19.98c-.05-.16-.17-.27-.32-.32h0c-.1-.04-.2-.04-.31-.01l-3.12.99s-.05.02-.07.03c-.22.11-.33.36-.25.6,0,.02,0,.03.02.04l.26-.08,1.66-.52,1.88-.61.26-.08s0-.03-.01-.04ZM29.89,17.42c-.06-.2-.25-.33-.45-.34h0c-.06,0-.11,0-.17.02l.03.05.27.42-.48.15-.4.13-1.74.56-.43.14-.48.15-.19-.42c-.12.12-.17.31-.11.49.01.04.03.08.06.11l.28-.09.45-.14.45-.15,1.26-.4.48-.15h0s.05-.02.05-.02l.37-.12.48-.15.3-.09h0c0-.06,0-.1-.02-.15ZM22.19,19.98c-.05-.16-.17-.27-.32-.32h0c-.1-.04-.2-.04-.31-.01l-3.12.99s-.05.02-.07.03c-.22.11-.33.36-.25.6,0,.02,0,.03.02.04l.26-.08,1.66-.52,1.88-.61.26-.08s0-.03-.01-.04ZM29.89,17.42c-.06-.2-.25-.33-.45-.34h0c-.06,0-.11,0-.17.02l.03.05.27.42-.48.15-.4.13-1.74.56-.43.14-.48.15-.19-.42c-.12.12-.17.31-.11.49.01.04.03.08.06.11l.28-.09.45-.14.45-.15,1.26-.4.48-.15h0s.05-.02.05-.02l.37-.12.48-.15.3-.09h0c0-.06,0-.1-.02-.15ZM22.19,19.98c-.05-.16-.17-.27-.32-.32h0c-.1-.04-.2-.04-.31-.01l-3.12.99s-.05.02-.07.03c-.22.11-.33.36-.25.6,0,.02,0,.03.02.04l.26-.08,1.66-.52,1.88-.61.26-.08s0-.03-.01-.04ZM29.89,17.42c-.06-.2-.25-.33-.45-.34h0c-.06,0-.11,0-.17.02l.03.05.27.42-.48.15-.4.13-1.74.56-.43.14-.48.15-.19-.42c-.12.12-.17.31-.11.49.01.04.03.08.06.11l.28-.09.45-.14.45-.15,1.26-.4.48-.15h0s.05-.02.05-.02l.37-.12.48-.15.3-.09h0c0-.06,0-.1-.02-.15ZM22.19,19.98c-.05-.16-.17-.27-.32-.32h0c-.1-.04-.2-.04-.31-.01l-3.12.99s-.05.02-.07.03c-.22.11-.33.36-.25.6,0,.02,0,.03.02.04l.26-.08,1.66-.52,1.88-.61.26-.08s0-.03-.01-.04ZM29.89,17.42c-.06-.2-.25-.33-.45-.34h0c-.06,0-.11,0-.17.02l.03.05.27.42-.48.15-.4.13-1.74.56-.43.14-.48.15-.19-.42c-.12.12-.17.31-.11.49.01.04.03.08.06.11l.28-.09.45-.14.45-.15,1.26-.4.48-.15.05-.02.37-.12.48-.15.3-.09h0c0-.06,0-.1-.02-.15ZM32.93,16.22c.46-.41.69-.86.57-1.24-.23-.72-1.63-.91-3.13-.43l-14.4,4.6c-1.49.48-2.52,1.45-2.29,2.16l.04.11s.01.02.02.02c0,.03.03.06.06.08.04.05.08.1.13.14.08.07.17.12.29.17.05.02.11.04.17.06.13.04.26.07.41.09-.03-.01-.06-.02-.09-.04-.32-.17-.54-.42-.64-.72,0-.01-.01-.03,0-.04h-.01c-.06-.26.09-.51.34-.59.27-.08.55.07.63.33.01.04.06.09.15.14.34.01.8-.05,1.33-.22l1.84-.59-.04-.92,3.33-1.13.15.96,3.9-1.24-.35-.8,3.26-1.06.49.77,1.82-.58c.53-.17.92-.38,1.19-.58,0-.01.01-.01.01-.02.04-.09.06-.16.04-.21-.08-.26.06-.54.33-.63.25-.08.52.05.62.3,0,.01.01.02.01.03.09.3.06.64-.11.97-.02.04-.04.07-.07.11ZM29.89,17.42c-.06-.2-.25-.33-.45-.34h0c-.06,0-.11,0-.17.02l.03.05.27.42-.48.15-.4.13-1.74.56-.43.14-.48.15-.19-.42c-.12.12-.17.31-.11.49.01.04.03.08.06.11l.28-.09.45-.14.45-.15,1.26-.4.48-.15h0s.05-.02.05-.02l.37-.12.48-.15.3-.09h0c0-.06,0-.1-.02-.15ZM22.19,19.98c-.05-.16-.17-.27-.32-.32h0c-.1-.04-.2-.04-.31-.01l-3.12.99s-.05.02-.07.03c-.22.11-.33.36-.25.6,0,.02,0,.03.02.04l.26-.08,1.66-.52,1.88-.61.26-.08s0-.03-.01-.04ZM29.89,17.42c-.06-.2-.25-.33-.45-.34h0c-.06,0-.11,0-.17.02l.03.05.27.42-.48.15-.4.13-1.74.56-.43.14-.48.15-.19-.42c-.12.12-.17.31-.11.49.01.04.03.08.06.11l.28-.09.45-.14.45-.15,1.26-.4.48-.15h0s.05-.02.05-.02l.37-.12.48-.15.3-.09h0c0-.06,0-.1-.02-.15ZM22.19,19.98c-.05-.16-.17-.27-.32-.32h0c-.1-.04-.2-.04-.31-.01l-3.12.99s-.05.02-.07.03c-.22.11-.33.36-.25.6,0,.02,0,.03.02.04l.26-.08,1.66-.52,1.88-.61.26-.08s0-.03-.01-.04ZM29.89,17.42c-.06-.2-.25-.33-.45-.34h0c-.06,0-.11,0-.17.02l.03.05.27.42-.48.15-.4.13-1.74.56-.43.14-.48.15-.19-.42c-.12.12-.17.31-.11.49.01.04.03.08.06.11l.28-.09.45-.14.45-.15,1.26-.4.48-.15h0s.05-.02.05-.02l.37-.12.48-.15.3-.09h0c0-.06,0-.1-.02-.15ZM22.19,19.98c-.05-.16-.17-.27-.32-.32h0c-.1-.04-.2-.04-.31-.01l-3.12.99s-.05.02-.07.03c-.22.11-.33.36-.25.6,0,.02,0,.03.02.04l.26-.08,1.66-.52,1.88-.61.26-.08s0-.03-.01-.04ZM29.89,17.42c-.06-.2-.25-.33-.45-.34h0c-.06,0-.11,0-.17.02l.03.05.27.42-.48.15-.4.13-1.74.56-.43.14-.48.15-.19-.42c-.12.12-.17.31-.11.49.01.04.03.08.06.11l.28-.09.45-.14.45-.15,1.26-.4.48-.15h0s.05-.02.05-.02l.37-.12.48-.15.3-.09h0c0-.06,0-.1-.02-.15ZM22.19,19.98c-.05-.16-.17-.27-.32-.32h0c-.1-.04-.2-.04-.31-.01l-3.12.99s-.05.02-.07.03c-.22.11-.33.36-.25.6,0,.02,0,.03.02.04l.26-.08,1.66-.52,1.88-.61.26-.08s0-.03-.01-.04ZM29.89,17.42c-.06-.2-.25-.33-.45-.34h0c-.06,0-.11,0-.17.02l.03.05.27.42-.48.15-.4.13-1.74.56-.43.14-.48.15.04.09.45-.14.45-.15,1.26-.4.48-.15h0s.05-.02.05-.02l.37-.12.48-.15.3-.09h0c0-.06,0-.1-.02-.15ZM21.87,19.66h0c-.1-.04-.2-.04-.31-.01l-3.12.99s-.05.02-.07.03c-.22.11-.33.36-.25.6,0,.02,0,.03.02.04l.26-.08,1.66-.52,1.88-.61-.07-.44ZM29.89,17.42c-.06-.2-.25-.33-.45-.34h0c-.06,0-.11,0-.17.02l.03.05.27.42-.48.15-.4.13-1.74.56-.43.14-.48.15.04.09.45-.14.45-.15,1.26-.4.48-.15h0s.05-.02.05-.02l.37-.12.48-.15.3-.09h0c0-.06,0-.1-.02-.15ZM21.87,19.66h0c-.1-.04-.2-.04-.31-.01l-3.12.99s-.05.02-.07.03c-.22.11-.33.36-.25.6,0,.02,0,.03.02.04l.26-.08,1.66-.52,1.88-.61-.07-.44ZM29.89,17.42c-.06-.2-.25-.33-.45-.34h0c-.06,0-.11,0-.17.02l.03.05.27.42-.48.15-.4.13-1.74.56-.43.14-.48.15.04.09.45-.14.45-.15,1.26-.4.48-.15h0s.05-.02.05-.02l.37-.12.48-.15.3-.09h0c0-.06,0-.1-.02-.15ZM21.87,19.66h0c-.1-.04-.2-.04-.31-.01l-3.12.99s-.05.02-.07.03c-.22.11-.33.36-.25.6,0,.02,0,.03.02.04l.26-.08,1.66-.52,1.88-.61-.07-.44ZM29.89,17.42c-.06-.2-.25-.33-.45-.34h0c-.06,0-.11,0-.17.02l.03.05.27.42-.48.15-.4.13-1.74.56-.43.14-.48.15.04.09.45-.14.45-.15,1.26-.4.48-.15h0s.05-.02.05-.02l.37-.12.48-.15.3-.09h0c0-.06,0-.1-.02-.15ZM21.87,19.66h0c-.1-.04-.2-.04-.31-.01l-3.12.99s-.05.02-.07.03c-.22.11-.33.36-.25.6,0,.02,0,.03.02.04l.26-.08,1.66-.52,1.88-.61-.07-.44ZM29.89,17.42c-.06-.2-.25-.33-.45-.34h0c-.06,0-.11,0-.17.02l.03.05.27.42-.48.15-.4.13-1.74.56-.43.14-.48.15.04.09.45-.14.45-.15,1.26-.4.48-.15h0s.05-.02.05-.02l.37-.12.48-.15.3-.09h0c0-.06,0-.1-.02-.15ZM21.87,19.66h0c-.1-.04-.2-.04-.31-.01l-3.12.99s-.05.02-.07.03c-.22.11-.33.36-.25.6,0,.02,0,.03.02.04l.26-.08,1.66-.52,1.88-.61-.07-.44ZM29.89,17.42c-.06-.2-.25-.33-.45-.34h0c-.06,0-.11,0-.17.02l.03.05.27.42-.48.15s.02.06.05.09l.48-.16h0s.3-.08.3-.08h0c0-.06,0-.1-.02-.15ZM26.03,18.7l-.19-.42c-.12.12-.17.31-.11.49.01.04.03.08.06.11l.28-.09-.04-.09ZM21.87,19.66h0c-.1-.04-.2-.04-.31-.01l-3.12.99s-.05.02-.07.03c-.22.11-.33.36-.25.6,0,.02,0,.03.02.04l.26-.08,1.66-.52,1.88-.61-.07-.44ZM29.89,17.42c-.06-.2-.25-.33-.45-.34h0c-.06,0-.11,0-.17.02l.03.05.27.42-.48.15-.4.13-1.74.56.03.09,1.26-.4.48-.15h0s.05-.02.05-.02l.37-.12.48-.16h0s.3-.08.3-.08h0c0-.06,0-.1-.02-.15ZM26.03,18.7l-.19-.42c-.12.12-.17.31-.11.49.01.04.03.08.06.11l.28-.09-.04-.09ZM21.87,19.66h0c-.1-.04-.2-.04-.31-.01l-3.12.99s-.05.02-.07.03c-.22.11-.33.36-.25.6,0,.02,0,.03.02.04l.26-.08,1.66-.52,1.88-.61-.07-.44ZM29.89,17.42c-.06-.2-.25-.33-.45-.34h0c-.06,0-.11,0-.17.02l.03.05.27.42-.48.15-.4.13-1.74.56.03.09,1.26-.4.48-.15h0s.05-.02.05-.02l.37-.12.48-.16h0s.3-.08.3-.08h0c0-.06,0-.1-.02-.15ZM26.03,18.7l-.19-.42c-.12.12-.17.31-.11.49.01.04.03.08.06.11l.28-.09-.04-.09ZM21.87,19.66h0c-.1-.04-.2-.04-.31-.01l-3.12.99s-.05.02-.07.03c-.22.11-.33.36-.25.6,0,.02,0,.03.02.04l.26-.08,1.66-.52,1.88-.61-.07-.44ZM29.89,17.42c-.06-.2-.25-.33-.45-.34h0c-.06,0-.11,0-.17.02l.03.05.27.42-.48.15-.4.13-1.74.56-.43.14-.48.15-.19-.42c-.12.12-.17.31-.11.49.01.04.03.08.06.11l.28-.09.45-.14.45-.15,1.26-.4.48-.15.05-.02.37-.12.48-.15.3-.09h0c0-.06,0-.1-.02-.15ZM21.87,19.66h0c-.1-.04-.2-.04-.31-.01l-3.12.99s-.05.02-.07.03c-.22.11-.33.36-.25.6,0,.02,0,.03.02.04l.26-.08,1.66-.52,1.88-.61-.07-.44ZM21.87,19.66h0c-.1-.04-.2-.04-.31-.01l-3.12.99s-.05.02-.07.03c-.22.11-.33.36-.25.6,0,.02,0,.03.02.04l.26-.08,1.66-.52,1.88-.61-.07-.44ZM21.87,19.66h0c-.1-.04-.2-.04-.31-.01l-3.12.99s-.05.02-.07.03c-.22.11-.33.36-.25.6,0,.02,0,.03.02.04l.26-.08,1.66-.52,1.88-.61-.07-.44Z"/><path class="cls-3" d="M22.07,20.5l.16.5.91-.28v-.56l-1.07.34ZM22.2,20.02s0-.03-.01-.04c-.05-.16-.17-.27-.32-.32h0c-.1-.04-.2-.04-.31-.01l-3.12.99s-.05.02-.07.03c-.22.11-.33.36-.25.6,0,.02,0,.03.02.04.07.17.21.28.38.3v.02h.05s.01-.01.02-.01c.06,0,.11-.01.16-.02l3.11-1c.06-.02.12-.05.17-.09h.04s-.01-.03-.01-.03c.12-.11.18-.29.14-.46ZM17.46,21.96l.4.42.82-.26-.16-.49-.97.31s-.06.02-.09.02ZM26.19,19.17h0s-1.08.36-1.08.36l.02.02.41.4.83-.26-.17-.52ZM29.91,17.56s0-.09-.02-.14c-.06-.2-.25-.33-.45-.34h0c-.06,0-.11,0-.17.02l-.75.24-1.74.57-.72.23c-.06.02-.11.04-.15.08h-.02l-.05.02v.04c-.11.12-.16.31-.1.49.01.04.03.08.06.11.07.14.22.23.38.23l.02.06c.05-.01.09-.04.13-.07.01,0,.02-.01.03-.01l.73-.23h0s1.74-.57,1.74-.57l.7-.22h.04c.05,0,.1-.01.15-.02h.02s-.02-.07-.02-.07c.13-.09.2-.25.2-.41h0ZM30.85,17.84v-.16s-.11.04-.17.06l-.95.3.17.52.9-.28h0s.05-.03.05-.03v-.09l.17-.06-.17-.26ZM34.4,14.69c-.23-.7-.9-1.18-1.86-1.31-.73-.1-1.6,0-2.46.27l-14.4,4.6c-1.3.42-2.33,1.17-2.76,1.99-.28.56-.24,1.03-.14,1.35,0,.01,0,.02.01.03v.04s.21.46.21.46l.16.1s.09.11.15.15c.15.13.32.24.57.34.06.02.14.05.23.08.02.01.03.01.05.02.16.05.33.08.51.11l.24-.9s-.07-.03-.1-.04h0s-.06-.02-.09-.04c-.32-.17-.54-.42-.64-.72,0-.01-.01-.03,0-.04h-.01c-.06-.26.09-.51.34-.59.27-.08.55.07.63.33.01.04.06.09.15.14.34.01.8-.05,1.33-.22l1.84-.59-.04-.92,3.33-1.13.15.96,3.9-1.24-.35-.8,3.26-1.06.49.77,1.82-.58c.53-.17.92-.38,1.19-.58,0-.01.01-.01.01-.02.04-.09.06-.16.04-.21-.08-.26.06-.54.33-.63.25-.08.52.05.62.3,0,.01.01.02.01.03.09.3.06.64-.11.97-.02.04-.04.07-.07.11-.02.03-.03.05-.05.08l.68.62c.16-.14.3-.29.42-.44.45-.58.6-1.2.42-1.79Z"/><path class="cls-3" d="M41.38,39.64l-.02-.06-.17-.53-.17-.53-.76.73-.99.96c-5.3.44-9.72,1.68-9.78,3.67v.99l.29-.09.21-.07.29-.09.51-.16c-.15-.14-.25-.28-.28-.41-.01-.05-.02-.09-.02-.13,0-.14.06-.28.19-.42.64-.75,2.9-1.57,6.43-2.05.01-.01.02-.01.03-.01.31-.04.64-.08.98-.12.26-.03.53-.06.8-.08.26-.03.52-.05.79-.07.26-.02.52-.03.79-.05.24-.17.43-.35.58-.53.15-.17.25-.34.29-.51.05-.15.05-.3,0-.44ZM26.07,18.79l-.28.09c.07.14.22.23.38.23l-.1-.32ZM22.2,20.02l-.26.08-1.88.61-1.66.52-.26.08c.07.17.21.28.38.3v.02h.05s.01-.01.02-.01c.06,0,.11-.01.16-.02l3.11-1c.06-.02.12-.05.17-.09h.04s-.01-.03-.01-.03c.12-.11.18-.29.14-.46ZM26.07,18.79l-.28.09c.07.14.22.23.38.23l-.1-.32ZM18.59,21.62c.06,0,.11-.01.16-.02l3.11-1c.06-.02.12-.05.17-.09l-3.44,1.11ZM22.06,20.48s-.02.02-.03.03h.04s-.01-.03-.01-.03ZM21.94,20.1l.12.38c.12-.11.18-.29.14-.46l-.26.08ZM26.07,18.79l-.28.09c.07.14.22.23.38.23l-.1-.32ZM18.59,21.62c.06,0,.11-.01.16-.02l3.11-1c.06-.02.12-.05.17-.09l-3.44,1.11ZM22.06,20.48s-.02.02-.03.03h.04s-.01-.03-.01-.03ZM21.94,20.1l.12.38c.12-.11.18-.29.14-.46l-.26.08ZM26.07,18.79l-.28.09c.07.14.22.23.38.23l-.1-.32ZM29.61,17.66l.1.32c.13-.09.2-.25.2-.41l-.3.09ZM18.59,21.62c.06,0,.11-.01.16-.02l3.11-1c.06-.02.12-.05.17-.09l-3.44,1.11ZM22.06,20.48s-.02.02-.03.03h.04s-.01-.03-.01-.03ZM21.94,20.1l.12.38c.12-.11.18-.29.14-.46l-.26.08ZM26.07,18.79l-.28.09c.07.14.22.23.38.23l-.1-.32ZM29.61,17.66l.1.32c.13-.09.2-.25.2-.41l-.3.09ZM18.59,21.62c.06,0,.11-.01.16-.02l3.11-1c.06-.02.12-.05.17-.09l-3.44,1.11ZM22.06,20.48s-.02.02-.03.03h.04s-.01-.03-.01-.03ZM21.94,20.1l.12.38c.12-.11.18-.29.14-.46l-.26.08ZM26.07,18.79l-.28.09c.07.14.22.23.38.23l-.1-.32ZM29.61,17.66l.1.32c.13-.09.2-.25.2-.41l-.3.09ZM18.59,21.62c.06,0,.11-.01.16-.02l3.11-1c.06-.02.12-.05.17-.09l-3.44,1.11ZM22.06,20.48s-.02.02-.03.03h.04s-.01-.03-.01-.03ZM21.94,20.1l.12.38c.12-.11.18-.29.14-.46l-.26.08ZM26.07,18.79l-.28.09c.07.14.22.23.38.23l-.1-.32ZM29.61,17.66l.1.32c.13-.09.2-.25.2-.41l-.3.09ZM18.59,21.62c.06,0,.11-.01.16-.02l3.11-1c.06-.02.12-.05.17-.09l-3.44,1.11ZM22.06,20.48s-.02.02-.03.03h.04s-.01-.03-.01-.03ZM21.94,20.1l.12.38c.12-.11.18-.29.14-.46l-.26.08ZM26.07,18.79l-.28.09c.07.14.22.23.38.23l-.1-.32ZM29.61,17.66l.1.32c.13-.09.2-.25.2-.41l-.3.09ZM18.59,21.62c.06,0,.11-.01.16-.02l3.11-1c.06-.02.12-.05.17-.09l-3.44,1.11ZM22.06,20.48s-.02.02-.03.03h.04s-.01-.03-.01-.03ZM21.94,20.1l.12.38c.12-.11.18-.29.14-.46l-.26.08ZM26.07,18.79l-.28.09c.07.14.22.23.38.23l-.1-.32ZM18.59,21.62c.06,0,.11-.01.16-.02l3.11-1c.06-.02.12-.05.17-.09l-3.44,1.11ZM22.06,20.48s-.02.02-.03.03h.04s-.01-.03-.01-.03ZM21.94,20.1l.12.38c.12-.11.18-.29.14-.46l-.26.08ZM26.07,18.79l-.28.09c.07.14.22.23.38.23l-.1-.32ZM18.59,21.62c.06,0,.11-.01.16-.02l3.11-1c.06-.02.12-.05.17-.09l-3.44,1.11ZM22.06,20.48s-.02.02-.03.03h.04s-.01-.03-.01-.03ZM21.94,20.1l.12.38c.12-.11.18-.29.14-.46l-.26.08ZM26.07,18.79l-.28.09c.07.14.22.23.38.23l-.1-.32ZM18.59,21.62c.06,0,.11-.01.16-.02l3.11-1c.06-.02.12-.05.17-.09l-3.44,1.11ZM22.06,20.48s-.02.02-.03.03h.04s-.01-.03-.01-.03ZM21.94,20.1l.12.38c.12-.11.18-.29.14-.46l-.26.08ZM26.07,18.79l-.28.09c.07.14.22.23.38.23l-.1-.32ZM18.59,21.62c.06,0,.11-.01.16-.02l3.11-1c.06-.02.12-.05.17-.09l-3.44,1.11ZM22.06,20.48s-.02.02-.03.03h.04s-.01-.03-.01-.03ZM21.94,20.1l.12.38c.12-.11.18-.29.14-.46l-.26.08ZM26.07,18.79l-.28.09c.07.14.22.23.38.23l-.1-.32ZM18.59,21.62c.06,0,.11-.01.16-.02l3.11-1c.06-.02.12-.05.17-.09l-3.44,1.11ZM22.06,20.48s-.02.02-.03.03h.04s-.01-.03-.01-.03ZM21.94,20.1l.12.38c.12-.11.18-.29.14-.46l-.26.08ZM26.07,18.79l-.28.09c.07.14.22.23.38.23l-.1-.32ZM18.59,21.62c.06,0,.11-.01.16-.02l3.11-1c.06-.02.12-.05.17-.09l-3.44,1.11ZM18.59,21.62c.06,0,.11-.01.16-.02l3.11-1c.06-.02.12-.05.17-.09l-3.44,1.11ZM18.59,21.62c.06,0,.11-.01.16-.02l3.11-1c.06-.02.12-.05.17-.09l-3.44,1.11ZM18.59,21.62c.06,0,.11-.01.16-.02l3.11-1c.06-.02.12-.05.17-.09l-3.44,1.11ZM22.2,20.02l-.26.08-1.88.61-1.66.52-.26.08c.07.17.21.28.38.3v.02h.05s.01-.01.02-.01c.06,0,.11-.01.16-.02l3.11-1c.06-.02.12-.05.17-.09h.04s-.01-.03-.01-.03c.12-.11.18-.29.14-.46ZM26.07,18.79l-.28.09c.07.14.22.23.38.23l-.1-.32ZM29.61,17.66l.1.32c.13-.09.2-.25.2-.41l-.3.09ZM37.16,26.43l-.17-.53-3.01-9.42-.48-1.5c.12.38-.11.83-.57,1.24-.02.03-.03.05-.05.08-.38.55-1.13,1.07-2.03,1.38-.05.02-.11.04-.17.06l-.95.3.17.52,2.04,6.41-3.54,1.13-2.04-6.41-.17-.52h0s-1.08.36-1.08.36l-1.96.63-1.07.34.16.5h0s2.04,6.42,2.04,6.42l-3.54,1.13-2.05-6.42h0s-.16-.5-.16-.5l-.97.31s-.06.02-.09.02c-.52.16-1.03.24-1.5.24-.39,0-.75-.06-1.05-.18-.04,0-.07-.03-.1-.04h0c-.15-.02-.28-.05-.41-.09-.06-.02-.12-.04-.17-.06-.12-.05-.21-.1-.29-.17-.06-.04-.1-.09-.13-.14-.03-.02-.05-.05-.06-.08-.03-.04-.05-.08-.06-.13l.04.11.44,1.39,6.12,19.2.17.53.17.52.75-.73,15.2-14.64.76-.74-.17-.52ZM29.91,17.57l-.3.09.1.32c.13-.09.2-.25.2-.41ZM26.17,19.11l-.1-.32-.28.09c.07.14.22.23.38.23ZM18.59,21.62c.06,0,.11-.01.16-.02l3.11-1c.06-.02.12-.05.17-.09h.04s-.01-.03-.01-.03c.12-.11.18-.29.14-.46l-.26.08-1.88.61-1.66.52-.26.08c.07.17.21.28.38.3v.02h.05s.01-.01.02-.01ZM29.61,17.66l.1.32c.13-.09.2-.25.2-.41l-.3.09ZM26.07,18.79l-.28.09c.07.14.22.23.38.23l-.1-.32ZM22.2,20.02l-.26.08-1.88.61-1.66.52-.26.08c.07.17.21.28.38.3v.02h.05s.01-.01.02-.01c.06,0,.11-.01.16-.02l3.11-1c.06-.02.12-.05.17-.09h.04s-.01-.03-.01-.03c.12-.11.18-.29.14-.46ZM18.59,21.62c.06,0,.11-.01.16-.02l3.11-1c.06-.02.12-.05.17-.09l-3.44,1.11ZM18.59,21.62c.06,0,.11-.01.16-.02l3.11-1c.06-.02.12-.05.17-.09l-3.44,1.11ZM18.59,21.62c.06,0,.11-.01.16-.02l3.11-1c.06-.02.12-.05.17-.09l-3.44,1.11ZM18.59,21.62c.06,0,.11-.01.16-.02l3.11-1c.06-.02.12-.05.17-.09l-3.44,1.11ZM26.07,18.79l-.28.09c.07.14.22.23.38.23l-.1-.32ZM21.94,20.1l.12.38c.12-.11.18-.29.14-.46l-.26.08ZM22.06,20.48s-.02.02-.03.03h.04s-.01-.03-.01-.03ZM18.59,21.62c.06,0,.11-.01.16-.02l3.11-1c.06-.02.12-.05.17-.09l-3.44,1.11ZM26.07,18.79l-.28.09c.07.14.22.23.38.23l-.1-.32ZM21.94,20.1l.12.38c.12-.11.18-.29.14-.46l-.26.08ZM22.06,20.48s-.02.02-.03.03h.04s-.01-.03-.01-.03ZM18.59,21.62c.06,0,.11-.01.16-.02l3.11-1c.06-.02.12-.05.17-.09l-3.44,1.11ZM26.07,18.79l-.28.09c.07.14.22.23.38.23l-.1-.32ZM21.94,20.1l.12.38c.12-.11.18-.29.14-.46l-.26.08ZM22.06,20.48s-.02.02-.03.03h.04s-.01-.03-.01-.03ZM18.59,21.62c.06,0,.11-.01.16-.02l3.11-1c.06-.02.12-.05.17-.09l-3.44,1.11ZM26.07,18.79l-.28.09c.07.14.22.23.38.23l-.1-.32ZM21.94,20.1l.12.38c.12-.11.18-.29.14-.46l-.26.08ZM22.06,20.48s-.02.02-.03.03h.04s-.01-.03-.01-.03ZM18.59,21.62c.06,0,.11-.01.16-.02l3.11-1c.06-.02.12-.05.17-.09l-3.44,1.11ZM26.07,18.79l-.28.09c.07.14.22.23.38.23l-.1-.32ZM21.94,20.1l.12.38c.12-.11.18-.29.14-.46l-.26.08ZM22.06,20.48s-.02.02-.03.03h.04s-.01-.03-.01-.03ZM18.59,21.62c.06,0,.11-.01.16-.02l3.11-1c.06-.02.12-.05.17-.09l-3.44,1.11ZM26.07,18.79l-.28.09c.07.14.22.23.38.23l-.1-.32ZM21.94,20.1l.12.38c.12-.11.18-.29.14-.46l-.26.08ZM22.06,20.48s-.02.02-.03.03h.04s-.01-.03-.01-.03ZM18.59,21.62c.06,0,.11-.01.16-.02l3.11-1c.06-.02.12-.05.17-.09l-3.44,1.11ZM29.61,17.66l.1.32c.13-.09.2-.25.2-.41l-.3.09ZM26.07,18.79l-.28.09c.07.14.22.23.38.23l-.1-.32ZM21.94,20.1l.12.38c.12-.11.18-.29.14-.46l-.26.08ZM22.06,20.48s-.02.02-.03.03h.04s-.01-.03-.01-.03ZM18.59,21.62c.06,0,.11-.01.16-.02l3.11-1c.06-.02.12-.05.17-.09l-3.44,1.11ZM29.61,17.66l.1.32c.13-.09.2-.25.2-.41l-.3.09ZM26.07,18.79l-.28.09c.07.14.22.23.38.23l-.1-.32ZM21.94,20.1l.12.38c.12-.11.18-.29.14-.46l-.26.08ZM22.06,20.48s-.02.02-.03.03h.04s-.01-.03-.01-.03ZM18.59,21.62c.06,0,.11-.01.16-.02l3.11-1c.06-.02.12-.05.17-.09l-3.44,1.11ZM29.61,17.66l.1.32c.13-.09.2-.25.2-.41l-.3.09ZM26.07,18.79l-.28.09c.07.14.22.23.38.23l-.1-.32ZM21.94,20.1l.12.38c.12-.11.18-.29.14-.46l-.26.08ZM22.06,20.48s-.02.02-.03.03h.04s-.01-.03-.01-.03ZM18.59,21.62c.06,0,.11-.01.16-.02l3.11-1c.06-.02.12-.05.17-.09l-3.44,1.11ZM29.61,17.66l.1.32c.13-.09.2-.25.2-.41l-.3.09ZM26.07,18.79l-.28.09c.07.14.22.23.38.23l-.1-.32ZM21.94,20.1l.12.38c.12-.11.18-.29.14-.46l-.26.08ZM22.06,20.48s-.02.02-.03.03h.04s-.01-.03-.01-.03ZM18.59,21.62c.06,0,.11-.01.16-.02l3.11-1c.06-.02.12-.05.17-.09l-3.44,1.11ZM29.61,17.66l.1.32c.13-.09.2-.25.2-.41l-.3.09ZM26.07,18.79l-.28.09c.07.14.22.23.38.23l-.1-.32ZM21.94,20.1l.12.38c.12-.11.18-.29.14-.46l-.26.08ZM22.06,20.48s-.02.02-.03.03h.04s-.01-.03-.01-.03ZM18.59,21.62c.06,0,.11-.01.16-.02l3.11-1c.06-.02.12-.05.17-.09l-3.44,1.11ZM26.07,18.79l-.28.09c.07.14.22.23.38.23l-.1-.32ZM21.94,20.1l.12.38c.12-.11.18-.29.14-.46l-.26.08ZM22.06,20.48s-.02.02-.03.03h.04s-.01-.03-.01-.03ZM18.59,21.62c.06,0,.11-.01.16-.02l3.11-1c.06-.02.12-.05.17-.09l-3.44,1.11ZM26.07,18.79l-.28.09c.07.14.22.23.38.23l-.1-.32ZM22.2,20.02l-.26.08-1.88.61-1.66.53.12.37v.02h.05s.01-.01.02-.01c.06,0,.11-.01.16-.02l3.11-1c.06-.02.12-.05.17-.09h.04s-.01-.03-.01-.03c.12-.11.18-.29.14-.46ZM26.07,18.79l-.28.09c.07.14.22.23.38.23l-.1-.32Z"/><path class="cls-3" d="M29.49,43.88v.04h.5c0-.07,0-.14.03-.21l-.53.17ZM29.49,43.88v.04h.5c0-.07,0-.14.03-.21l-.53.17ZM29.49,43.88v.04h.5c0-.07,0-.14.03-.21l-.53.17ZM29.49,43.88v.04h.5c0-.07,0-.14.03-.21l-.53.17ZM29.49,43.88v.04h.5c0-.07,0-.14.03-.21l-.53.17ZM29.49,43.88v.04h.5c0-.07,0-.14.03-.21l-.53.17ZM29.49,43.88v.04h.5c0-.07,0-.14.03-.21l-.53.17ZM29.49,43.88v.04h.5c0-.07,0-.14.03-.21l-.53.17ZM29.49,43.88v.04h.5c0-.07,0-.14.03-.21l-.53.17ZM29.49,43.88v.04h.5c0-.07,0-.14.03-.21l-.53.17ZM29.49,43.88v.04h.5c0-.07,0-.14.03-.21l-.53.17ZM42.28,39.35l-.16-.5-.17-.53-.17-.53-.76.73-.76.73.17.53.02.07s-.04.07-.09.13l-.02.02s-.08.09-.13.14c-.13.13-.33.27-.58.42h0c-.1.05-.2.1-.32.15-.02,0-.03,0-.04.01-.15.07-.28.13-.47.19l-.37.12-1.28.41c.31-.04.64-.08.98-.12.26-.03.53-.06.8-.08.26-.03.52-.05.79-.07.26-.02.52-.03.79-.05.46-.03.92-.05,1.41-.06.14-.18.23-.35.29-.51.08-.18.12-.35.14-.5.04-.29-.01-.54-.06-.7ZM29.49,43.88v.04h.5c0-.07,0-.14.03-.21l-.53.17ZM29.49,43.88v.04h.5c0-.07,0-.14.03-.21l-.53.17ZM29.49,43.88v.04h.5c0-.07,0-.14.03-.21l-.53.17ZM29.49,43.88v.04h.5c0-.07,0-.14.03-.21l-.53.17ZM29.49,43.88v.04h.5c0-.07,0-.14.03-.21l-.53.17ZM29.49,43.88v.04h.5c0-.07,0-.14.03-.21l-.53.17ZM29.49,43.88v.04h.5c0-.07,0-.14.03-.21l-.53.17ZM29.49,43.88v.04h.5c0-.07,0-.14.03-.21l-.53.17ZM29.49,43.88v.04h.5c0-.07,0-.14.03-.21l-.53.17ZM29.49,43.88v.04h.5c0-.07,0-.14.03-.21l-.53.17ZM29.49,43.88v.04h.5c0-.07,0-.14.03-.21l-.53.17ZM31.52,44.95c-.1-.06-.2-.11-.29-.17-.09-.05-.17-.1-.24-.16-.08-.05-.14-.11-.2-.16-.15-.14-.25-.28-.28-.41-.01-.05-.02-.09-.02-.13,0-.14.06-.28.19-.42l-.66.21-.53.17v1.99l.5-.16.5-.16.09-.03.62-.2.66-.21c-.12-.06-.24-.11-.34-.16ZM39.67,31.19l-.08.08.16.16-.08-.24ZM22.2,20.02s0-.03-.01-.04c-.05-.16-.17-.27-.32-.32l.07.44-1.88.61-1.66.53.12.37v.02h.05s.01-.01.02-.01c.06,0,.11-.01.16-.02l3.11-1c.06-.02.12-.05.17-.09h.04s-.01-.03-.01-.03c.12-.11.18-.29.14-.46ZM18.59,21.62c.06,0,.11-.01.16-.02l3.11-1c.06-.02.12-.05.17-.09l-3.44,1.11ZM22.06,20.48s-.02.02-.03.03h.04s-.01-.03-.01-.03ZM22.19,19.98c-.05-.16-.17-.27-.32-.32l.07.44.12.38c.12-.11.18-.29.14-.46,0,0,0-.03-.01-.04ZM18.59,21.62c.06,0,.11-.01.16-.02l3.11-1c.06-.02.12-.05.17-.09l-3.44,1.11ZM22.06,20.48s-.02.02-.03.03h.04s-.01-.03-.01-.03ZM22.19,19.98c-.05-.16-.17-.27-.32-.32l.07.44.12.38c.12-.11.18-.29.14-.46,0,0,0-.03-.01-.04ZM18.59,21.62c.06,0,.11-.01.16-.02l3.11-1c.06-.02.12-.05.17-.09l-3.44,1.11ZM22.06,20.48s-.02.02-.03.03h.04s-.01-.03-.01-.03ZM22.19,19.98c-.05-.16-.17-.27-.32-.32l.07.44.12.38c.12-.11.18-.29.14-.46,0,0,0-.03-.01-.04ZM18.59,21.62c.06,0,.11-.01.16-.02l3.11-1c.06-.02.12-.05.17-.09l-3.44,1.11ZM22.06,20.48s-.02.02-.03.03h.04s-.01-.03-.01-.03ZM22.19,19.98c-.05-.16-.17-.27-.32-.32l.07.44.12.38c.12-.11.18-.29.14-.46,0,0,0-.03-.01-.04ZM18.59,21.62c.06,0,.11-.01.16-.02l3.11-1c.06-.02.12-.05.17-.09l-3.44,1.11ZM22.06,20.48s-.02.02-.03.03h.04s-.01-.03-.01-.03ZM22.19,19.98c-.05-.16-.17-.27-.32-.32l.07.44.12.38c.12-.11.18-.29.14-.46,0,0,0-.03-.01-.04ZM18.59,21.62c.06,0,.11-.01.16-.02l3.11-1c.06-.02.12-.05.17-.09l-3.44,1.11ZM22.06,20.48s-.02.02-.03.03h.04s-.01-.03-.01-.03ZM22.19,19.98c-.05-.16-.17-.27-.32-.32l.07.44.12.38c.12-.11.18-.29.14-.46,0,0,0-.03-.01-.04ZM18.59,21.62c.06,0,.11-.01.16-.02l3.11-1c.06-.02.12-.05.17-.09l-3.44,1.11ZM22.06,20.48s-.02.02-.03.03h.04s-.01-.03-.01-.03ZM22.19,19.98c-.05-.16-.17-.27-.32-.32l.07.44.12.38c.12-.11.18-.29.14-.46,0,0,0-.03-.01-.04ZM18.59,21.62c.06,0,.11-.01.16-.02l3.11-1c.06-.02.12-.05.17-.09l-3.44,1.11ZM22.06,20.48s-.02.02-.03.03h.04s-.01-.03-.01-.03ZM22.19,19.98c-.05-.16-.17-.27-.32-.32l.07.44.12.38c.12-.11.18-.29.14-.46,0,0,0-.03-.01-.04ZM18.59,21.62c.06,0,.11-.01.16-.02l3.11-1c.06-.02.12-.05.17-.09l-3.44,1.11ZM22.06,20.48s-.02.02-.03.03h.04s-.01-.03-.01-.03ZM22.19,19.98c-.05-.16-.17-.27-.32-.32l.07.44.12.38c.12-.11.18-.29.14-.46,0,0,0-.03-.01-.04ZM26.97,18.5l-.45.15-.45.14-.04-.09-.19-.42c-.12.12-.17.31-.11.49.01.04.03.08.06.11.07.14.22.23.38.23l.02.06c.05-.01.09-.04.13-.07.01,0,.02-.01.03-.01l.73-.23h0s-.11-.36-.11-.36ZM29.13,17.81l-.37.12h-.05v.02l.11.34.7-.22c-.16-.02-.32-.11-.39-.26ZM22.19,19.98c-.05-.16-.17-.27-.32-.32l.07.44.12.38c.12-.11.18-.29.14-.46,0,0,0-.03-.01-.04ZM26.97,18.5l-.45.15-.45.14-.04-.09-.19-.42c-.12.12-.17.31-.11.49.01.04.03.08.06.11.07.14.22.23.38.23l.02.06c.05-.01.09-.04.13-.07.01,0,.02-.01.03-.01l.73-.23h0s-.11-.36-.11-.36ZM29.13,17.81l-.37.12h-.05v.02l.11.34.7-.22c-.16-.02-.32-.11-.39-.26ZM22.19,19.98c-.05-.16-.17-.27-.32-.32l.07.44.12.38c.12-.11.18-.29.14-.46,0,0,0-.03-.01-.04ZM26.97,18.5l-.45.15-.45.14-.04-.09-.19-.42c-.12.12-.17.31-.11.49.01.04.03.08.06.11.07.14.22.23.38.23l.02.06c.05-.01.09-.04.13-.07.01,0,.02-.01.03-.01l.73-.23h0s-.11-.36-.11-.36ZM29.13,17.81l-.37.12h-.05v.02l.11.34.7-.22c-.16-.02-.32-.11-.39-.26ZM22.19,19.98c-.05-.16-.17-.27-.32-.32l.07.44.12.38c.12-.11.18-.29.14-.46,0,0,0-.03-.01-.04ZM26.97,18.5l-.45.15-.45.14-.04-.09-.19-.42c-.12.12-.17.31-.11.49.01.04.03.08.06.11.07.14.22.23.38.23l.02.06c.05-.01.09-.04.13-.07.01,0,.02-.01.03-.01l.73-.23h0s-.11-.36-.11-.36ZM29.13,17.81l-.37.12h-.05v.02l.11.34.7-.22c-.16-.02-.32-.11-.39-.26ZM18.59,21.62c.06,0,.11-.01.16-.02l3.11-1c.06-.02.12-.05.17-.09l-3.44,1.11ZM22.06,20.48s-.02.02-.03.03h.04s-.01-.03-.01-.03ZM22.19,19.98c-.05-.16-.17-.27-.32-.32l.07.44.12.38c.12-.11.18-.29.14-.46,0,0,0-.03-.01-.04ZM26.97,18.5l-.45.15-.45.14-.04-.09-.19-.42c-.12.12-.17.31-.11.49.01.04.03.08.06.11.07.14.22.23.38.23l.02.06c.05-.01.09-.04.13-.07.01,0,.02-.01.03-.01l.73-.23h0s-.11-.36-.11-.36ZM29.13,17.81l-.37.12h-.05v.02l.11.34.7-.22c-.16-.02-.32-.11-.39-.26ZM18.59,21.62c.06,0,.11-.01.16-.02l3.11-1c.06-.02.12-.05.17-.09l-3.44,1.11ZM22.06,20.48s-.02.02-.03.03h.04s-.01-.03-.01-.03ZM22.19,19.98c-.05-.16-.17-.27-.32-.32l.07.44.12.38c.12-.11.18-.29.14-.46,0,0,0-.03-.01-.04ZM26.97,18.5l-.45.15-.45.14-.04-.09-.19-.42c-.12.12-.17.31-.11.49.01.04.03.08.06.11.07.14.22.23.38.23l.02.06c.05-.01.09-.04.13-.07.01,0,.02-.01.03-.01l.73-.23h0s-.11-.36-.11-.36ZM29.13,17.81l-.37.12h-.05v.02l.11.34.7-.22c-.16-.02-.32-.11-.39-.26ZM18.59,21.62c.06,0,.11-.01.16-.02l3.11-1c.06-.02.12-.05.17-.09l-3.44,1.11ZM26.97,18.5l-.45.15c.02.16-.04.32-.17.44l.73-.23h0s-.11-.36-.11-.36ZM29.13,17.81l-.37.12h-.05v.02l.11.34.7-.22c-.16-.02-.32-.11-.39-.26ZM18.59,21.62c.06,0,.11-.01.16-.02l3.11-1c.06-.02.12-.05.17-.09l-3.44,1.11ZM26.97,18.5l-.45.15c.02.16-.04.32-.17.44l.73-.23h0s-.11-.36-.11-.36ZM29.13,17.81l-.37.12h-.05v.02l.11.34.7-.22c-.16-.02-.32-.11-.39-.26ZM18.59,21.62c.06,0,.11-.01.16-.02l3.11-1c.06-.02.12-.05.17-.09l-3.44,1.11ZM26.97,18.5l-.45.15c.02.16-.04.32-.17.44l.73-.23h0s-.11-.36-.11-.36ZM29.13,17.81l-.37.12h-.05v.02l.11.34.7-.22c-.16-.02-.32-.11-.39-.26ZM18.59,21.62c.06,0,.11-.01.16-.02l3.11-1c.06-.02.12-.05.17-.09l-3.44,1.11ZM26.97,18.5l-.45.15c.02.16-.04.32-.17.44l.73-.23h0s-.11-.36-.11-.36ZM29.13,17.81l-.37.12h-.05v.02l.11.34.7-.22c-.16-.02-.32-.11-.39-.26ZM22.2,20.02s0-.03-.01-.04c-.05-.16-.17-.27-.32-.32h0c-.1-.04-.2-.04-.31-.01l-3.12.99s-.05.02-.07.03c-.22.11-.33.36-.25.6,0,.02,0,.03.02.04.07.17.21.28.38.3v.02h.05s.01-.01.02-.01c.06,0,.11-.01.16-.02l3.11-1c.06-.02.12-.05.17-.09h.04s-.01-.03-.01-.03c.12-.11.18-.29.14-.46ZM26.97,18.5l-.03-.09-.17-.5-.72.23c-.06.02-.11.04-.15.08h-.02l-.05.02v.04c-.11.12-.16.31-.1.49.01.04.03.08.06.11.07.14.22.23.38.23l.02.06c.05-.01.09-.04.13-.07.01,0,.02-.01.03-.01l.73-.23h0s-.11-.36-.11-.36ZM29.91,17.56s0-.09-.02-.14c-.06-.2-.25-.33-.45-.34h0c-.06,0-.11,0-.17.02l-.75.24.17.51.03.09h0s.11.35.11.35l.7-.22h.04c.05,0,.1-.01.15-.02h.02s-.02-.07-.02-.07c.13-.09.2-.25.2-.41h0ZM37.92,25.7l-.17-.53-3.35-10.48-.9.29-.4.13s.01.02.01.03c.09.3.06.64-.11.97-.02.04-.04.07-.07.11-.02.03-.03.05-.05.08-.38.55-1.13,1.07-2.03,1.38-.05.02-.11.04-.17.06l-.95.3.17.52,2.04,6.41-3.54,1.13-2.04-6.41-.17-.52h0s-1.08.36-1.08.36l-1.96.63-1.07.34.16.5.91-.29,2.32-.74,2.33,7.32,5.34-1.71-2.33-7.3h0s.05-.03.05-.03l.64-.2c.67-.22,1.26-.51,1.73-.85l3.01,9.43.17.54.17.52.76-.74.76-.73-.17-.52ZM29.91,17.57h0c0-.06,0-.1-.02-.15-.06-.2-.25-.33-.45-.34h0c-.06,0-.11,0-.17.02l-.75.24.17.51.03.09h0s.11.35.11.35l.7-.22h.04c.05,0,.1-.01.15-.02h.02s-.02-.07-.02-.07c.13-.09.2-.25.2-.41ZM26.35,19.09l.73-.23h0s-.11-.36-.11-.36l-.03-.09-.17-.5-.72.23c-.06.02-.11.04-.15.08h-.02l-.05.02v.04c-.11.12-.16.31-.1.49.01.04.03.08.06.11.07.14.22.23.38.23l.02.06c.05-.01.09-.04.13-.07.01,0,.02-.01.03-.01ZM22.2,20.02s0-.03-.01-.04c-.05-.16-.17-.27-.32-.32h0c-.1-.04-.2-.04-.31-.01l-3.12.99s-.05.02-.07.03c-.22.11-.33.36-.25.6,0,.02,0,.03.02.04.07.17.21.28.38.3v.02h.05s.01-.01.02-.01c.06,0,.11-.01.16-.02l3.11-1c.06-.02.12-.05.17-.09h.04s-.01-.03-.01-.03c.12-.11.18-.29.14-.46ZM29.91,17.56s0-.09-.02-.14c-.06-.2-.25-.33-.45-.34h0c-.06,0-.11,0-.17.02l-.75.24.17.51.03.09h0s.11.35.11.35l.7-.22h.04c.05,0,.1-.01.15-.02h.02s-.02-.07-.02-.07c.13-.09.2-.25.2-.41h0ZM26.97,18.5l-.03-.09-.17-.5-.72.23c-.06.02-.11.04-.15.08h-.02l-.05.02v.04c-.11.12-.16.31-.1.49.01.04.03.08.06.11.07.14.22.23.38.23l.02.06c.05-.01.09-.04.13-.07.01,0,.02-.01.03-.01l.73-.23h0s-.11-.36-.11-.36ZM22.2,20.02s0-.03-.01-.04c-.05-.16-.17-.27-.32-.32h0c-.1-.04-.2-.04-.31-.01l-3.12.99s-.05.02-.07.03c-.22.11-.33.36-.25.6,0,.02,0,.03.02.04.07.17.21.28.38.3v.02h.05s.01-.01.02-.01c.06,0,.11-.01.16-.02l3.11-1c.06-.02.12-.05.17-.09h.04s-.01-.03-.01-.03c.12-.11.18-.29.14-.46ZM29.13,17.81l-.37.12h-.05v.02l.11.34.7-.22c-.16-.02-.32-.11-.39-.26ZM26.97,18.5l-.45.15c.02.16-.04.32-.17.44l.73-.23h0s-.11-.36-.11-.36ZM18.59,21.62c.06,0,.11-.01.16-.02l3.11-1c.06-.02.12-.05.17-.09l-3.44,1.11ZM29.13,17.81l-.37.12h-.05v.02l.11.34.7-.22c-.16-.02-.32-.11-.39-.26ZM26.97,18.5l-.45.15c.02.16-.04.32-.17.44l.73-.23h0s-.11-.36-.11-.36ZM18.59,21.62c.06,0,.11-.01.16-.02l3.11-1c.06-.02.12-.05.17-.09l-3.44,1.11ZM29.13,17.81l-.37.12h-.05v.02l.11.34.7-.22c-.16-.02-.32-.11-.39-.26ZM26.97,18.5l-.45.15c.02.16-.04.32-.17.44l.73-.23h0s-.11-.36-.11-.36ZM18.59,21.62c.06,0,.11-.01.16-.02l3.11-1c.06-.02.12-.05.17-.09l-3.44,1.11ZM29.13,17.81l-.37.12h-.05v.02l.11.34.7-.22c-.16-.02-.32-.11-.39-.26ZM26.97,18.5l-.45.15c.02.16-.04.32-.17.44l.73-.23h0s-.11-.36-.11-.36ZM18.59,21.62c.06,0,.11-.01.16-.02l3.11-1c.06-.02.12-.05.17-.09l-3.44,1.11ZM29.13,17.81l-.37.12h-.05v.02l.11.34.7-.22c-.16-.02-.32-.11-.39-.26ZM26.97,18.5l-.45.15-.45.14-.04-.09-.19-.42c-.12.12-.17.31-.11.49.01.04.03.08.06.11.07.14.22.23.38.23l.02.06c.05-.01.09-.04.13-.07.01,0,.02-.01.03-.01l.73-.23h0s-.11-.36-.11-.36ZM22.19,19.98c-.05-.16-.17-.27-.32-.32l.07.44.12.38c.12-.11.18-.29.14-.46,0,0,0-.03-.01-.04ZM22.06,20.48s-.02.02-.03.03h.04s-.01-.03-.01-.03ZM18.59,21.62c.06,0,.11-.01.16-.02l3.11-1c.06-.02.12-.05.17-.09l-3.44,1.11ZM29.13,17.81l-.37.12h-.05v.02l.11.34.7-.22c-.16-.02-.32-.11-.39-.26ZM26.97,18.5l-.45.15-.45.14-.04-.09-.19-.42c-.12.12-.17.31-.11.49.01.04.03.08.06.11.07.14.22.23.38.23l.02.06c.05-.01.09-.04.13-.07.01,0,.02-.01.03-.01l.73-.23h0s-.11-.36-.11-.36ZM22.19,19.98c-.05-.16-.17-.27-.32-.32l.07.44.12.38c.12-.11.18-.29.14-.46,0,0,0-.03-.01-.04ZM22.06,20.48s-.02.02-.03.03h.04s-.01-.03-.01-.03ZM18.59,21.62c.06,0,.11-.01.16-.02l3.11-1c.06-.02.12-.05.17-.09l-3.44,1.11ZM29.13,17.81l-.37.12h-.05v.02l.11.34.7-.22c-.16-.02-.32-.11-.39-.26ZM26.97,18.5l-.45.15-.45.14-.04-.09-.19-.42c-.12.12-.17.31-.11.49.01.04.03.08.06.11.07.14.22.23.38.23l.02.06c.05-.01.09-.04.13-.07.01,0,.02-.01.03-.01l.73-.23h0s-.11-.36-.11-.36ZM22.19,19.98c-.05-.16-.17-.27-.32-.32l.07.44.12.38c.12-.11.18-.29.14-.46,0,0,0-.03-.01-.04ZM29.13,17.81l-.37.12h-.05v.02l.11.34.7-.22c-.16-.02-.32-.11-.39-.26ZM26.97,18.5l-.45.15-.45.14-.04-.09-.19-.42c-.12.12-.17.31-.11.49.01.04.03.08.06.11.07.14.22.23.38.23l.02.06c.05-.01.09-.04.13-.07.01,0,.02-.01.03-.01l.73-.23h0s-.11-.36-.11-.36ZM22.19,19.98c-.05-.16-.17-.27-.32-.32l.07.44.12.38c.12-.11.18-.29.14-.46,0,0,0-.03-.01-.04ZM29.13,17.81l-.37.12h-.05v.02l.11.34.7-.22c-.16-.02-.32-.11-.39-.26ZM26.97,18.5l-.45.15-.45.14-.04-.09-.19-.42c-.12.12-.17.31-.11.49.01.04.03.08.06.11.07.14.22.23.38.23l.02.06c.05-.01.09-.04.13-.07.01,0,.02-.01.03-.01l.73-.23h0s-.11-.36-.11-.36ZM22.19,19.98c-.05-.16-.17-.27-.32-.32l.07.44.12.38c.12-.11.18-.29.14-.46,0,0,0-.03-.01-.04ZM29.13,17.81l-.37.12h-.05v.02l.11.34.7-.22c-.16-.02-.32-.11-.39-.26ZM26.97,18.5l-.45.15-.45.14-.04-.09-.19-.42c-.12.12-.17.31-.11.49.01.04.03.08.06.11.07.14.22.23.38.23l.02.06c.05-.01.09-.04.13-.07.01,0,.02-.01.03-.01l.73-.23h0s-.11-.36-.11-.36ZM22.19,19.98c-.05-.16-.17-.27-.32-.32l.07.44.12.38c.12-.11.18-.29.14-.46,0,0,0-.03-.01-.04ZM29.91,17.56s0-.09-.02-.14c-.06-.2-.25-.33-.45-.34h0c-.06,0-.11,0-.17.02l-.75.24.17.51.03.09h0s.11.35.11.35l.7-.22h.04c.05,0,.1-.01.15-.02h.02s-.02-.07-.02-.07c.13-.09.2-.25.2-.41h0ZM26.97,18.5l-.03-.09-.17-.5-.72.23c-.06.02-.11.04-.15.08h-.02l-.05.02v.04c-.11.12-.16.31-.1.49.01.04.03.08.06.11.07.14.22.23.38.23l.02.06c.05-.01.09-.04.13-.07.01,0,.02-.01.03-.01l.73-.23h0s-.11-.36-.11-.36ZM22.19,19.98c-.05-.16-.17-.27-.32-.32l.07.44.12.38c.12-.11.18-.29.14-.46,0,0,0-.03-.01-.04ZM22.06,20.48s-.02.02-.03.03h.04s-.01-.03-.01-.03ZM18.59,21.62c.06,0,.11-.01.16-.02l3.11-1c.06-.02.12-.05.17-.09l-3.44,1.11ZM22.19,19.98c-.05-.16-.17-.27-.32-.32l.07.44.12.38c.12-.11.18-.29.14-.46,0,0,0-.03-.01-.04ZM22.06,20.48s-.02.02-.03.03h.04s-.01-.03-.01-.03ZM18.59,21.62c.06,0,.11-.01.16-.02l3.11-1c.06-.02.12-.05.17-.09l-3.44,1.11ZM22.19,19.98c-.05-.16-.17-.27-.32-.32l.07.44.12.38c.12-.11.18-.29.14-.46,0,0,0-.03-.01-.04ZM22.06,20.48s-.02.02-.03.03h.04s-.01-.03-.01-.03ZM18.59,21.62c.06,0,.11-.01.16-.02l3.11-1c.06-.02.12-.05.17-.09l-3.44,1.11ZM22.19,19.98c-.05-.16-.17-.27-.32-.32l.07.44.12.38c.12-.11.18-.29.14-.46,0,0,0-.03-.01-.04ZM22.06,20.48s-.02.02-.03.03h.04s-.01-.03-.01-.03ZM18.59,21.62c.06,0,.11-.01.16-.02l3.11-1c.06-.02.12-.05.17-.09l-3.44,1.11ZM22.19,19.98c-.05-.16-.17-.27-.32-.32l.07.44.12.38c.12-.11.18-.29.14-.46,0,0,0-.03-.01-.04ZM22.06,20.48s-.02.02-.03.03h.04s-.01-.03-.01-.03ZM18.59,21.62c.06,0,.11-.01.16-.02l3.11-1c.06-.02.12-.05.17-.09l-3.44,1.11ZM22.19,19.98c-.05-.16-.17-.27-.32-.32l.07.44.12.38c.12-.11.18-.29.14-.46,0,0,0-.03-.01-.04ZM22.06,20.48s-.02.02-.03.03h.04s-.01-.03-.01-.03ZM18.59,21.62c.06,0,.11-.01.16-.02l3.11-1c.06-.02.12-.05.17-.09l-3.44,1.11ZM21.21,41.81l-.17-.53-5.85-18.33c.59.03,1.24-.1,1.9-.31l1.59-.51h0s-.16-.5-.16-.5l-.97.31s-.06.02-.09.02c-.52.16-1.03.24-1.5.24-.39,0-.75-.06-1.05-.18-.04,0-.07-.03-.1-.04h0s-.06-.02-.09-.04c-.32-.17-.54-.42-.64-.72,0-.01-.01-.03,0-.04h-.01l-.38.13-.9.28s0,.02.01.03v.04s6.73,21.08,6.73,21.08l.17.53.17.52.76-.73.75-.73-.16-.52ZM22.19,19.98c-.05-.16-.17-.27-.32-.32l.07.44.12.38c.12-.11.18-.29.14-.46,0,0,0-.03-.01-.04ZM22.06,20.48s-.02.02-.03.03h.04s-.01-.03-.01-.03ZM18.59,21.62c.06,0,.11-.01.16-.02l3.11-1c.06-.02.12-.05.17-.09l-3.44,1.11ZM22.19,19.98c-.05-.16-.17-.27-.32-.32l.07.44.12.38c.12-.11.18-.29.14-.46,0,0,0-.03-.01-.04ZM22.06,20.48s-.02.02-.03.03h.04s-.01-.03-.01-.03ZM18.59,21.62c.06,0,.11-.01.16-.02l3.11-1c.06-.02.12-.05.17-.09l-3.44,1.11ZM22.19,19.98c-.05-.16-.17-.27-.32-.32l.07.44.12.38c.12-.11.18-.29.14-.46,0,0,0-.03-.01-.04ZM22.06,20.48s-.02.02-.03.03h.04s-.01-.03-.01-.03ZM18.59,21.62c.06,0,.11-.01.16-.02l3.11-1c.06-.02.12-.05.17-.09l-3.44,1.11ZM22.2,20.02s0-.03-.01-.04c-.05-.16-.17-.27-.32-.32h0c-.1-.04-.2-.04-.31-.01l-3.12.99s-.05.02-.07.03c-.22.11-.33.36-.25.6,0,.02,0,.03.02.04.07.17.21.28.38.3v.02h.05s.01-.01.02-.01c.06,0,.11-.01.16-.02l3.11-1c.06-.02.12-.05.17-.09h.04s-.01-.03-.01-.03c.12-.11.18-.29.14-.46ZM20.06,20.71l-1.66.52-.26.08c.07.17.21.28.38.3l-.12-.37,1.66-.53Z"/><path class="cls-2" d="M22.06,20.48v.02s-.03.01-.03.01l-3.44,1.11h-.07s0-.01,0-.01c-.17-.02-.31-.13-.38-.3-.01-.01-.02-.02-.02-.04-.08-.24.03-.49.25-.6.02-.01.05-.02.07-.03l3.12-.99c.11-.03.21-.03.31,0h0c.15.06.27.17.32.33.01.01.01.03.01.04.04.17-.02.35-.14.46Z"/><path class="cls-2" d="M26.52,18.65c.02.16-.04.32-.17.44-.01,0-.02.01-.03.01-.04.03-.08.06-.13.07l-.02-.06c-.16,0-.31-.09-.38-.23-.03-.03-.05-.07-.06-.11-.06-.18-.01-.37.11-.49v-.04s.04-.02.04-.02h.02c.25-.07.52.08.61.33.01.04.01.07.01.1Z"/><path class="cls-2" d="M29.91,17.57c0,.16-.07.32-.2.41l.02.06h-.02s-.1.03-.15.03h-.04c-.16-.02-.32-.11-.39-.26-.03-.03-.04-.06-.05-.09-.07-.22.02-.45.21-.57.04-.03.08-.05.12-.06h.02s0-.01,0-.01c.2.01.39.14.45.34.02.05.02.09.02.14h0Z"/><path class="cls-2" d="M22.07,20.5h-.04s-.11.08-.17.1l-3.11,1s-.1.02-.16.02h-.07s0-.01,0-.01l-.12-.37,1.66-.53,1.88-.61.12.38v.02Z"/><path class="cls-2" d="M21.94,20.1l-1.88.61-1.66.53h0s-.03-.57-.03-.57c.02-.01.05-.02.07-.03l3.12-.99c.11-.03.21-.03.31,0h0s.07.45.07.45Z"/><polygon class="cls-2" points="29.61 17.65 28.23 18.1 26.07 18.79 26.03 18.7 29.56 17.57 29.61 17.65"/><polygon class="cls-2" points="29.61 17.65 29.61 17.66 28.23 18.1 29.61 17.65"/><path class="cls-3" d="M22.2,20.02c.04.17-.02.35-.14.46,0,.02-.02.02-.03.03-.05.04-.11.07-.17.09l-3.11,1s-.1.02-.16.02h-.02s-.04,0-.05-.01c-.17-.02-.31-.13-.38-.3-.01-.01-.02-.02-.02-.04-.08-.24.03-.49.25-.6.02-.01.05-.02.07-.03l3.12-.99c.11-.03.21-.03.31,0h0c.15.06.27.17.32.33.01.01.01.03.01.04Z"/><path class="cls-3" d="M29.91,17.56h0c0,.17-.07.33-.2.42-.04.03-.09.05-.14.07l-.04.02h-.01l-.7.22-1.74.56h0s-.73.24-.73.24c-.01,0-.02.01-.03.01-.04.01-.08.02-.12.02-.01,0-.02,0-.03-.01-.16,0-.31-.09-.38-.23-.03-.03-.05-.07-.06-.11-.06-.18-.01-.37.11-.49.02-.03.04-.05.06-.06.04-.04.09-.06.15-.08l.72-.23,1.74-.57.75-.24c.06-.02.11-.02.17-.02h0c.2.01.39.14.45.34.02.05.02.09.02.14Z"/><polygon class="cls-2" points="43.51 29.64 45.18 31.37 44.07 32.44 42.4 30.7 40.66 32.38 39.75 31.44 39.75 31.43 39.59 31.27 39.67 31.19 41.33 29.6 39.66 27.86 40.76 26.79 42.44 28.53 44.18 26.85 45.24 27.96 43.51 29.64"/><path class="cls-2" d="M19.4,47.38l-.72.69,4.42,4.59.72-.69-4.42-4.59ZM19.4,47.38l-.72.69,4.42,4.59.72-.69-4.42-4.59ZM19.4,47.38l-.72.69,4.42,4.59.72-.69-4.42-4.59ZM19.4,47.38l-.72.69,4.42,4.59.72-.69-4.42-4.59ZM19.4,47.38l-.72.69,4.42,4.59.72-.69-4.42-4.59ZM19.4,47.38l-.72.69,4.42,4.59.72-.69-4.42-4.59ZM49.97,27.75l-5.41-5.61-1.42-1.47-5.22,5.03-.76.73-.76.74-15.19,14.64-1.52,1.46-5.58,5.38,8.24,8.56,7.14-6.88.5-.48.5-.49v-3.81l.09-.03c.55.37,1.29.69,2.17.97.18.06.36.11.55.16l.42-.4.42-.4c-.2-.05-.39-.1-.57-.15-.68-.19-1.25-.39-1.71-.59-.12-.06-.24-.11-.34-.16-.1-.06-.2-.11-.29-.17-.09-.05-.17-.1-.24-.16-.08-.05-.14-.11-.2-.16-.15-.14-.25-.28-.28-.41-.01-.05-.02-.09-.02-.13,0-.14.06-.28.19-.42.64-.75,2.9-1.57,6.43-2.05.01-.01.02-.01.03-.01.31-.04.64-.08.98-.12.26-.03.53-.06.8-.08l.57-.55.13-.13h0l.42-.41.38-.37.76-.73.76-.73,9.44-9.1-1.42-1.47ZM41.78,37.79l-.76.73-.76.73-.99.96c-5.3.44-9.72,1.68-9.78,3.67v5.76l-7.12,6.86-7.56-7.84,5.05-4.87.76-.73.75-.73,15.2-14.64.76-.74.76-.73,5.03-4.85,1.08,1.12,5.41,5.61,1.07,1.11-8.9,8.58ZM18.68,48.07l4.42,4.59.72-.69-4.42-4.59-.72.69ZM19.4,47.38l-.72.69,4.42,4.59.72-.69-4.42-4.59ZM19.4,47.38l-.72.69,4.42,4.59.72-.69-4.42-4.59ZM19.4,47.38l-.72.69,4.42,4.59.72-.69-4.42-4.59ZM19.4,47.38l-.72.69,4.42,4.59.72-.69-4.42-4.59ZM19.4,47.38l-.72.69,4.42,4.59.72-.69-4.42-4.59ZM19.4,47.38l-.72.69,4.42,4.59.72-.69-4.42-4.59Z"/><path class="cls-3" d="M50.33,27.41l-.7-.73-4.02-4.17-.69-.71-1.77-1.84-5.4,5.21-.76.73-.76.73-15.19,14.65-.76.73-.76.73-6.12,5.9,8.94,9.27,7.15-6.89,1-.96v-1.39l-.5.48-.5.49-7.12,6.86-7.56-7.84,5.05-4.87.76-.73.75-.73,15.2-14.64.76-.74.76-.73,5.03-4.85,1.08,1.12,5.41,5.61,1.07,1.11-8.9,8.58-.76.73-.76.73-.99.96-.58.56-.27.26-.3.29c.26-.03.53-.06.8-.08.26-.03.52-.05.79-.07l.55-.53.55-.53.55-.53.76-.73,9.97-9.61-1.76-1.83ZM34.21,45.87s-.05-.02-.07-.02c-.2-.05-.39-.1-.57-.15l-.41.4-.41.39c.18.06.36.11.55.16h0s.09.03.13.04c0,0,.02,0,.03.01.13.04.26.07.4.11h.01s.42-.42.42-.42l.43-.41c-.18-.04-.35-.08-.51-.11Z"/><path class="cls-3" d="M47.21,19.59l-2.29,2.21-.36.34-.36.35,5.41,5.61.36-.35.36-.34,2.29-2.22-5.41-5.6ZM49.63,26.68l-4.02-4.17,1.57-1.51,4.02,4.17-1.57,1.51Z"/><polygon class="cls-3" points="43.51 29.64 45.18 31.37 44.07 32.44 42.4 30.7 40.66 32.38 39.75 31.44 39.75 31.43 39.59 31.27 39.67 31.19 41.33 29.6 39.66 27.86 40.76 26.79 42.44 28.53 44.18 26.85 45.24 27.96 43.51 29.64"/><polygon class="cls-3" points="23.82 51.97 23.1 52.66 18.68 48.07 19.4 47.38 23.82 51.97"/><polygon class="cls-2" points="47.34 43.7 44.59 43.7 44.86 45.46 42.57 45.46 42.85 43.7 40.1 43.7 40.58 42.96 42.96 42.96 43.09 42.13 44.35 42.13 44.48 42.96 46.86 42.96 47.34 43.7"/><path class="cls-2" d="M43.72,40.53c-.51,0-1.02.01-1.52.02-.38.01-.75.02-1.12.04-.27.02-.55.03-.82.05-.26.02-.52.03-.77.05-.07.01-.13.01-.19.02-.02,0-.03,0-.04.01-.19.01-.38.03-.57.05-4.84.47-8.33,1.6-8.67,2.94-.02.07-.03.14-.03.21,0,.24.1.47.29.7.2.24.52.48.92.7.51.28,1.17.54,1.96.78.18.05.37.1.56.15.19.05.37.1.57.14,2.46.58,5.78.93,9.43.93,7.58,0,13.73-1.52,13.73-3.4s-6.15-3.39-13.73-3.39ZM43.72,46.82c-.51,0-1.01-.01-1.5-.02-.39-.01-.78-.02-1.15-.04-.2-.01-.4-.02-.59-.03-.31-.02-.61-.04-.9-.06-1.49-.12-2.83-.29-3.98-.51-.31-.06-.6-.12-.88-.18-.18-.04-.35-.08-.51-.11-.03-.01-.05-.02-.07-.02-.2-.05-.39-.1-.57-.15-.68-.19-1.25-.39-1.71-.59-.12-.06-.24-.11-.34-.16-.1-.06-.2-.11-.29-.17-.09-.05-.17-.1-.24-.16-.08-.05-.14-.11-.2-.16-.15-.14-.25-.28-.28-.41-.01-.05-.02-.09-.02-.13,0-.14.06-.28.19-.42.64-.75,2.9-1.57,6.43-2.05.01-.01.02-.01.03-.01.31-.04.64-.08.98-.12.26-.03.53-.06.8-.08.26-.03.52-.05.79-.07.26-.02.52-.03.79-.05.46-.03.92-.05,1.41-.06.58-.02,1.19-.03,1.81-.03,8.2,0,13.23,1.68,13.23,2.89s-5.03,2.9-13.23,2.9Z"/><path class="cls-3" d="M43.72,40.03c-.46,0-.92.01-1.38.02-.32,0-.65.02-.97.03-.19.01-.38.02-.56.03-.21.01-.41.02-.6.03-.06,0-.11.01-.16.01l-.78.06c-5.3.44-9.72,1.68-9.78,3.67v.04c0,.3.1.59.29.86.06.09.13.17.21.25.14.15.31.29.5.43.03.02.06.04.09.06.55.37,1.29.69,2.17.97.18.06.36.11.55.16h0s.09.03.13.04c0,0,.02,0,.03.01.13.04.26.07.4.11,2.69.67,6.28,1.01,9.86,1.01s6.88-.32,9.52-.94c1.58-.36,2.88-.84,3.71-1.42.19-.14.36-.28.5-.43.33-.34.5-.71.5-1.11,0-2.56-7.16-3.89-14.23-3.89ZM43.72,46.82c-.51,0-1.01-.01-1.5-.02-.39-.01-.78-.02-1.15-.04-.2-.01-.4-.02-.59-.03-.31-.02-.61-.04-.9-.06-1.49-.12-2.83-.29-3.98-.51-.31-.06-.6-.12-.88-.18-.18-.04-.35-.08-.51-.11-.03-.01-.05-.02-.07-.02-.2-.05-.39-.1-.57-.15-.68-.19-1.25-.39-1.71-.59-.12-.06-.24-.11-.34-.16-.1-.06-.2-.11-.29-.17-.09-.05-.17-.1-.24-.16-.08-.05-.14-.11-.2-.16-.15-.14-.25-.28-.28-.41-.01-.05-.02-.09-.02-.13,0-.14.06-.28.19-.42.64-.75,2.9-1.57,6.43-2.05.01-.01.02-.01.03-.01.31-.04.64-.08.98-.12.26-.03.53-.06.8-.08.26-.03.52-.05.79-.07.26-.02.52-.03.79-.05.46-.03.92-.05,1.41-.06.58-.02,1.19-.03,1.81-.03,8.2,0,13.23,1.68,13.23,2.89s-5.03,2.9-13.23,2.9Z"/><path class="cls-2" d="M43.72,47.32c-.47,0-.94-.01-1.4-.02-.43-.01-.85-.02-1.27-.05-.25-.01-.51-.02-.76-.04-.04,0-.07,0-.11-.01-.27-.01-.53-.03-.78-.05-.35-.03-.69-.06-1.02-.1-.32-.03-.63-.07-.93-.1-.19-.02-.39-.05-.58-.08-.57-.08-1.11-.17-1.62-.27-.33-.06-.66-.13-.96-.21-.2-.04-.38-.09-.57-.14-.19-.05-.38-.1-.56-.15-.15-.05-.3-.1-.44-.14-.12-.04-.22-.08-.33-.12-.11-.04-.21-.07-.31-.11-.15-.07-.3-.13-.43-.19-.08-.03-.16-.07-.23-.11-.08-.03-.15-.07-.22-.11-.1-.06-.19-.11-.28-.17-.05-.03-.1-.06-.15-.1-.06-.04-.11-.08-.16-.12-.07-.05-.13-.1-.18-.16-.05-.05-.11-.1-.15-.15-.19-.23-.29-.46-.29-.7v9.74c0,1.88,6.15,3.4,13.73,3.4s13.73-1.52,13.73-3.4v-9.74c0,1.88-6.15,3.4-13.73,3.4ZM56.95,53.66c0,1.21-5.03,2.9-13.23,2.9s-13.23-1.69-13.23-2.9v-.93c2.21,1.55,7.75,2.36,13.23,2.36s11.02-.81,13.23-2.36v.93ZM56.95,51.2c0,1.21-5.03,2.89-13.23,2.89s-13.23-1.68-13.23-2.89v-5.65l.09-.03c.55.37,1.29.69,2.17.97.18.06.36.11.55.16h0s.09.03.13.04c0,0,.02,0,.03.01.13.04.26.07.4.11,2.69.67,6.28,1.01,9.86,1.01s6.88-.32,9.52-.94c1.58-.36,2.88-.84,3.71-1.42v5.74Z"/><path class="cls-3" d="M56.95,43.92c0,1.21-5.03,2.9-13.23,2.9-.51,0-1.01-.01-1.5-.02-.39-.01-.78-.02-1.15-.04-.2-.01-.4-.02-.59-.03-.31-.02-.61-.04-.9-.06-1.49-.12-2.83-.29-3.98-.51-.31-.06-.6-.12-.88-.18-.18-.04-.35-.08-.51-.11-.03-.01-.05-.02-.07-.02-.2-.05-.39-.1-.57-.15-.68-.19-1.25-.39-1.71-.59-.12-.06-.24-.11-.34-.16-.1-.06-.2-.11-.29-.17-.09-.05-.17-.1-.24-.16-.08-.05-.14-.11-.2-.16-.15-.14-.25-.28-.28-.41-.01-.05-.02-.09-.02-.13h-1v9.74c0,2.56,7.16,3.9,14.23,3.9s14.23-1.34,14.23-3.9v-9.74h-1ZM56.95,53.66c0,1.21-5.03,2.9-13.23,2.9s-13.23-1.69-13.23-2.9v-8.2s.06.04.09.06c.55.37,1.29.69,2.17.97.18.06.36.11.55.16.04.01.08.03.13.04,0,0,.02,0,.03.01.13.03.27.07.41.1,5.24,1.29,13.98,1.32,19.37.08,1.58-.36,2.88-.84,3.71-1.42v8.2Z"/><path class="cls-3" d="M57.95,51.2c0,.4-.17.77-.5,1.1-.14.15-.31.29-.5.43-2.21,1.55-7.75,2.36-13.23,2.36s-11.02-.81-13.23-2.36c-.19-.14-.36-.28-.5-.43-.33-.33-.5-.7-.5-1.1h1c0,1.21,5.03,2.89,13.23,2.89s13.23-1.68,13.23-2.89h1Z"/><polygon class="cls-3" points="44.59 43.7 44.86 45.46 42.57 45.46 42.85 43.7 40.1 43.7 40.58 42.96 42.96 42.96 43.09 42.13 44.35 42.13 44.48 42.96 46.86 42.96 47.34 43.7 44.59 43.7"/><path class="cls-3" d="M7.99,68.77h1.65c1,0,1.41.63,1.41,2.24s-.47,2.31-1.43,2.31h-.69v3.35h-.94v-7.89ZM9.3,72.22c.58,0,.8-.29.8-1.19,0-.94-.22-1.17-.79-1.17h-.41v2.35h.4Z"/><path class="cls-3" d="M11.67,68.77h.95v7.89h-.95v-7.89Z"/><path class="cls-3" d="M13.49,68.77h.95v6.55h1.71v1.34h-2.66v-7.89Z"/><path class="cls-3" d="M16.79,68.77h2.61v1.31h-1.67v1.83h1.56v1.25h-1.56v2.17h1.71v1.33h-2.65v-7.89Z"/><path class="cls-3" d="M20.99,73.89v.5c0,.85.09,1.26.52,1.26.41,0,.62-.33.62-.93,0-.57-.19-.83-.58-1.26l-.49-.54c-.65-.7-.97-1.11-.97-2.23,0-1.32.54-2.12,1.43-2.12.94,0,1.46.82,1.46,2.32,0,.09,0,.19,0,.28h-.9v-.21c0-.84-.16-1.2-.58-1.2-.3,0-.49.29-.49.79s.23.73.6,1.11l.52.55c.67.69.95,1.23.95,2.38,0,1.43-.54,2.25-1.53,2.25s-1.52-.81-1.52-2.49c0-.15,0-.3.01-.47h.95Z"/><path class="cls-3" d="M25.54,68.77h2.61v1.31h-1.67v1.83h1.56v1.25h-1.56v2.17h1.71v1.33h-2.65v-7.89Z"/><path class="cls-3" d="M29.61,70.07h-1.09v-1.3h3.13v1.3h-1.09v6.59h-.95v-6.59Z"/><path class="cls-3" d="M33.84,68.77h1.52c.87,0,1.29.62,1.29,1.92,0,1.05-.21,1.62-.63,1.73.47.1.76.75.76,1.81,0,1.68-.44,2.44-1.39,2.44h-1.55v-7.89ZM35.08,71.97c.48,0,.63-.27.63-1.12,0-.8-.16-1.01-.66-1.01h-.29v2.13h.32ZM35.15,75.54c.49,0,.66-.33.66-1.25,0-1-.2-1.26-.77-1.26h-.28v2.51h.39Z"/><path class="cls-3" d="M38.3,68.77h1.27l1.16,7.89h-1.02l-.25-1.98h-1.09l-.24,1.98h-.97l1.14-7.89ZM39.32,73.49l-.41-3.31-.4,3.31h.81Z"/><path class="cls-3" d="M41.57,70.07h-1.09v-1.3h3.13v1.3h-1.09v6.59h-.95v-6.59Z"/><path class="cls-3" d="M44.99,70.07h-1.09v-1.3h3.13v1.3h-1.09v6.59h-.95v-6.59Z"/><path class="cls-3" d="M47.53,68.77h2.61v1.31h-1.67v1.83h1.56v1.25h-1.56v2.17h1.71v1.33h-2.65v-7.89Z"/><path class="cls-3" d="M50.88,68.77h1.7c1.02,0,1.45.6,1.45,2.07,0,1.03-.25,1.63-.72,1.73.7.28.68.85.7,1.87l.03,1.05c.01.51.07.88.26,1.18h-1.12c-.07-.34-.08-.73-.09-1.23v-.83s-.01-.21-.01-.21c0-1.03-.28-1.2-.95-1.2h-.32v3.46h-.91v-7.89ZM52.34,72.11c.55,0,.73-.29.73-1.18s-.24-1.06-.81-1.06h-.47v2.24h.55Z"/><path class="cls-3" d="M54.78,68.77h.95v7.89h-.95v-7.89Z"/><path class="cls-3" d="M56.59,68.77h2.61v1.31h-1.67v1.83h1.56v1.25h-1.56v2.17h1.71v1.33h-2.65v-7.89Z"/><path class="cls-3" d="M60.79,73.89v.5c0,.85.09,1.26.52,1.26.41,0,.62-.33.62-.93,0-.57-.19-.83-.58-1.26l-.49-.54c-.65-.7-.97-1.11-.97-2.23,0-1.32.54-2.12,1.43-2.12.94,0,1.46.82,1.46,2.32,0,.09,0,.19,0,.28h-.9v-.21c0-.84-.16-1.2-.58-1.2-.3,0-.49.29-.49.79s.23.73.6,1.11l.52.55c.67.69.95,1.23.95,2.38,0,1.43-.54,2.25-1.53,2.25s-1.52-.81-1.52-2.49c0-.15,0-.3.01-.47h.95Z"/></g><g id="Cadres"><path class="cls-1" d="M17.48,8.5h35.9c4.95,0,8.98,4.02,8.98,8.98v35.9c0,4.95-4.02,8.98-8.98,8.98H17.48c-4.95,0-8.98-4.02-8.98-8.98V17.48c0-4.95,4.02-8.98,8.98-8.98Z"/></g></svg>