<?xml version="1.0" encoding="UTF-8"?><svg xmlns="http://www.w3.org/2000/svg" viewBox="0 0 70.87 95.67"><defs><style>.cls-1,.cls-2,.cls-3,.cls-4,.cls-5{fill:none;stroke:#086;}.cls-1,.cls-3{stroke-linejoin:round;}.cls-1,.cls-4{stroke-linecap:round;}.cls-6{fill:#086;}.cls-6,.cls-7{stroke-width:0px;}.cls-5{stroke-miterlimit:10;}.cls-7{fill:#008966;}</style></defs><g id="Pictogrammes"><line class="cls-1" x1="13.6" y1="36.59" x2="16.88" y2="41.21"/><line class="cls-4" x1="23.17" y1="26.57" x2="29.43" y2="35.44"/><line class="cls-1" x1="45.78" y1="17.22" x2="53.82" y2="11.59"/><line class="cls-1" x1="22.82" y1="30.71" x2="25.46" y2="34.37"/><line class="cls-1" x1="15.36" y1="38.85" x2="25.7" y2="31.4"/><rect class="cls-3" x="24.36" y="19.84" width="22.42" height="9.33" transform="translate(-7.62 25.23) rotate(-35.53)"/><line class="cls-1" x1="33.33" y1="31.33" x2="31" y2="28.07"/><line class="cls-1" x1="35.63" y1="29.68" x2="33.31" y2="26.43"/><line class="cls-1" x1="37.74" y1="28.18" x2="35.41" y2="24.93"/><line class="cls-1" x1="40.04" y1="26.54" x2="37.72" y2="23.28"/><line class="cls-1" x1="44.9" y1="17.85" x2="49.78" y2="14.36"/><path class="cls-6" d="M51.79,37.49h-16.16c-1.39,0-2.53.53-2.53,1.19v.2h21.22v-.2c0-.66-1.14-1.19-2.53-1.19"/><path class="cls-5" d="M56.07,39.75c0-.38-.38-.69-.84-.69h-23.43c-.46,0-.84.31-.84.69v1.19h25.11v-1.19Z"/><path class="cls-1" d="M55.9,41.43h-24.75c-.06,0-.11,0-.17,0l1.89,14.65c.13.98.97,1.71,1.95,1.71h3.23c1.14,0,2.07.25,2.07-.89,0-.66.54.07,1.2.07h4.42c.66,0,1.2-.73,1.2-.07,0,1.14.93.89,2.07.89h3.22c.98,0,1.82-.73,1.96-1.71l1.89-14.65c-.06,0-.11,0-.17,0"/><path class="cls-7" d="M43.59,52.39c-1.72,0-3.12-1.4-3.12-3.12s1.4-3.12,3.12-3.12,3.12,1.4,3.12,3.12-1.4,3.12-3.12,3.12ZM43.59,47.18c-1.15,0-2.08.93-2.08,2.08s.93,2.08,2.08,2.08,2.08-.93,2.08-2.08-.93-2.08-2.08-2.08Z"/><path class="cls-7" d="M43.59,49.27c-1.72,0-3.12-1.4-3.12-3.12,0-1.24.74-2.37,1.87-2.86l.42.95c-.76.33-1.25,1.08-1.25,1.91,0,1.15.93,2.08,2.08,2.08s2.08-.93,2.08-2.08c0-.83-.49-1.58-1.25-1.91l.42-.95c1.14.5,1.87,1.62,1.87,2.86,0,1.72-1.4,3.12-3.12,3.12h0Z"/><path class="cls-7" d="M40.98,53.95c-.21,0-.42-.02-.62-.06l.21-1.02c.14.03.28.04.42.04,1.15,0,2.08-.93,2.08-2.08s-.93-2.08-2.08-2.08-2.08.93-2.08,2.08c0,.14.01.28.04.42l-1.02.21c-.04-.2-.06-.41-.06-.62,0-1.72,1.4-3.12,3.12-3.12s3.12,1.4,3.12,3.12-1.4,3.12-3.12,3.12h0Z"/><path class="cls-7" d="M46.19,53.95c-1.72,0-3.12-1.4-3.12-3.12s1.4-3.12,3.12-3.12,3.12,1.4,3.12,3.12c0,.21-.02.42-.06.62l-1.02-.21c.03-.14.04-.28.04-.42,0-1.15-.93-2.08-2.08-2.08s-2.08.93-2.08,2.08.93,2.08,2.08,2.08c.14,0,.28-.01.42-.04l.21,1.02c-.2.04-.41.06-.62.06h0Z"/><path class="cls-6" d="M13.61,68.44h1.27c.46,0,.78.12,1,.52.36.66.41,1.58.41,2.94,0,1.52,0,2.68-.28,3.56-.24.79-.63.87-1.31.87h-1.09v-7.89ZM14.73,75.17c.27,0,.44-.02.55-.31.18-.5.2-1.33.2-2.56s-.03-2.04-.24-2.46c-.11-.21-.26-.24-.52-.24h-.34v5.57h.35Z"/><path class="cls-6" d="M16.91,68.44h2.17v1.31h-1.39v1.83h1.3v1.25h-1.3v2.17h1.42v1.33h-2.21v-7.89ZM18.07,66.32h.7l-.84,1.46h-.34l.48-1.46Z"/><path class="cls-6" d="M22.15,73.52c0,.1,0,.2,0,.3,0,1.83-.41,2.7-1.26,2.7-.39,0-.68-.18-.9-.6-.36-.69-.39-1.83-.39-3.63,0-1.51.06-2.51.21-3.01.23-.73.56-1.03,1.07-1.03.86,0,1.23.8,1.23,2.63h-.77v-.19c0-.85-.15-1.27-.45-1.27-.49,0-.49.83-.49,2.84,0,2.21,0,3.06.48,3.06.38,0,.47-.49.47-1.7v-.1h.77Z"/><path class="cls-6" d="M22.79,68.44h.78v3.1h1.08v-3.1h.78v7.89h-.78v-3.58h-1.08v3.58h-.78v-7.89Z"/><path class="cls-6" d="M26.15,68.44h2.17v1.31h-1.39v1.83h1.3v1.25h-1.3v2.17h1.42v1.33h-2.21v-7.89Z"/><path class="cls-6" d="M29.54,69.74h-.91v-1.3h2.6v1.3h-.91v6.59h-.79v-6.59Z"/><path class="cls-6" d="M32.36,73.56v.5c0,.85.07,1.26.43,1.26.34,0,.51-.33.51-.93,0-.57-.16-.83-.48-1.26l-.41-.54c-.54-.7-.81-1.11-.81-2.23,0-1.32.45-2.12,1.19-2.12.78,0,1.22.82,1.22,2.32,0,.09,0,.19,0,.28h-.75v-.21c0-.84-.14-1.2-.48-1.2-.25,0-.41.29-.41.79s.19.73.5,1.11l.43.55c.56.69.79,1.23.79,2.38,0,1.43-.45,2.25-1.27,2.25s-1.26-.81-1.26-2.49c0-.15,0-.3.01-.47h.79Z"/><path class="cls-6" d="M36.14,68.44h1.27c.46,0,.78.12,1,.52.36.66.41,1.58.41,2.94,0,1.52,0,2.68-.28,3.56-.24.79-.63.87-1.31.87h-1.09v-7.89ZM37.26,75.17c.27,0,.44-.02.55-.31.18-.5.2-1.33.2-2.56s-.03-2.04-.24-2.46c-.11-.21-.26-.24-.52-.24h-.34v5.57h.35Z"/><path class="cls-6" d="M39.45,68.44h2.17v1.31h-1.39v1.83h1.3v1.25h-1.3v2.17h1.42v1.33h-2.21v-7.89Z"/><path class="cls-6" d="M44.35,73.56v.5c0,.85.07,1.26.43,1.26.34,0,.51-.33.51-.93,0-.57-.16-.83-.48-1.26l-.41-.54c-.54-.7-.8-1.11-.8-2.23,0-1.32.45-2.12,1.19-2.12.78,0,1.22.82,1.22,2.32,0,.09,0,.19,0,.28h-.75v-.21c0-.84-.14-1.2-.48-1.2-.25,0-.41.29-.41.79s.19.73.5,1.11l.43.55c.56.69.79,1.23.79,2.38,0,1.43-.45,2.25-1.27,2.25s-1.26-.81-1.26-2.49c0-.15,0-.3.01-.47h.79Z"/><path class="cls-6" d="M46.9,69.24c.26-.75.58-1,1.12-1s.86.25,1.12,1c.19.56.26,1.59.26,3.14s-.07,2.58-.26,3.14c-.26.75-.58,1-1.12,1s-.86-.25-1.12-1c-.19-.55-.26-1.59-.26-3.14s.07-2.59.26-3.14ZM48.02,75.34c.54,0,.56-.9.56-2.96s-.02-2.97-.57-2.97-.57.91-.57,2.97.03,2.96.57,2.96Z"/><path class="cls-6" d="M50.03,68.44h.79v7.89h-.79v-7.89Z"/><path class="cls-6" d="M51.54,68.44h.81l1.1,5.52-.02-5.52h.74v7.89h-.81l-1.11-5.53.02,5.53h-.74v-7.89Z"/><path class="cls-6" d="M55.6,73.56v.5c0,.85.07,1.26.43,1.26.34,0,.51-.33.51-.93,0-.57-.16-.83-.48-1.26l-.41-.54c-.54-.7-.8-1.11-.8-2.23,0-1.32.45-2.12,1.19-2.12.78,0,1.22.82,1.22,2.32,0,.09,0,.19,0,.28h-.75v-.21c0-.84-.14-1.2-.48-1.2-.25,0-.41.29-.41.79s.19.73.5,1.11l.43.55c.56.69.79,1.23.79,2.38,0,1.43-.45,2.25-1.27,2.25s-1.26-.81-1.26-2.49c0-.15,0-.3.01-.47h.79Z"/><path class="cls-6" d="M9.83,79.44h1.06l.96,7.89h-.85l-.21-1.98h-.91l-.2,1.98h-.81l.95-7.89ZM10.42,78.77l-.84-1.46h.7l.48,1.46h-.34ZM10.68,84.16l-.34-3.31-.33,3.31h.67Z"/><path class="cls-6" d="M13.68,79.44h1.41c.85,0,1.2.6,1.2,2.07,0,1.03-.21,1.63-.6,1.73.58.28.57.85.59,1.87l.02,1.05c.01.51.06.88.21,1.18h-.94c-.06-.34-.07-.73-.07-1.23v-.83s-.01-.21-.01-.21c0-1.03-.23-1.2-.79-1.2h-.27v3.46h-.76v-7.89ZM14.89,82.77c.46,0,.61-.29.61-1.18s-.2-1.06-.68-1.06h-.39v2.24h.46Z"/><path class="cls-6" d="M16.92,79.44h.79v7.89h-.79v-7.89Z"/><path class="cls-6" d="M19.14,84.56v.5c0,.85.07,1.26.43,1.26.34,0,.51-.33.51-.93,0-.57-.16-.83-.48-1.26l-.41-.54c-.54-.7-.81-1.11-.81-2.23,0-1.32.45-2.12,1.19-2.12.78,0,1.22.82,1.22,2.32,0,.09,0,.19,0,.28h-.75v-.21c0-.84-.14-1.2-.48-1.2-.25,0-.41.29-.41.79s.19.73.5,1.11l.43.55c.56.69.79,1.23.79,2.38,0,1.43-.45,2.25-1.27,2.25s-1.26-.81-1.26-2.49c0-.15,0-.3.01-.47h.79Z"/><path class="cls-6" d="M22.81,87.52c-.54,0-.86-.25-1.12-1-.19-.56-.26-1.6-.26-3.14s.07-2.58.26-3.14c.26-.75.58-1,1.12-1s.86.25,1.12,1c.19.56.26,1.6.26,3.14,0,1.66-.07,2.7-.26,3.14l.47.88-.4.76-.48-.9c-.2.19-.43.26-.7.26ZM22.76,85.85l.39-.75.17.33c.04-.54.06-1.11.06-1.76,0-2.26-.01-3.25-.57-3.25s-.57.91-.57,2.97.03,2.96.54,2.96c.06,0,.13-.02.22-.05l-.23-.44Z"/><path class="cls-6" d="M25.61,79.44v5.32c0,1.09.1,1.56.55,1.56s.54-.48.54-1.59v-5.3h.78v5.45c0,.76-.01,1.32-.21,1.81-.23.55-.6.83-1.12.83-1.01,0-1.32-.77-1.32-2.63v-5.45h.79Z"/><path class="cls-6" d="M28.18,79.44h2.17v1.31h-1.39v1.83h1.3v1.25h-1.3v2.17h1.42v1.33h-2.21v-7.89Z"/><path class="cls-6" d="M31.68,84.56v.5c0,.85.07,1.26.43,1.26.34,0,.51-.33.51-.93,0-.57-.16-.83-.48-1.26l-.41-.54c-.54-.7-.81-1.11-.81-2.23,0-1.32.45-2.12,1.19-2.12.78,0,1.22.82,1.22,2.32,0,.09,0,.19,0,.28h-.75v-.21c0-.84-.14-1.2-.48-1.2-.25,0-.41.29-.41.79s.19.73.5,1.11l.43.55c.56.69.79,1.23.79,2.38,0,1.43-.45,2.25-1.27,2.25s-1.26-.81-1.26-2.49c0-.15,0-.3.01-.47h.79Z"/><path class="cls-6" d="M35.46,79.44h.79v7.89h-.79v-7.89Z"/><path class="cls-6" d="M36.97,79.44h.81l1.1,5.52-.02-5.52h.74v7.89h-.81l-1.11-5.53.02,5.53h-.74v-7.89Z"/><path class="cls-6" d="M40.32,79.44h2.21v1.29h-1.43v1.87h1.35v1.26h-1.35v3.48h-.79v-7.89Z"/><path class="cls-6" d="M43.07,79.44h2.17v1.31h-1.39v1.83h1.3v1.25h-1.3v2.17h1.42v1.33h-2.21v-7.89Z"/><path class="cls-6" d="M48.31,84.52c0,.1,0,.2,0,.3,0,1.83-.41,2.7-1.26,2.7-.39,0-.68-.18-.9-.6-.36-.69-.39-1.83-.39-3.63,0-1.51.06-2.51.21-3.01.23-.73.56-1.03,1.07-1.03.86,0,1.23.8,1.23,2.63h-.77v-.19c0-.85-.15-1.27-.45-1.27-.49,0-.49.83-.49,2.84,0,2.21,0,3.06.48,3.06.38,0,.47-.49.47-1.7v-.1h.77Z"/><path class="cls-6" d="M49.55,80.74h-.91v-1.3h2.6v1.3h-.91v6.59h-.79v-6.59Z"/><path class="cls-6" d="M51.66,79.44h.79v7.89h-.79v-7.89Z"/><path class="cls-6" d="M53.16,79.44h2.17v1.31h-1.39v1.83h1.3v1.25h-1.3v2.17h1.42v1.33h-2.21v-7.89Z"/><path class="cls-6" d="M56.74,79.44v5.32c0,1.09.1,1.56.55,1.56s.54-.48.54-1.59v-5.3h.78v5.45c0,.76-.01,1.32-.21,1.81-.23.55-.6.83-1.12.83-1.01,0-1.32-.77-1.32-2.63v-5.45h.79Z"/><path class="cls-6" d="M60.04,83.3l-.99-3.86h.89l.56,2.49.57-2.49h.88l-1.02,3.86,1.05,4.03h-.89l-.61-2.64-.63,2.64h-.86l1.04-4.03Z"/></g><g id="Cadres"><path class="cls-2" d="M17.48,8.5h35.9c4.95,0,8.98,4.02,8.98,8.98v35.9c0,4.95-4.02,8.98-8.98,8.98H17.48c-4.95,0-8.98-4.02-8.98-8.98V17.48c0-4.95,4.02-8.98,8.98-8.98Z"/></g></svg>