<?xml version="1.0" encoding="UTF-8"?><svg xmlns="http://www.w3.org/2000/svg" viewBox="0 0 70.87 95.67"><defs><style>.cls-1,.cls-2{fill:none;stroke:#086;}.cls-3,.cls-2{fill-rule:evenodd;}.cls-3,.cls-4{fill:#086;stroke-width:0px;}.cls-2{stroke-miterlimit:10;stroke-width:.75px;}</style></defs><g id="Pictogrammes"><path class="cls-3" d="M26.98,49.13l1.16-1.16,2.1,2.1-1.06,1.06c-.6-.79-1.34-1.47-2.19-2h0Z"/><polygon class="cls-3" points="31 57.08 33.71 57.08 33.71 56.32 36.67 56.32 36.67 57.08 39.38 57.08 39.38 58.51 31 58.51 31 57.08 31 57.08"/><polygon class="cls-3" points="34.09 55.46 36.28 55.46 36.28 53.88 34.09 53.88 34.09 55.46 34.09 55.46"/><polygon class="cls-3" points="34.61 45.41 35.77 45.41 35.77 53.02 34.61 53.02 34.61 45.41 34.61 45.41"/><path class="cls-4" d="M28.57,48.62c.66-.6,1.25-1.26,1.67-1.95.41-.68.65-1.39.63-2.11-.04-1.3-.74-2.12-1.46-2.95-.97-1.12-1.96-2.26-1.96-4.46,0-1.18.48-2.24,1.25-3.01.77-.77,1.84-1.25,3.01-1.25s2.24.48,3.01,1.25c.77.77,1.25,1.84,1.25,3.01v7.48h-1.55v-7.48c0-.75-.3-1.42-.79-1.91-.49-.49-1.17-.79-1.91-.79s-1.42.3-1.91.79c-.49.49-.79,1.17-.79,1.91,0,1.62.8,2.54,1.58,3.44.9,1.04,1.79,2.06,1.84,3.92.03,1.04-.3,2.04-.85,2.95-.49.81-1.15,1.56-1.9,2.25l-1.1-1.1h0Z"/><path class="cls-3" d="M22.17,48.56c4.4,0,7.99,3.6,7.99,7.99,0,1.13-.93,1.96-2.06,1.96h-1.46c.27-.29.43-.68.43-1.1,0-1.28-.51-2.38-1.41-3.28-.87-.87-2.06-1.41-3.38-1.41h-2.89c-.1-.13-.21-.25-.32-.36-.76-.76-1.81-1.23-2.96-1.23-.75,0-1.45.2-2.06.54.76-1.83,2.57-3.12,4.66-3.12h0v-.79h3.19v.79h.27ZM16.11,53.72c.89,0,1.61.72,1.61,1.61s-.72,1.61-1.61,1.61-1.61-.72-1.61-1.61.72-1.61,1.61-1.61h0ZM19.26,58.1c.61-.69.99-1.59,1.04-2.57v-.02s0-.03,0-.03h0s0-.04,0-.04v-.02s0-.03,0-.03h0s0-.06,0-.06c0-.03,0-.07,0-.1h0s0-.02,0-.02v-.02s0,0,0,0v-.04s0-.02,0-.02c-.02-.48-.13-.94-.3-1.37h2.29c1.03,0,1.97.42,2.65,1.1.68.68,1.1,1.62,1.1,2.65,0,.16-.06.3-.17.41-.11.11-.25.17-.41.17h-6.19ZM18.34,53.1c-.57-.57-1.36-.92-2.23-.92s-1.66.35-2.23.92c-.57.57-.92,1.36-.92,2.23s.35,1.66.92,2.23c.57.57,1.36.92,2.23.92s1.66-.35,2.23-.92.9-1.31.92-2.15h0s0-.03,0-.03v-.02s0,0,0,0v-.04s0-.02,0-.02v-.02s0,0,0,0c0-.03,0-.05,0-.08h0c-.03-.82-.38-1.57-.92-2.11h0Z"/><path class="cls-3" d="M55.3,28.85l.23-.95-8.23-1.95-.22.95c1.98-.26,6.58.85,8.23,1.95h0ZM57.09,23.29c.54.86.68,3.77.13,4.32-.26.26-.63.38-1.05.28-3.16-.75-6.3-1.49-9.44-2.23-.41-.1-.7-.38-.81-.72-.24-.74,1.2-3.29,2.06-3.81l-.09.36c-.07.07-.14.13-.21.21l-.4,1.7c-.04.18.06.36.23.4l8.8,2.08c.18.04.34-.07.39-.25l.4-1.7c-.03-.1-.06-.19-.1-.28l.08-.35ZM46.15,27.49c-2.62,7.19-.78,13.04-2.74,20.36-.52,1.91-1.32,4.18-.17,5.36.64.65,2.81,1.17,3.67.88,1.59-.51,1.89-2.93,2.28-4.87,1.53-7.42,5.81-11.84,6.68-19.45.18-1.51-9.2-3.79-9.72-2.28h0ZM46.21,28.65c-2.42,6.55-.67,11.9-2.46,18.56-.45,1.73-1.21,3.8-.12,4.88.6.59,2.64,1.07,3.43.83,1.47-.46,1.74-2.66,2.11-4.43,1.39-6.78,5.35-10.77,6.12-17.71.17-1.38-8.58-3.5-9.08-2.13h0ZM50.37,31.32h0c.84.2,1.36,1.05,1.17,1.89l-3.22,13.63c-.2.84-1.05,1.36-1.89,1.17h0c-.82-.19-1.35-1.04-1.15-1.88l3.22-13.63c.2-.84,1.05-1.36,1.87-1.17h0ZM50.15,32.22h.01c.46.11.75.58.64,1.04l-.68,2.87c-.11.47-.58.74-1.04.64h-.01c-.46-.11-.75-.57-.64-1.04l.68-2.87c.11-.46.58-.75,1.04-.64h0ZM48.08,40.98c.49.12.79.59.68,1.08-.12.49-.6.79-1.09.67-.47-.11-.78-.6-.66-1.09.12-.49.6-.78,1.08-.66h0ZM47.03,45.42c.49.12.79.6.67,1.1-.12.49-.6.78-1.09.66-.47-.11-.78-.59-.66-1.07.12-.49.61-.8,1.08-.69h0ZM48.44,20.46l8.53,2.02c.07.02.13.11.11.2l-.58,2.45c-.02.09-.12.15-.19.13l-8.53-2.02c-.09-.02-.14-.11-.12-.21l.58-2.45c.02-.09.1-.15.2-.13h0ZM48.74,20.83l.29.07-.53,2.23-.29-.07.53-2.23ZM56.23,22.61l.3.07-.53,2.23-.3-.07.53-2.23ZM55.56,22.45c.09.02.2.05.29.07-.22.93-.31,1.29-.53,2.23-.09-.02-.2-.05-.29-.07.22-.93.31-1.29.53-2.23h0ZM54.87,22.28c.11.03.2.05.31.07-.22.93-.31,1.29-.53,2.23-.11-.03-.2-.05-.31-.07.22-.93.31-1.29.53-2.23h0ZM54.18,22.12c.11.03.2.05.3.07-.22.93-.31,1.29-.53,2.23-.11-.03-.2-.05-.3-.07.22-.93.31-1.29.53-2.23h0ZM53.51,21.96c.09.02.2.05.29.07-.22.93-.31,1.29-.53,2.23-.09-.02-.2-.05-.29-.07.22-.93.31-1.29.53-2.23h0ZM52.83,21.8c.11.03.2.05.3.07-.22.93-.31,1.29-.53,2.23-.11-.03-.2-.05-.3-.07.22-.93.31-1.29.53-2.23h0ZM52.14,21.64c.11.03.2.05.3.07-.22.93-.31,1.29-.53,2.23-.11-.03-.2-.05-.3-.07.22-.93.31-1.29.53-2.23h0ZM51.47,21.48c.09.02.2.05.29.07-.22.93-.31,1.29-.53,2.23-.09-.02-.2-.05-.29-.07.22-.93.31-1.29.53-2.23h0ZM50.78,21.32c.09.02.2.05.29.07-.22.93-.31,1.29-.53,2.23-.09-.02-.2-.05-.29-.07.22-.93.31-1.29.53-2.23h0ZM50.1,21.16c.11.03.2.05.3.07-.22.93-.31,1.29-.53,2.23-.11-.03-.2-.05-.3-.07.22-.93.31-1.29.53-2.23h0ZM49.41,20.99c.11.03.21.05.3.07-.22.93-.31,1.29-.53,2.23-.09-.02-.2-.05-.3-.07.22-.93.31-1.29.53-2.23h0Z"/><path class="cls-2" d="M37.29,13.81l1.87-.81.52,1.19-1.87.81-.52-1.19h0ZM25.83,19.54l3.45-.64c.18-.03.35.09.39.27l.06.31c1.99-.38,3.84-.74,4.67-.9.32-.06.78-2.63.24-2.67-3.46-.25-6.8.4-8.69,1.21-1.89.81-3.85,3.8-3.11,3.66l2.79-.52-.06-.32c-.03-.18.09-.35.27-.39h0ZM13.98,26.94l20.12-.86c1.36-1.29,3.21-2.06,5.25-2.05.28,0,.92.16,1.11-.05.19-.21.01-.62-.11-.88l-.84-1.92c-4.05.8-8.1,1.54-12.14,2.23-4.24.72-8.47,1.38-12.68,1.97-.25.51-.5,1.03-.72,1.56h0ZM39.09,20.21l-2.87-6.59c-5.39-.59-9.31.12-11.79,1.29-2.78,1.32-6.5,4.67-9.14,9.34,3.96-.56,7.93-1.19,11.9-1.86,3.96-.67,7.92-1.4,11.89-2.18h0ZM14.14,27.85l20.55-.87c.38-.02.71.28.72.66.02.38-.28.71-.66.72l-20.55.87c-.38.02-.71-.28-.72-.66-.02-.38.28-.71.66-.72h0Z"/><path class="cls-4" d="M9.32,68.18h1.7c1.03,0,1.46.63,1.46,2.24s-.48,2.31-1.47,2.31h-.71v3.35h-.97v-7.89ZM10.67,71.64c.59,0,.82-.29.82-1.19,0-.94-.23-1.17-.81-1.17h-.43v2.35h.41Z"/><path class="cls-4" d="M13.12,68.18h2.69v1.31h-1.72v1.83h1.6v1.25h-1.6v2.17h1.76v1.33h-2.73v-7.89Z"/><path class="cls-4" d="M17.32,69.49h-1.12v-1.3h3.22v1.3h-1.12v6.59h-.98v-6.59Z"/><path class="cls-4" d="M19.93,68.18h.98v7.89h-.98v-7.89Z"/><path class="cls-4" d="M22.55,69.49h-1.12v-1.3h3.22v1.3h-1.12v6.59h-.98v-6.59Z"/><path class="cls-4" d="M26.04,73.31v.5c0,.85.09,1.26.54,1.26.42,0,.63-.33.63-.93,0-.57-.2-.83-.6-1.26l-.5-.54c-.67-.7-1-1.11-1-2.23,0-1.32.56-2.12,1.47-2.12.97,0,1.51.82,1.51,2.32,0,.09,0,.19,0,.28h-.93v-.21c0-.84-.17-1.2-.6-1.2-.31,0-.5.29-.5.79s.24.73.61,1.11l.54.55c.69.69.98,1.23.98,2.38,0,1.43-.56,2.25-1.58,2.25s-1.56-.81-1.56-2.49c0-.15,0-.3.01-.47h.98Z"/><path class="cls-4" d="M31.52,68.18h1.31l1.19,7.89h-1.05l-.26-1.98h-1.12l-.25,1.98h-1l1.18-7.89ZM32.57,72.91l-.42-3.31-.41,3.31h.83Z"/><path class="cls-4" d="M34.54,68.18h1.7c1.03,0,1.46.63,1.46,2.24s-.48,2.31-1.47,2.31h-.71v3.35h-.97v-7.89ZM35.89,71.64c.59,0,.82-.29.82-1.19,0-.94-.23-1.17-.81-1.17h-.43v2.35h.41Z"/><path class="cls-4" d="M38.34,68.18h1.7c1.03,0,1.46.63,1.46,2.24s-.48,2.31-1.47,2.31h-.71v3.35h-.97v-7.89ZM39.69,71.64c.59,0,.82-.29.82-1.19,0-.94-.23-1.17-.81-1.17h-.43v2.35h.41Z"/><path class="cls-4" d="M42.61,68.18h1.31l1.19,7.89h-1.05l-.26-1.98h-1.12l-.25,1.98h-1l1.18-7.89ZM43.67,72.91l-.42-3.31-.41,3.31h.83Z"/><path class="cls-4" d="M45.63,68.18h1.75c1.05,0,1.49.6,1.49,2.07,0,1.03-.26,1.63-.74,1.73.72.28.7.85.73,1.87l.03,1.05c.01.51.07.88.27,1.18h-1.16c-.07-.34-.08-.73-.09-1.23v-.83s-.01-.21-.01-.21c0-1.03-.29-1.2-.98-1.2h-.33v3.46h-.94v-7.89ZM47.14,71.52c.57,0,.75-.29.75-1.18s-.24-1.06-.84-1.06h-.48v2.24h.57Z"/><path class="cls-4" d="M49.65,68.18h2.69v1.31h-1.72v1.83h1.6v1.25h-1.6v2.17h1.76v1.33h-2.73v-7.89Z"/><path class="cls-4" d="M53.11,68.18h.98v7.89h-.98v-7.89Z"/><path class="cls-4" d="M54.97,68.18h.98v6.55h1.77v1.34h-2.74v-7.89Z"/><path class="cls-4" d="M59.26,73.31v.5c0,.85.09,1.26.54,1.26.42,0,.63-.33.63-.93,0-.57-.2-.83-.6-1.26l-.5-.54c-.67-.7-1-1.11-1-2.23,0-1.32.56-2.12,1.47-2.12.97,0,1.51.82,1.51,2.32,0,.09,0,.19,0,.28h-.93v-.21c0-.84-.17-1.2-.6-1.2-.31,0-.5.29-.5.79s.24.73.61,1.11l.54.55c.69.69.98,1.23.98,2.38,0,1.43-.56,2.25-1.58,2.25s-1.56-.81-1.56-2.49c0-.15,0-.3.01-.47h.98Z"/><path class="cls-4" d="M17.18,79.18h2.69v1.31h-1.72v1.83h1.6v1.25h-1.6v2.17h1.76v1.33h-2.73v-7.89ZM18.61,77.06h.87l-1.04,1.46h-.43l.59-1.46Z"/><path class="cls-4" d="M20.63,79.18h.98v6.55h1.77v1.34h-2.74v-7.89Z"/><path class="cls-4" d="M24.03,79.18h2.69v1.31h-1.72v1.83h1.6v1.25h-1.6v2.17h1.77v1.33h-2.74v-7.89Z"/><path class="cls-4" d="M30.52,84.27c0,.1,0,.2,0,.3,0,1.83-.5,2.7-1.56,2.7-.49,0-.84-.18-1.11-.6-.45-.69-.48-1.83-.48-3.63,0-1.51.07-2.51.26-3.01.29-.73.69-1.03,1.33-1.03,1.07,0,1.52.8,1.53,2.63h-.95v-.19c0-.85-.18-1.27-.56-1.27-.61,0-.61.83-.61,2.84,0,2.21,0,3.06.6,3.06.47,0,.59-.49.59-1.7v-.1h.95Z"/><path class="cls-4" d="M32.05,80.49h-1.12v-1.3h3.22v1.3h-1.12v6.59h-.98v-6.59Z"/><path class="cls-4" d="M34.66,79.18h1.75c1.05,0,1.49.6,1.49,2.07,0,1.03-.26,1.63-.74,1.73.72.28.7.85.73,1.87l.03,1.05c.01.51.07.88.27,1.18h-1.16c-.07-.34-.08-.73-.09-1.23v-.83s-.01-.21-.01-.21c0-1.03-.29-1.2-.98-1.2h-.33v3.46h-.94v-7.89ZM36.17,82.52c.57,0,.75-.29.75-1.18s-.24-1.06-.84-1.06h-.48v2.24h.57Z"/><path class="cls-4" d="M38.69,79.18h.98v7.89h-.98v-7.89Z"/><path class="cls-4" d="M42.15,87.27c-.66,0-1.06-.25-1.38-1-.24-.56-.32-1.6-.32-3.14s.08-2.58.32-3.14c.32-.75.72-1,1.38-1s1.06.25,1.38,1c.24.56.32,1.6.32,3.14,0,1.66-.09,2.7-.32,3.14l.59.88-.5.76-.6-.9c-.25.19-.54.26-.87.26ZM42.1,85.6l.49-.75.21.33c.05-.54.07-1.11.07-1.76,0-2.26-.01-3.25-.71-3.25s-.7.91-.7,2.97.04,2.96.66,2.96c.08,0,.16-.02.27-.05l-.29-.44Z"/><path class="cls-4" d="M45.62,79.18v5.32c0,1.09.12,1.56.68,1.56s.66-.48.66-1.59v-5.3h.96v5.45c0,.76-.01,1.32-.26,1.81-.28.55-.74.83-1.38.83-1.25,0-1.64-.77-1.64-2.63v-5.45h.98Z"/><path class="cls-4" d="M48.81,79.18h2.69v1.31h-1.72v1.83h1.6v1.25h-1.6v2.17h1.77v1.33h-2.74v-7.89Z"/><path class="cls-4" d="M53.14,84.31v.5c0,.85.09,1.26.54,1.26.42,0,.63-.33.63-.93,0-.57-.2-.83-.6-1.26l-.5-.54c-.67-.7-1-1.11-1-2.23,0-1.32.56-2.12,1.47-2.12.97,0,1.51.82,1.51,2.32,0,.09,0,.19,0,.28h-.93v-.21c0-.84-.17-1.2-.6-1.2-.31,0-.5.29-.5.79s.24.73.61,1.11l.54.55c.69.69.98,1.23.98,2.38,0,1.43-.56,2.25-1.58,2.25s-1.56-.81-1.56-2.49c0-.15,0-.3.01-.47h.98Z"/></g><g id="Cadres"><path class="cls-1" d="M17.48,8.5h35.9c4.95,0,8.98,4.02,8.98,8.98v35.9c0,4.95-4.02,8.98-8.98,8.98H17.48c-4.95,0-8.98-4.02-8.98-8.98V17.48c0-4.95,4.02-8.98,8.98-8.98Z"/></g></svg>