<?xml version="1.0" encoding="UTF-8"?><svg xmlns="http://www.w3.org/2000/svg" viewBox="0 0 70.87 85.04"><defs><style>.cls-1{fill:none;}.cls-1,.cls-2{stroke:#086;}.cls-2{stroke-width:.99px;}.cls-2,.cls-3{fill:#086;}.cls-3{stroke-width:0px;}</style></defs><g id="Pictogrammes"><path class="cls-3" d="M18.61,76.79v-7.94h2.34v1.22h-1.44v1.96h1.33v1.22h-1.33v2.32h1.49v1.22h-2.39Z"/><path class="cls-3" d="M21.3,68.85h1.02l.61,2.61.6-2.61h.93l-1.07,3.93,1.09,4.02h-1.01l-.66-2.74-.66,2.74h-.93l1.11-4.16-1.03-3.78Z"/><path class="cls-3" d="M27.42,68.85v1.32h-1v6.62h-.9v-6.62h-1v-1.32h2.89Z"/><path class="cls-3" d="M27.84,76.79v-7.94h.9v7.94h-.9Z"/><path class="cls-3" d="M29.49,76.79v-7.94h1.21l1.14,5.5h.01v-5.5h.84v7.94h-1.18l-1.17-5.81h-.01v5.81h-.84Z"/><path class="cls-3" d="M33.4,72.82c0-2.1,0-4.1,1.48-4.1.91,0,1.28.94,1.25,2.64h-.88c0-1.06-.1-1.45-.37-1.45-.51,0-.57.88-.57,2.92s.06,2.92.57,2.92c.42,0,.4-.99.41-1.62h.88c0,2.12-.46,2.8-1.29,2.8-1.48,0-1.48-2.02-1.48-4.1Z"/><path class="cls-3" d="M39.3,68.85v1.32h-1v6.62h-.9v-6.62h-1v-1.32h2.89Z"/><path class="cls-3" d="M39.71,76.79v-7.94h2.34v1.22h-1.44v1.96h1.33v1.22h-1.33v2.32h1.49v1.22h-2.39Z"/><path class="cls-3" d="M45.57,68.85v5.63c0,1.19-.36,2.44-1.45,2.44-.99,0-1.46-.95-1.46-2.44v-5.63h.9v5.52c0,.98.23,1.37.55,1.37.39,0,.57-.48.57-1.37v-5.52h.9Z"/><path class="cls-3" d="M47.18,76.79h-.9v-7.94h1.66c.61,0,1,.73,1,2.08,0,1.01-.21,1.77-.8,1.95v.02c.2.04.78.13.78,1.56,0,.51.02,2,.1,2.33h-.88c-.12-.48-.09-1.02-.09-1.54,0-.95.05-1.75-.64-1.75h-.23v3.29ZM47.18,72.28h.4c.36,0,.46-.66.46-1.17,0-.76-.17-1.05-.46-1.05h-.4v2.21Z"/><path class="cls-3" d="M50.76,76.92c-1.11,0-1.32-1.21-1.27-2.58h.9c0,.76.02,1.4.51,1.4.3,0,.45-.36.45-.9,0-1.43-1.8-1.52-1.8-3.88,0-1.24.32-2.23,1.41-2.23.87,0,1.31.73,1.25,2.39h-.87c0-.59-.05-1.2-.41-1.2-.29,0-.46.3-.46.85,0,1.51,1.8,1.38,1.8,3.87,0,2.06-.81,2.3-1.5,2.3Z"/><path class="cls-1" d="M32.75,27.28s-10.78-13.22-3.55-14.81c3.19-.66,13.6,1.78,12.74,14.06"/><path class="cls-3" d="M41.59,38.35h-.03c-.92-.04-1.63-.84-1.56-1.77l.7-8.9c.07-.88.83-1.55,1.71-1.51h.03c.92.04,1.63.84,1.56,1.77l-.7,8.9c-.07.88-.83,1.55-1.71,1.51Z"/><line class="cls-1" x1="30.91" y1="26.16" x2="38.63" y2="26.16"/><path class="cls-1" d="M40.55,56.39s-.48.16-1.23-.09c-1.18-.41-1.63-1.06-2.74.19-.69.66-2.21,1.09-3.31.12-.33-.19-.86-1.44-2.74-.62-3.14,1.66-2.9-2.22-2.9-2.22v-23.48c.08-.88.49-1.56,4.08-2.31l.08-.5s1.96-.38,6.04,0v.38s4.25.5,4.25,2.5v23.55s.12,2.12-1.55,2.5Z"/><polygon class="cls-3" points="32.26 22.78 33.36 25.13 38.39 25.03 39.24 22.5 46.59 21.66 45.98 21.19 36.67 21.38 32.26 22.78"/><rect class="cls-2" x="30.41" y="35.8" width="8.93" height="6.42"/><rect class="cls-1" x="30.38" y="44.58" width="9" height="5.16"/></g><g id="Cadres"><path class="cls-1" d="M17.48,8.5h35.91c4.95,0,8.98,4.02,8.98,8.98v35.9c0,4.95-4.02,8.98-8.98,8.98H17.48c-4.95,0-8.98-4.02-8.98-8.98V17.48c0-4.95,4.02-8.98,8.98-8.98Z"/></g></svg>