<?xml version="1.0" encoding="UTF-8"?><svg xmlns="http://www.w3.org/2000/svg" viewBox="0 0 70.87 85.04"><defs><style>.cls-1{fill:none;stroke:#086;}.cls-2{fill:#086;stroke-width:0px;}</style></defs><g id="Pictogrammes"><path class="cls-2" d="M34.38,23.05c-.1-.62-1.03-6.06-2.05-7.58-1.23-1.84-3.69-2.82-4.69-3.15-.18-.06-.37-.01-.5.12-.32.32-2.54.84-3.59.84s-3.27-.52-3.59-.84c-.13-.13-.33-.18-.5-.12-1,.33-3.46,1.31-4.69,3.15-1.01,1.52-1.94,6.96-2.05,7.58-.04.21.07.42.27.52.04.02,1.11.54,2.68.54.33,0,.66-.03.99-.08v10.42c0,.16.08.32.22.41.07.05.71.45,2.39.75,1.3.24,4.29.32,4.29.32,5.02,0,6.61-1.02,6.68-1.07.14-.09.22-.25.22-.41v-10.42c.33.05.65.08.99.08,1.58,0,2.64-.52,2.68-.54.19-.1.3-.31.27-.52ZM23.55,14.27c.58,0,1.81-.18,2.83-.47-.63.81-1.6,1.46-2.83,1.46s-2.2-.65-2.83-1.46c1.02.29,2.25.47,2.83.47ZM31.43,23.13c-.33,0-.66-.04-.99-.09v-2.37c0-1.63.35-2.11.35-2.11,0,0,0,0,0,0,.19-.19.19-.5,0-.7-.19-.19-.5-.19-.7,0-.11.11-.64.74-.64,2.81v13.49c-.55.23-2.5.79-5.85.83,0,0-2.79-.1-4.36-.4-.85-.16-1.37-.33-1.61-.43v-13.49c0-2.07-.53-2.7-.64-2.81-.19-.19-.51-.2-.71-.01s-.2.49,0,.69c0,0,.37.48.37,2.14v2.37c-.32.05-.65.09-.99.09-.85,0-1.53-.18-1.91-.31.33-1.85,1.12-5.75,1.83-6.81.93-1.39,2.78-2.24,3.75-2.61.66,1.44,2.16,2.82,4.21,2.82s3.55-1.39,4.21-2.82c.97.37,2.82,1.22,3.75,2.61.71,1.06,1.5,4.96,1.83,6.81-.38.13-1.05.31-1.91.31Z"/><path class="cls-2" d="M34.37,52.12c.04-.82.05-2.21-.24-3.32.04-.13.04-.27,0-.4-.05-.17-.1-.32-.16-.47-.12-.3-.43-.48-.75-.44-.92.11-1.8.17-2.63.19l2.64-1.6c.34-.2.46-.64.26-.98l-.23-.41c-.08-.14-.26-.19-.4-.11s-.19.26-.11.4l.23.41c.04.06.01.14-.05.18,0,0,0,0,0,0l-3.44,2.08s0,0,0,0c-.99-.04-1.89-.15-2.69-.34,2.87-2.85,4.48-3.76,5-4l.23.41c.08.14.26.19.4.11.14-.08.19-.26.11-.4l-.27-.47c-.11-.2-.34-.29-.55-.24-.38-.74-1.06-1.94-1.87-2.76-.03-.13-.1-.25-.2-.35-.12-.12-.25-.23-.37-.33-.25-.2-.61-.2-.87,0-2.14,1.61-4.2,2.7-5.95,3.16-.45.12-.82.44-.99.87l-.22.54c-.12,0-.23.09-.26.22-.02.1,0,.19.06.26l-.2.5c-.14,0-.27.08-.3.22-.03.11.01.22.09.29l-.19.48c-.15-.03-.3.06-.34.22-.03.12.02.25.12.31l-.3.74c-.1.25-.05.54.13.75.01.01.02.02.03.03-.89,1.39-1.97,2.65-3.19,3.74-.4.35-.64.74-.72,1.16-.26.18-.45.42-.58.71-.17.03-.34.1-.48.21-.23.19-.36.47-.36.77,0,.47.33.88.79.97.82.17,2.49.46,4.55.55.38.02.75.02,1.12.02,2.09,0,4.01-.25,5.75-.73.59-.17,1.16-.32,1.71-.45v.21c0,.4.32.72.72.72h2.2c.16,0,.29-.13.29-.29s-.13-.29-.29-.29h-2.2c-.07,0-.13-.06-.13-.13v-.58c0-.09-.04-.17-.11-.23-.07-.06-.16-.08-.25-.06-.66.16-1.37.34-2.09.54-1.98.56-4.23.79-6.69.69-2.02-.08-3.65-.37-4.45-.54-.19-.04-.33-.21-.33-.4,0-.12.05-.24.15-.31.09-.08.22-.11.34-.09.46.09,1.21.22,2.12.32.16.02.31-.1.32-.26.02-.16-.1-.31-.26-.32-.72-.08-1.34-.18-1.78-.26.09-.13.2-.24.34-.33.02-.01.04-.02.06-.04.16-.09.35-.16.57-.21,1.62-.34,3.19-.89,4.67-1.64.15.48.33.93.45,1.2.12.27.38.43.66.43.05,0,.1,0,.15-.02l.79-.17c.33-.07.56-.35.57-.69.01-.58.3-1.15.8-1.62.69-.64,1.67-.99,2.64-.95,1.49.07,4.2.14,5.69-.26,0,0,0,0,0,0,.03.15.05.3.07.45-.92.05-1.69.4-2.28,1.02-.51.54-.8,1.19-.95,1.67-1,.19-2.21.47-3.67.88-2.17.61-4.65.83-7.38.65-.16-.01-.3.11-.31.27s.11.3.27.31c2.79.18,5.34-.04,7.58-.67,1.17-.33,5.11-1.38,7.17-1.19v2.38c0,.07-.06.13-.13.13h-.96c-.16,0-.29.13-.29.29s.13.29.29.29h.96c.4,0,.72-.32.72-.72v-2.45c0-.23-.15-.42-.36-.48h0ZM29.07,43.13c.17-.69.59-1.25,1.23-1.67.37.55.68,1.11.89,1.52-.47.26-1.18.72-2.17,1.53-.06-.4-.08-.88.04-1.38h0ZM22.62,43.01c1.82-.48,3.95-1.61,6.15-3.26.05-.04.11-.04.16,0,.11.08.21.18.32.28.03.03.04.07.04.1,0,.02,0,.06-.04.09-.45.44-1.64,1.42-4.66,2.96-1,.51-1.79,1.44-2.11,2.49-.25.81-.19,1.61.17,2.26.03.05.02.12-.03.17l-.6.55s-.12.05-.17,0c-.33-.24-.93-.71-1.35-1.19-.03-.04-.04-.09-.03-.14l.32-.8.16.04s.05,0,.07,0c.13,0,.25-.09.28-.22.04-.16-.06-.32-.21-.35l-.08-.02.18-.45.19.05s.05,0,.07,0c.13,0,.25-.09.28-.22.04-.16-.06-.32-.21-.35l-.11-.03.18-.45.23.06s.05,0,.07,0c.13,0,.25-.09.28-.22.04-.16-.06-.32-.21-.35l-.15-.04.18-.45c.11-.26.33-.46.6-.53h0ZM17.09,52.42s-.09.02-.13.03c.09-.13.2-.26.34-.38,1.23-1.1,2.32-2.36,3.22-3.75.36.34.75.64.99.81.13.09.28.14.43.14.17,0,.35-.06.48-.19l.6-.55c.25-.23.31-.59.15-.88-.28-.51-.32-1.15-.12-1.8.28-.9.95-1.7,1.81-2.14,1.32-.68,3.71-1.98,4.8-3.07,0,0,0,0,0,0,.1.11.2.23.29.35-.76.5-1.25,1.17-1.46,2-.18.74-.1,1.45,0,1.95-.69.59-1.49,1.33-2.4,2.26-.32,0-.65.11-.91.31l-.46.36c-.11-.05-.25-.03-.34.06-.07.07-.09.17-.08.26l-.43.33c-.11-.08-.27-.06-.37.04-.08.08-.1.2-.07.3l-.41.32c-.12-.1-.29-.09-.4.02-.09.09-.11.23-.05.33l-.63.49c-.22.17-.32.44-.26.71,0,.02,0,.03,0,.05-1.47.76-3.03,1.31-4.64,1.65h0ZM33.49,48.71c-.61.16-2.13.41-5.51.24-1.12-.06-2.27.36-3.07,1.1-.62.58-.97,1.3-.98,2.04,0,.06-.05.11-.11.13l-.79.17c-.06.01-.12-.02-.15-.08-.16-.37-.45-1.09-.58-1.7-.01-.05,0-.1.05-.13l.68-.53.12.11c.06.06.13.08.2.08s.15-.03.21-.09c.11-.12.11-.3,0-.41l-.06-.06.38-.3.14.14c.06.06.13.08.2.08s.15-.03.21-.09c.11-.12.11-.3,0-.41l-.08-.08.38-.3.17.16c.06.06.13.08.2.08s.15-.03.21-.09c.11-.12.11-.3,0-.41l-.11-.11.39-.3c.16-.12.35-.19.55-.19.08,0,.16.01.23.03,1.82.49,4.22.58,6.96.26.06,0,.12.03.14.08.05.12.1.26.14.4.01.05,0,.08-.01.1-.01.02-.03.05-.08.06h0ZM31.15,52.31c.14-.37.37-.79.71-1.15.49-.52,1.14-.8,1.92-.84.05.66.04,1.3.01,1.76-.54,0-1.39.03-2.64.24h0Z"/><path class="cls-2" d="M58.29,25.93c-.1-.6-1.01-5.95-2.01-7.44-1.2-1.81-3.62-2.76-4.6-3.09-.17-.06-.36-.01-.49.12-.32.32-2.49.83-3.53.83s-3.21-.51-3.53-.83c-.13-.13-.32-.17-.49-.12-.98.33-3.4,1.28-4.6,3.09-1,1.49-1.91,6.84-2.01,7.44-.03.21.07.42.26.51.04.02,1.09.53,2.63.53.32,0,.65-.03.97-.08v10.23c0,.16.08.31.22.4.07.04.7.44,2.34.73.25.05.48-.11.55-.34l.74-2.59c.05-.17,0-.35-.12-.47l-.63-.63.63-.63c.05-.05.09-.12.12-.19l.65-1.96,1.12,1.68-1.05.7c-.13.09-.21.23-.22.38,0,.15.06.3.18.4l2.11,1.69-.79,1.58c-.07.15-.07.33.02.47.09.14.24.23.41.23h.49c4.92,0,6.49-1,6.55-1.04.13-.09.22-.24.22-.4v-10.23c.32.04.64.08.97.08,1.55,0,2.59-.51,2.63-.53.19-.09.3-.3.26-.51ZM47.66,17.31c.57,0,1.78-.18,2.78-.46-.62.8-1.57,1.43-2.78,1.43s-2.16-.63-2.78-1.43c1,.28,2.21.46,2.78.46ZM55.4,26.01c-.33,0-.65-.04-.97-.09v-2.33c0-1.6.35-2.08.34-2.08,0,0,0,0,0,0,.19-.19.19-.49,0-.68-.19-.19-.49-.19-.68,0-.1.1-.63.73-.63,2.76v13.24c-.54.23-2.12.75-5.5.78l.62-1.23c.1-.2.05-.45-.13-.59l-1.9-1.52.9-.6c.22-.15.28-.45.13-.67l-1.93-2.9c-.1-.15-.28-.24-.47-.21-.18.02-.34.15-.39.33l-.93,2.79-.89.89c-.19.19-.19.49,0,.68l.77.77-.54,1.89c-.68-.14-1.1-.3-1.33-.4v-13.24c0-2.03-.52-2.65-.63-2.76-.19-.19-.51-.2-.69-.01s-.2.48,0,.67c0,0,.36.47.36,2.1v2.33c-.32.05-.64.09-.97.09-.84,0-1.5-.18-1.87-.3.32-1.81,1.1-5.64,1.79-6.68.91-1.36,2.73-2.2,3.68-2.56.65,1.41,2.12,2.77,4.14,2.77s3.48-1.36,4.14-2.77c.95.36,2.77,1.19,3.68,2.56.69,1.04,1.47,4.87,1.79,6.68-.37.13-1.03.3-1.87.3Z"/><path class="cls-2" d="M22.85,69.98h-1.18v-1.3h3.4v1.3h-1.18v6.59h-1.03v-6.59Z"/><path class="cls-2" d="M25.61,68.68h2.84v1.31h-1.82v1.83h1.69v1.25h-1.69v2.17h1.86v1.33h-2.88v-7.89Z"/><path class="cls-2" d="M30.19,72.54l-1.29-3.86h1.16l.74,2.49.75-2.49h1.15l-1.33,3.86,1.37,4.03h-1.16l-.8-2.64-.82,2.64h-1.12l1.35-4.03Z"/><path class="cls-2" d="M34.06,69.98h-1.18v-1.3h3.4v1.3h-1.18v6.59h-1.03v-6.59Z"/><path class="cls-2" d="M36.81,68.68h1.03v7.89h-1.03v-7.89Z"/><path class="cls-2" d="M38.78,68.68h1.03v6.55h1.86v1.34h-2.89v-7.89Z"/><path class="cls-2" d="M42.37,68.68h2.84v1.31h-1.82v1.83h1.69v1.25h-1.69v2.17h1.86v1.33h-2.88v-7.89Z"/><path class="cls-2" d="M46.94,73.8v.5c0,.85.1,1.26.57,1.26.44,0,.67-.33.67-.93,0-.57-.21-.83-.63-1.26l-.53-.54c-.71-.7-1.05-1.11-1.05-2.23,0-1.32.59-2.12,1.55-2.12,1.02,0,1.59.82,1.59,2.32,0,.09,0,.19,0,.28h-.98v-.21c0-.84-.18-1.2-.63-1.2-.33,0-.53.29-.53.79s.25.73.65,1.11l.57.55c.73.69,1.04,1.23,1.04,2.38,0,1.43-.59,2.25-1.66,2.25s-1.65-.81-1.65-2.49c0-.15,0-.3.01-.47h1.03Z"/><path class="cls-2" d="M48,57.39c-.27,0-.55-.05-.8-.16l-8.07-3.46c-.51-.22-.87-.62-.99-1.11-.11-.46.01-.93.32-1.29l.37.32c-.21.25-.29.56-.22.87.08.34.33.61.7.77l8.07,3.46c.38.16.84.16,1.22,0l8.07-3.46c.37-.16.62-.43.7-.77.07-.3,0-.62-.21-.86l.37-.31c.31.37.42.84.31,1.29-.12.48-.47.89-.98,1.1l-8.07,3.46c-.26.11-.53.16-.8.16Z"/><path class="cls-2" d="M57.66,51.53s-.07.1-.11.15c-.07.08-.15.16-.24.22-.12.11-.26.19-.42.26l-8.08,3.46c-.25.11-.52.16-.8.16s-.55-.05-.8-.16l-7.03-3.01-.42-.18c-.12-.06-.18-.2-.12-.32.05-.13.19-.18.32-.13l.42.18,7.02,3.01c.38.17.84.17,1.22,0l8.07-3.46c.2-.08.36-.2.49-.34.21-.25.29-.56.22-.87-.07-.32-.29-.57-.63-.72-.03-.03-.05-.04-.08-.05h0c-.13-.06-.18-.2-.13-.33.02-.05.05-.08.09-.1.07-.05.15-.06.23-.02h.01c.14.06.27.13.38.22.31.23.52.53.6.89.1.4.02.8-.21,1.14Z"/><path class="cls-2" d="M40.5,52.48c-.04.09-.13.15-.22.15-.03,0-.06,0-.1-.02l-.42-.18-.62-.27c-.16-.07-.31-.16-.44-.26-.09-.07-.16-.15-.23-.23-.04-.05-.08-.11-.11-.16-.23-.33-.29-.74-.2-1.13.08-.35.29-.65.59-.87.11-.09.25-.17.39-.23.06-.02.12-.02.18,0l.05.02s.07.06.09.11c.05.12-.01.27-.13.32-.03.01-.06.03-.09.05-.32.16-.54.41-.61.72-.07.3,0,.61.21.86.13.15.29.27.49.35l.63.27.42.18c.12.05.18.2.12.32Z"/><path class="cls-2" d="M57.9,48.29c0,.47-.23.91-.63,1.21-.12.09-.25.17-.39.23l-.11.05-.79.33s0,.01,0,.01l-1.72.73s-.07.02-.1.02c-.09,0-.18-.05-.22-.14-.06-.13,0-.27.13-.32l1.72-.74.87-.37.03-.02c.46-.2.73-.57.73-.99s-.27-.8-.73-1l-2.13-.91-1.55-.67-4.39-1.88c-.38-.16-.83-.16-1.22,0l-1.42.61-.56.24c-.08.03-.16.02-.23-.02-.04-.02-.07-.06-.09-.11-.05-.12.01-.26.13-.32l.09-.04,1.89-.81c.5-.21,1.1-.21,1.61,0l8.07,3.46c.63.28,1.02.83,1.02,1.45Z"/><path class="cls-2" d="M57.4,50.5c.07.31-.01.62-.22.87-.13.14-.29.26-.49.34l-8.07,3.46c-.38.17-.84.17-1.22,0l-7.02-3.01-.42-.18-.63-.27c-.2-.08-.36-.2-.49-.35-.21-.25-.28-.56-.21-.86.07-.31.29-.56.61-.72l7.96,3.41c.25.1.53.16.8.16s.55-.06.81-.16l7.16-3.07s0,0,0-.01l.79-.33c.34.15.56.4.63.72Z"/><path class="cls-2" d="M56.1,49.8c.05.12-.01.25-.12.31,0,.01,0,.01,0,.01l-7.16,3.07c-.26.1-.53.16-.81.16s-.55-.06-.8-.16l-7.96-3.41-.11-.05c-.14-.06-.27-.13-.38-.22-.4-.3-.64-.74-.64-1.22,0-.62.39-1.17,1.02-1.45l4.85-2.07.06-.03c.12-.05.26.01.32.13.03.07.02.15,0,.21l-.06.07s-.04.03-.06.04l-.84.36-4.07,1.74c-.45.2-.73.57-.73,1s.28.79.73.99l.05.02,8.02,3.44c.39.16.84.16,1.22,0l5.45-2.33,1.72-.74c.12-.06.26,0,.32.13Z"/><path class="cls-2" d="M42.45,47.46c-.09,0-.17-.05-.21-.12-.05-.08-.04-.19.02-.26l2.26-3.01c.07-.09.19-.12.29-.08.02.01,2.33,1.01,4.01,1.21l5.71.7c.12.02.22.12.21.25,0,.12-.1.23-.22.24l-12.04,1.07s-.01,0-.02,0ZM44.78,44.51l-1.81,2.42,9.22-.82-3.44-.42c-1.49-.18-3.38-.93-3.97-1.18Z"/></g><g id="Cadres"><path class="cls-1" d="M17.48,8.5h35.91c4.95,0,8.98,4.02,8.98,8.98v35.9c0,4.95-4.02,8.98-8.98,8.98H17.48c-4.95,0-8.98-4.02-8.98-8.98V17.48c0-4.95,4.02-8.98,8.98-8.98Z"/></g></svg>