<?xml version="1.0" encoding="UTF-8"?><svg xmlns="http://www.w3.org/2000/svg" viewBox="0 0 70.87 95.67"><defs><style>.cls-1,.cls-2,.cls-3{stroke:#086;}.cls-1,.cls-4{fill:none;}.cls-2{stroke-width:.25px;}.cls-2,.cls-5,.cls-3{fill:#086;}.cls-4,.cls-5{stroke-width:0px;}.cls-3{stroke-width:.85px;}</style></defs><g id="Pictogrammes"><rect class="cls-1" x="37.04" y="34.14" width="19.45" height="23.17" rx="1.19" ry="1.19"/><path class="cls-1" d="M54.81,36.44c0,.83-.67,1.5-1.5,1.5s-1.5-.67-1.5-1.5.67-1.5,1.5-1.5,1.5.67,1.5,1.5Z"/><path class="cls-3" d="M50.36,36.4c0,.34-.27.61-.59.61s-.59-.27-.59-.61.27-.61.59-.61.59.27.59.61Z"/><path class="cls-2" d="M43.6,37.43h-4.99c-.24,0-.44-.2-.44-.44v-1.24c0-.24.2-.44.44-.44h4.99c.24,0,.44.2.44.44v1.24c0,.24-.2.44-.44.44ZM38.61,35.44c-.17,0-.31.14-.31.31v1.24c0,.17.14.31.31.31h4.99c.17,0,.31-.14.31-.31v-1.24c0-.17-.14-.31-.31-.31h-4.99Z"/><path class="cls-1" d="M46.85,53.88c-3.67,0-6.66-3-6.66-6.68s2.99-6.68,6.66-6.68,6.66,3,6.66,6.68-2.99,6.68-6.66,6.68ZM46.85,40.62c-3.62,0-6.56,2.95-6.56,6.58s2.94,6.58,6.56,6.58,6.56-2.95,6.56-6.58-2.94-6.58-6.56-6.58Z"/><path class="cls-1" d="M46.89,52.16c-2.74,0-4.96-2.23-4.96-4.96s2.23-4.96,4.96-4.96,4.96,2.23,4.96,4.96-2.23,4.96-4.96,4.96Z"/><path class="cls-1" d="M37.3,40.61l-.07-.1s3.13-2.19,9.53-2.19,9.5,2.17,9.53,2.19l-.07.1s-3.1-2.17-9.46-2.17-9.43,2.15-9.46,2.17Z"/><rect class="cls-1" x="13.34" y="13.01" width="18.64" height="44.18" rx="1.48" ry="1.48"/><rect class="cls-1" x="13.57" y="38.23" width="18.21" height=".63"/><path class="cls-4" d="M20.51,36.8h0c0,.17-.13.31-.28.31h-5.35c-.16,0-.28-.14-.28-.31h0c0-.17.13-.31.28-.31h5.35c.16,0,.28.14.28.31Z"/><rect class="cls-1" x="13.64" y="14.52" width="18.22" height=".05"/><path class="cls-4" d="M26.61,14.57c0,.17-.13.31-.28.31s-.28-.14-.28-.31.13-.31.28-.31.28.14.28.31Z"/><path class="cls-4" d="M27.49,14.57c0,.17-.13.31-.28.31s-.28-.14-.28-.31.13-.31.28-.31.28.14.28.31Z"/><path class="cls-4" d="M28.35,14.57c0,.17-.13.31-.28.31s-.28-.14-.28-.31.13-.31.28-.31.28.14.28.31Z"/><rect class="cls-4" x="35.21" y="21.44" width="15.93" height="9.35" rx=".68" ry=".68"/><path class="cls-5" d="M20.55,40.28h0c0,.16-.13.28-.28.28h-5.35c-.16,0-.28-.13-.28-.28h0c0-.16.13-.28.28-.28h5.35c.16,0,.28.13.28.28Z"/><path class="cls-5" d="M51.35,18.95h-10.51c-.17.01-.31.15-.31.32v.16c0,.05.04.1.1.1h10.93c.05-.01.1-.06.1-.11v-.16c0-.17-.14-.31-.31-.31Z"/><path class="cls-5" d="M56.95,12.4c-.11-.16-.27-.36-.48-.52-.38-.28-.88-.37-1.58-.31-.38.03-.75.1-1.11.2-.06-.07-.16-.11-.26-.09l-.51.09c-.03-.08-.05-.12-.05-.12,0,0-8.36.26-12.03,7.05h10.68s1.67-1.35,2.72-1.31c.82.03-.48-3.49-1.08-5.03l.39-.07c.14-.02.24-.15.23-.29.35-.09.7-.15,1.06-.18.64-.06,1.09.03,1.42.27.18.13.32.32.42.46.54.78.75,1.65.58,2.4l.23.05c.18-.82-.04-1.76-.62-2.59ZM52.77,15.71c-.03.26-.53.71-.8.71-.58,0-2.26,0-2.26,0,0-.01,0-.03,0-.04,0-.14-.11-.25-.25-.25h-1.57c-.14,0-.25.11-.25.25,0,.01,0,.03,0,.04h-2.67s.15-.25.21-.33c1.14-1.47,2.8-2.94,6.82-2.94.46,1.47.84,1.91.76,2.55Z"/><path class="cls-5" d="M19.23,68.18h1.38l1.26,7.89h-1.11l-.27-1.98h-1.18l-.26,1.98h-1.05l1.24-7.89ZM20.35,72.91l-.44-3.31-.43,3.31h.88Z"/><path class="cls-5" d="M22.42,68.18h1.79c1.08,0,1.54.63,1.54,2.24s-.51,2.31-1.55,2.31h-.75v3.35h-1.02v-7.89ZM23.84,71.64c.62,0,.87-.29.87-1.19,0-.94-.24-1.17-.85-1.17h-.45v2.35h.43Z"/><path class="cls-5" d="M26.42,68.18h1.79c1.08,0,1.54.63,1.54,2.24s-.51,2.31-1.55,2.31h-.75v3.35h-1.02v-7.89ZM27.85,71.64c.62,0,.87-.29.87-1.19,0-.94-.24-1.17-.85-1.17h-.45v2.35h.43Z"/><path class="cls-5" d="M30.93,68.18h1.38l1.26,7.89h-1.11l-.27-1.98h-1.18l-.27,1.98h-1.05l1.24-7.89ZM32.04,72.91l-.44-3.31-.43,3.31h.88Z"/><path class="cls-5" d="M34.11,68.18h1.85c1.11,0,1.57.6,1.57,2.07,0,1.03-.27,1.63-.78,1.73.76.28.74.85.77,1.87l.03,1.05c.01.51.07.88.28,1.18h-1.22c-.07-.34-.09-.73-.1-1.23v-.83s-.01-.21-.01-.21c0-1.03-.3-1.2-1.04-1.2h-.35v3.46h-.99v-7.89ZM35.7,71.52c.6,0,.79-.29.79-1.18s-.26-1.06-.88-1.06h-.51v2.24h.6Z"/><path class="cls-5" d="M38.35,68.18h2.84v1.31h-1.82v1.83h1.69v1.25h-1.69v2.17h1.86v1.33h-2.88v-7.89Z"/><path class="cls-5" d="M41.99,68.18h1.03v7.89h-1.03v-7.89Z"/><path class="cls-5" d="M43.96,68.18h1.03v6.55h1.86v1.34h-2.89v-7.89Z"/><path class="cls-5" d="M48.47,73.31v.5c0,.85.1,1.26.57,1.26.44,0,.67-.33.67-.93,0-.57-.21-.83-.63-1.26l-.53-.54c-.71-.7-1.05-1.11-1.05-2.23,0-1.32.59-2.12,1.55-2.12,1.02,0,1.59.82,1.59,2.32,0,.09,0,.19,0,.28h-.98v-.21c0-.84-.18-1.2-.63-1.2-.33,0-.53.29-.53.79s.25.73.65,1.11l.57.55c.73.69,1.04,1.23,1.04,2.38,0,1.43-.59,2.25-1.66,2.25s-1.65-.81-1.65-2.49c0-.15,0-.3.01-.47h1.03Z"/><path class="cls-5" d="M15.4,79.18h2.84v1.31h-1.82v1.83h1.69v1.25h-1.69v2.17h1.86v1.33h-2.88v-7.89ZM16.91,77.06h.92l-1.1,1.46h-.45l.62-1.46Z"/><path class="cls-5" d="M19.04,79.18h1.03v6.55h1.86v1.34h-2.89v-7.89Z"/><path class="cls-5" d="M22.62,79.18h2.84v1.31h-1.82v1.83h1.69v1.25h-1.69v2.17h1.86v1.33h-2.88v-7.89Z"/><path class="cls-5" d="M29.46,84.27c0,.1,0,.2,0,.3,0,1.83-.53,2.7-1.64,2.7-.51,0-.89-.18-1.17-.6-.47-.69-.51-1.83-.51-3.63,0-1.51.07-2.51.28-3.01.3-.73.73-1.03,1.4-1.03,1.13,0,1.6.8,1.61,2.63h-1v-.19c0-.85-.19-1.27-.59-1.27-.64,0-.64.83-.64,2.84,0,2.21,0,3.06.63,3.06.49,0,.62-.49.62-1.7v-.1h1Z"/><path class="cls-5" d="M31.08,80.49h-1.18v-1.3h3.4v1.3h-1.18v6.59h-1.03v-6.59Z"/><path class="cls-5" d="M33.83,79.18h1.85c1.11,0,1.57.6,1.57,2.07,0,1.03-.27,1.63-.78,1.73.76.28.74.85.77,1.87l.03,1.05c.01.51.07.88.28,1.18h-1.22c-.07-.34-.09-.73-.1-1.23v-.83s-.01-.21-.01-.21c0-1.03-.3-1.2-1.04-1.2h-.35v3.46h-.99v-7.89ZM35.42,82.52c.6,0,.79-.29.79-1.18s-.26-1.06-.88-1.06h-.51v2.24h.6Z"/><path class="cls-5" d="M38.07,79.18h1.03v7.89h-1.03v-7.89Z"/><path class="cls-5" d="M41.73,87.27c-.7,0-1.12-.25-1.46-1-.25-.56-.34-1.6-.34-3.14s.09-2.58.34-3.14c.34-.75.76-1,1.46-1s1.12.25,1.46,1c.25.56.34,1.6.34,3.14,0,1.66-.1,2.7-.34,3.14l.62.88-.52.76-.63-.9c-.26.19-.57.26-.92.26ZM41.67,85.6l.51-.75.22.33c.05-.54.07-1.11.07-1.76,0-2.26-.01-3.25-.75-3.25s-.74.91-.74,2.97.04,2.96.7,2.96c.08,0,.17-.02.29-.05l-.3-.44Z"/><path class="cls-5" d="M45.39,79.18v5.32c0,1.09.12,1.56.71,1.56s.7-.48.7-1.59v-5.3h1.01v5.45c0,.76-.01,1.32-.27,1.81-.29.55-.78.83-1.46.83-1.32,0-1.73-.77-1.73-2.63v-5.45h1.03Z"/><path class="cls-5" d="M48.74,79.18h2.84v1.31h-1.82v1.83h1.69v1.25h-1.69v2.17h1.86v1.33h-2.88v-7.89Z"/><path class="cls-5" d="M53.31,84.31v.5c0,.85.1,1.26.57,1.26.44,0,.67-.33.67-.93,0-.57-.21-.83-.63-1.26l-.53-.54c-.71-.7-1.05-1.11-1.05-2.23,0-1.32.59-2.12,1.55-2.12,1.02,0,1.59.82,1.59,2.32,0,.09,0,.19,0,.28h-.98v-.21c0-.84-.18-1.2-.63-1.2-.33,0-.53.29-.53.79s.25.73.65,1.11l.57.55c.73.69,1.04,1.23,1.04,2.38,0,1.43-.59,2.25-1.66,2.25s-1.65-.81-1.65-2.49c0-.15,0-.3.01-.47h1.03Z"/></g><g id="Cadres"><path class="cls-1" d="M17.48,8.5h35.91c4.95,0,8.98,4.02,8.98,8.98v35.9c0,4.95-4.02,8.98-8.98,8.98H17.48c-4.95,0-8.98-4.02-8.98-8.98V17.48c0-4.95,4.02-8.98,8.98-8.98Z"/></g></svg>