<?xml version="1.0" encoding="UTF-8"?>
<svg xmlns="http://www.w3.org/2000/svg" viewBox="9 9 53 53" color="#086">
  <defs>
    <style>
      .cls-1 {
        fill: currentColor;
      }

      .cls-1, .cls-2 {
        stroke-width: 0px;
      }

      .cls-2 {
        fill: #fff;
      }
    </style>
  </defs>
  <g id="Pictogrammes">
    <g>
      <path class="cls-1" d="M62.69,16.05c-.07-.35-.15-.69-.26-1.03-.07-.25-.16-.5-.26-.74-.86-2.1-2.44-3.83-4.44-4.87-.18-.09-.36-.18-.55-.26-.23-.1-.46-.19-.7-.27-.97-.34-2.01-.52-3.09-.52H17.48c-5.22,0-9.48,4.25-9.48,9.48v35.9c0,5.23,4.26,9.48,9.48,9.48h35.91c5.22,0,9.47-4.25,9.47-9.48V17.84c0-.61-.06-1.21-.17-1.79ZM61.86,53.73c0,4.68-3.8,8.48-8.47,8.48H17.48c-4.67,0-8.48-3.8-8.48-8.48V17.84c0-4.68,3.81-8.48,8.48-8.48h35.91c.21,0,.41,0,.61.02,4.09.3,7.38,3.5,7.81,7.55.01.09.02.18.03.27,0,.1,0,.19,0,.28,0,.12,0,.24,0,.36v35.9Z"/>
      <path class="cls-1" d="M39.65,26.39l-1.37,1.84-2.11-2.1-.18-.19-1.56,1.55c0-.58.04-1.45.28-1.97.08-.16.15-.34.23-.54.34-.81.76-1.83,1.43-2.06.66-.24,1.68-.58,2.22-.75-.03.62-.04,1.84.22,2.61.28.82.66,1.38.84,1.61Z"/>
      <path class="cls-1" d="M61.86,17.84v35.9c0,4.68-3.8,8.48-8.47,8.48H17.48c-4.67,0-8.48-3.8-8.48-8.48V17.84c0-4.68,3.81-8.48,8.48-8.48h34.86l-17.16,6.69c-1.39.47-2.34,1.27-2.82,2.36-.26.59-3.13,7.37-3.16,7.45-.46,1.17-.47,2.17-.02,2.96.4.71,1.19,1.98,1.49,2.44l-12.43,12.43-2.97-2.97v10.97s10.98,0,10.98,0l-2.96-2.97,9.09-9.09v12.42h-4.21l7.77,7.75,7.77-7.75h-4.2v-12.5l9.18,9.18-2.97,2.98h10.97s.01-10.99.01-10.99l-2.97,2.97-7.26-7.26c.16.03.33.05.51.05h.08c.64-.02,1.23-.29,1.67-.75.44-.47.67-1.08.65-1.72l-.21-5.74c1.51-.61,3.1-1.35,4.22-2.03,2.25-1.36,3.54-3.9,3.48-6.81l4.98-1.96c0,.12,0,.24,0,.36Z"/>
    </g>
    <g>
      <g>
        <path class="cls-2" d="M44.87,34.84c0,.11-.01.21-.03.31v.03c0,.1-.04.19-.07.29l-2.95-2.95-1.23,1.66-.02-.41v-.42s.88-1.2.88-1.2l.16-.21.15-.21.14-.18c.9-1.18,1.86-1.8,2.54-2.11.08-.04.16-.08.24-.11v.28s.02.27.02.27c-.08.04-.16.07-.24.12-.6.31-1.39.87-2.14,1.86l-.18.25,2.51,2.51.22.22Z"/>
        <path class="cls-1" d="M44.89,34.48l-.3-.3c0,.15.03.29.06.43l-2.51-2.51.18-.25c.75-.99,1.54-1.55,2.14-1.86v.29c.1-.05.19-.1.27-.13.03-.02.05-.03.08-.04l.16-.08v-.27s-.02-.26-.02-.26v-.27s-.01,0-.01,0c-.07.02-.16.05-.26.1-.08.03-.16.07-.24.11-.68.31-1.64.93-2.54,2.11l-.14.18-.15.21-.16.21-.89,1.2-.25.33.02.41.02.42.24-.33,1.23-1.66,2.95,2.95.21.21.05-.17s0-.01,0-.02c0-.03,0-.06.02-.09.02-.06.03-.12.04-.17,0-.04,0-.08,0-.12t.01-.02c0-.08,0-.16,0-.25v-.11l-.24-.24ZM41.95,31.91l-.15.21h0l.16-.21Z"/>
      </g>
      <g>
        <path class="cls-2" d="M39.25,52.31v-13.75l-.26-.26-1.42-1.42h.02c.53-.08,1.01-.31,1.4-.66.09-.08.18-.17.26-.26v-.85l-.26.35-.04.05c-.35.47-.86.77-1.44.85-.15.02-.3.03-.44.02-.15,0-.3-.03-.44-.08h0c-.23-.05-.43-.15-.63-.28-.02,0-.04-.02-.05-.04l-.32-.32-.18-.17s0-.02-.02-.03c-.14-.2-.25-.42-.31-.67-.03-.09-.05-.18-.06-.28,0-.06-.02-.11-.02-.17-.04-.51.11-1.03.43-1.44l.68-.92.2-.26h-.65l-.2.26-.45.61c-.28.37-.45.8-.51,1.25-.02.11-.03.23-.03.34,0,.13,0,.26.03.39v.02c.08.56.33,1.06.71,1.46l-2.35,2.34-.25.25v13.67h-3.84l7.14,7.12,7.14-7.12h-3.83ZM29.43,52.57h3.46v-13.45l2.73-2.73c.37.26.78.43,1.21.48l2.16,2.16v13.54h3.46l-6.51,6.5-6.51-6.5Z"/>
        <path class="cls-1" d="M35.88,31.47l-.19.26-.2.26h.65l.2-.26.19-.26h-.65ZM39.51,52.06v-13.23l-.26-.26-.26-.26v14.27h3.46l-6.51,6.5-6.51-6.5h3.46v-14.18l-.25.25-.26.26v13.15h-4.21l7.77,7.75,7.77-7.75h-4.2ZM39.25,35.11l-.26.35v.76c.09-.08.18-.17.26-.26.04-.04.07-.09.11-.14l.15-.2v-.86l-.26.35Z"/>
      </g>
      <g>
        <g>
          <path class="cls-2" d="M53.73,44.06l-8.85-8.85-.04-.04-2.86-2.87-.18-.18h0l-.18-.19-.16.21-.89,1.2-.25.33-.8,1.09-.26.35-.26.35-.04.05c-.35.47-.86.77-1.44.85-.15.02-.3.03-.44.02-.15,0-.3-.03-.44-.08l.32.33,2.04,2.04.26.26.26.26,9.55,9.54-2.71,2.72h10.08s0-10.1,0-10.1l-2.71,2.71ZM56.17,51.18h-9.2s2.46-2.45,2.46-2.45l-9.92-9.91-.26-.26-.26-.26-1.42-1.42h.02c.53-.08,1.01-.31,1.4-.66.09-.08.18-.17.26-.26.04-.04.07-.09.11-.14l.15-.2.84-1.12.24-.33,1.23-1.66,2.95,2.95,8.78,8.78.18.19,2.45-2.45v9.2ZM35.99,26.31l-1.55,1.55-3.13,3.13.18.18.19-.18,4.31-4.31,1.98,1.98-2.09,2.8-.19.26-.2.26-.45.61c-.28.37-.45.8-.51,1.25-.02.11-.03.23-.03.34l.28.28.33.33c-.03-.09-.05-.18-.06-.28,0-.06-.02-.11-.02-.17-.04-.51.11-1.03.43-1.44l.68-.92.2-.26.19-.26,1.81-2.43h0s.16-.21.16-.21l-2.51-2.51Z"/>
          <path class="cls-1" d="M53.73,43.69l-8.86-8.86-.22-.22-2.89-2.89-.15.21-.16.21.19.19.18.18,2.95,2.95,8.78,8.78.18.19,2.45-2.45v9.2s-9.21,0-9.21,0l2.46-2.46-9.92-9.91-.26-.26-.26-.26-1.42-1.42-.24-.24-.26-.26c-.15,0-.3-.03-.44-.08h0c-.23-.05-.43-.15-.63-.28-.02,0-.04-.02-.05-.04l.05.05.52.52.32.32,2.42,2.42.26.26,9.18,9.18-2.97,2.98h10.97s.01-10.99.01-10.99l-2.97,2.97ZM35.11,34.8c-.03-.09-.05-.18-.06-.28,0-.06-.02-.11-.02-.17l-.5-.5c-.02.11-.03.23-.03.34,0,.13,0,.26.03.39l.89.89c-.14-.2-.25-.42-.31-.67ZM38.47,28.43l-.19-.19-2.11-2.11-.18-.19-1.56,1.56-.25.26-3.23,3.23.17.17.19.19.18-.18.19-.18,4.31-4.31,1.98,1.98.37.37h0s.16-.21.16-.21h0s.15-.21.15-.21l-.18-.18Z"/>
        </g>
        <g>
          <path class="cls-2" d="M38.32,28.64h-.01l-.18-.19h0l-2.13-2.13-1.55,1.54h0s-3.31,3.32-3.31,3.32l-.32.31-12.57,12.57-2.71-2.71v10.08s10.1,0,10.1,0l-2.71-2.71,9.46-9.45.26-.26.25-.25,2.53-2.53.37-.37v-.02s-.17-.18-.17-.18l-.18-.17s0-.02-.02-.03c-.14-.2-.25-.42-.31-.67-.03-.09-.05-.18-.06-.28,0-.06-.02-.11-.02-.17-.04-.51.11-1.03.43-1.44l.68-.92.2-.26.19-.26,1.81-2.43h0s.16-.21.16-.21h0s-.18-.19-.18-.19ZM32.89,38.39l-.25.25-.26.26-9.64,9.64-.19.18,2.45,2.45h-9.2s0-9.2,0-9.2l2.45,2.45,13.25-13.25.19-.18,4.31-4.31,1.98,1.98-2.09,2.8-.19.26-.2.26-.45.61c-.28.37-.45.8-.51,1.25-.02.11-.03.23-.03.34,0,.13,0,.26.03.39v.02c.08.56.33,1.06.71,1.46l-2.35,2.34Z"/>
          <path class="cls-1" d="M38.28,28.24h0s-2.11-2.11-2.11-2.11l-.18-.19-1.56,1.55h0s-.25.25-.25.25c0,.01,0,.01,0,.01l-15.93,15.93-2.97-2.97v10.97s10.98,0,10.98,0l-2.96-2.97,9.09-9.09.26-.26.25-.25,2.73-2.73.19-.19.18-.17h0s-.04-.03-.05-.05l-.32-.32-.02.02-.18.19-.18.18-2.35,2.34-.25.25-.26.26-9.64,9.64-.19.18,2.45,2.45h-9.2s0-9.2,0-9.2l2.45,2.45,13.25-13.25.19-.18,4.31-4.31,1.98,1.97h0s.18.19.18.19h.01l.18.18.16-.2h0s.15-.21.15-.21h.01s-.38-.37-.38-.37Z"/>
        </g>
      </g>
      <g>
        <g>
          <path class="cls-2" d="M48.91,28.39v-.28s-.02-.27-.02-.27c-1.53.62-2.97,1.12-3.7,1.31-.03,0-.06.02-.09.03,0,0-.03,0-.04,0l-.06.02-.06.03-.24.1v.26s.02.27.02.27v.29s.13,4.01.13,4.01c0,.11.02.22.04.32.03.2.1.38.18.55,0,.03.02.05.04.07.21.4.54.71.94.91.3.15.64.22,1,.21,1.18-.04,2.11-1.02,2.07-2.2l-.21-5.64ZM48.35,35.37c-.34.36-.81.57-1.31.59-.33,0-.61-.05-.88-.18-.37-.19-.67-.49-.86-.87-.12-.23-.18-.49-.19-.76l-.13-4.39c.15-.06.26-.09.34-.11.68-.18,1.93-.62,3.33-1.17l.21,5.55c.02.5-.16.97-.51,1.34Z"/>
          <path class="cls-1" d="M49.17,28.27v-.28s-.02-.27-.02-.27c-.09.04-.17.07-.26.11-1.53.62-2.97,1.12-3.7,1.31-.03,0-.06.02-.09.03,0,0-.03,0-.04,0l-.06.02s-.04.01-.06.02c-.07.02-.16.05-.26.1-.08.03-.16.07-.24.11v.29s.02.27.02.27v.29s.13,3.89.13,3.89h0c0,.16.03.3.06.44.04.19.11.37.19.53,0,.02.02.05.04.07.04.1.1.18.16.27.21.31.5.56.84.73,0,0,.03.02.05.03.17.09.35.15.54.19.16.03.33.05.51.05h.08c.64-.02,1.23-.29,1.67-.75.44-.47.67-1.08.65-1.72l-.21-5.74ZM45.07,29.47l.18-.07c.09-.02.19-.05.3-.08s.23-.06.35-.11t.01,0c.25-.08.52-.17.81-.27.03,0,.06-.02.1-.04.14-.04.29-.1.45-.16.43-.15.89-.33,1.37-.52v.27s.22,5.55.22,5.55c.02.5-.16.97-.51,1.34-.34.36-.81.57-1.31.59-.33,0-.61-.05-.88-.18-.37-.19-.67-.49-.86-.87-.12-.23-.18-.49-.19-.76l-.13-4.39v-.26s.06-.03.09-.04Z"/>
        </g>
        <g>
          <path class="cls-2" d="M61.81,16.93l-5.47,2.16v.18c.12,2.8-1.09,5.24-3.22,6.53-1.05.64-2.54,1.34-3.97,1.93-.09.04-.17.07-.26.11-1.53.62-2.97,1.12-3.7,1.31-.03,0-.06.02-.09.03,0,0-.03,0-.04,0l-.06.02s-.04.01-.06.02c-.07.02-.16.05-.26.1-.08.03-.16.07-.24.11-.68.31-1.64.93-2.54,2.11l-.14.18-.15.21-.16.21-.89,1.2-.25.33-.8,1.09-.26.35-.26.35-.04.05c-.35.47-.86.77-1.44.85-.15.02-.3.03-.44.02-.15,0-.3-.03-.44-.08h0c-.23-.05-.43-.15-.63-.28-.02,0-.04-.02-.05-.04l-.32-.32-.18-.17s0-.02-.02-.03c-.14-.2-.25-.42-.31-.67-.03-.09-.05-.18-.06-.28,0-.06-.02-.11-.02-.17-.04-.51.11-1.03.43-1.44l.68-.92.2-.26.19-.26,1.81-2.43h0s.16-.21.16-.21h0s.15-.21.15-.21h.01s1.68-2.27,1.68-2.27l-.22-.2s-.5-.58-.81-1.52c-.32-.95-.18-2.78-.18-2.79l.03-.39-.37.12s-1.67.53-2.6.87c-.88.31-1.35,1.44-1.73,2.35-.07.19-.15.37-.22.53-.38.82-.34,2.25-.32,2.67l-2.88,2.89c-.33-.53-1.05-1.67-1.41-2.32-.37-.64-.35-1.49.05-2.51.03-.07,2.9-6.84,3.16-7.44.41-.95,1.26-1.64,2.52-2.07l18.36-7.16h.28c-.2,0-.4-.02-.61-.02h-.34l-17.79,6.94c-1.76.6-2.4,1.61-2.66,2.21-.27.6-3.16,7.44-3.16,7.44-.34.86-.52,1.88-.04,2.74.38.68,1.14,1.88,1.46,2.38.09.14.14.22.14.22l3.19-3.19s0-.13,0-.33c0,0,0,0,0,0,0,0,0,0,0-.01-.02-.56,0-1.67.3-2.33.41-.9.86-2.4,1.8-2.74.94-.34,2.59-.86,2.59-.86,0,0-.15,1.88.19,2.89.34,1.01.86,1.62.86,1.62l.07.06-1.52,2.04h0s-.15.21-.15.21h-.01l-.15.21h-.01l-1.95,2.62-.19.26-.19.26-.57.76c-.3.41-.46.87-.48,1.34,0,.13,0,.26.01.38,0,.15.04.3.08.44.11.36.29.69.56.97.05.06.11.12.18.18.04.04.09.07.14.11.02.02.05.03.07.04.22.16.46.28.7.35.15.04.29.07.44.08.13.02.25.02.38,0,.62-.03,1.23-.3,1.66-.78.06-.06.11-.12.16-.19l.1-.13.26-.35.82-1.11.24-.32,1.07-1.43.15-.21.16-.21.16-.22c.07-.09.15-.19.22-.27.07-.09.14-.17.22-.25.07-.08.14-.16.22-.23.07-.08.15-.15.22-.21.52-.49,1.03-.81,1.46-1.01.08-.05.16-.09.24-.12.01,0,.01,0,.02,0,.08-.04.16-.07.24-.09t.02,0s.07-.03.1-.04c.07-.03.13-.04.19-.06.08-.03.18-.05.29-.09.11-.03.23-.06.35-.11t.01,0c.25-.08.52-.17.81-.27.03,0,.06-.02.1-.04.14-.04.29-.1.45-.16.43-.15.89-.33,1.37-.52.08-.04.17-.07.26-.11.09-.04.17-.07.26-.11,1.46-.6,3-1.32,4.1-1.98,2.29-1.38,3.46-3.98,3.34-6.76l5.24-2.06c0-.09-.02-.18-.03-.27Z"/>
          <path class="cls-1" d="M45,29.2s-.04.01-.06.02c-.07.02-.16.05-.26.1-.08.03-.16.07-.24.11-.68.31-1.64.93-2.54,2.11l-.14.18.19.19.16-.22c.07-.09.15-.19.22-.27.07-.09.14-.17.22-.25.07-.08.14-.16.22-.23.07-.08.15-.15.22-.21.52-.49,1.03-.81,1.46-1.01.08-.05.16-.09.24-.12.01,0,.01,0,.02,0v-.26s.23-.1.23-.1l.06-.03ZM61.84,17.19c0-.09-.02-.18-.03-.27l-5.47,2.16v.18c.12,2.8-1.09,5.24-3.22,6.53-1.05.64-2.54,1.34-3.97,1.93-.09.04-.17.07-.26.11-1.53.62-2.97,1.12-3.7,1.31-.03,0-.06.02-.09.03,0,0-.03,0-.04,0l-.06.02s-.04.01-.06.02c-.07.02-.16.05-.26.1-.08.03-.16.07-.24.11-.68.31-1.64.93-2.54,2.11l-.14.18-.15.21-.16.21-.89,1.2-.25.33-.8,1.09-.26.35-.26.35-.04.05c-.35.47-.86.77-1.44.85-.15.02-.3.03-.44.02-.15,0-.3-.03-.44-.08h0c-.23-.05-.43-.15-.63-.28-.02,0-.04-.02-.05-.04-.02,0-.03-.02-.05-.03-.04-.03-.07-.06-.1-.09-.07-.05-.13-.11-.19-.18-.06-.06-.11-.12-.16-.19,0,0,0-.02-.02-.03-.14-.2-.25-.42-.31-.67-.03-.09-.05-.18-.06-.28,0-.06-.02-.11-.02-.17-.04-.51.11-1.03.43-1.44l.68-.92.2-.26.19-.26,1.81-2.43h0s.16-.21.16-.21h0s.15-.21.15-.21h.01s1.68-2.27,1.68-2.27l-.22-.2s-.5-.58-.81-1.52c-.32-.95-.18-2.78-.18-2.79l.03-.39-.37.12s-1.67.53-2.6.87c-.88.31-1.35,1.44-1.73,2.35-.07.19-.15.37-.22.53-.38.82-.34,2.25-.32,2.67l-2.88,2.89c-.33-.53-1.05-1.67-1.41-2.32-.37-.64-.35-1.49.05-2.51.03-.07,2.9-6.84,3.16-7.44.41-.95,1.26-1.64,2.52-2.07l18.36-7.16h.28c-.2,0-.4-.02-.61-.02h-1.05l-17.16,6.69c-1.39.47-2.34,1.27-2.82,2.36-.26.59-3.13,7.37-3.16,7.45-.46,1.17-.47,2.17-.02,2.96.4.71,1.19,1.98,1.49,2.44.06.1.1.16.11.17l.03.06.14.21.35-.35.18-.18,2.98-2.97v-.12s-.02-.08-.02-.21h0c0-.11,0-.22,0-.36h0c0-.59.04-1.46.28-1.98.08-.16.15-.34.23-.54.34-.81.76-1.83,1.43-2.06.66-.24,1.68-.58,2.22-.75-.03.62-.04,1.84.22,2.61.28.82.66,1.38.84,1.61l-1.37,1.84h0s-.15.21-.15.21h0l-.15.21h0s-2.09,2.81-2.09,2.81l-.19.26-.2.26-.45.61c-.28.37-.45.8-.51,1.25-.02.11-.03.23-.03.34,0,.13,0,.26.03.39v.02c.08.56.33,1.06.71,1.46.05.06.12.12.18.18.05.04.1.09.16.13,0,0,.03.02.04.03.37.26.78.43,1.21.48.12.02.25.03.37.03h.02c.12,0,.23,0,.35-.02h.02c.53-.08,1.01-.31,1.4-.66.09-.08.18-.17.26-.26.04-.04.07-.09.11-.14l.15-.2.84-1.12.24-.33,1.23-1.66.16-.21.16-.2.18-.25c.75-.99,1.54-1.55,2.14-1.86.08-.05.16-.08.24-.12,0,0,.02,0,.02,0,.09-.04.17-.07.24-.1h.02c.15-.06.26-.09.34-.11.68-.18,1.93-.62,3.33-1.17.09-.03.17-.07.26-.1.09-.03.17-.07.26-.11,1.51-.61,3.1-1.35,4.22-2.03,2.25-1.36,3.54-3.9,3.48-6.81l4.98-1.96c0-.09,0-.18,0-.28ZM45,29.2s-.04.01-.06.02c-.07.02-.16.05-.26.1-.08.03-.16.07-.24.11-.68.31-1.64.93-2.54,2.11l-.14.18.19.19.16-.22c.07-.09.15-.19.22-.27.07-.09.14-.17.22-.25.07-.08.14-.16.22-.23.07-.08.15-.15.22-.21.52-.49,1.03-.81,1.46-1.01.08-.05.16-.09.24-.12.01,0,.01,0,.02,0v-.26s.23-.1.23-.1l.06-.03Z"/>
        </g>
      </g>
    </g>
  </g>
</svg>
