<svg version="1.1" id="Layer_1" xmlns="http://www.w3.org/2000/svg" xmlns:xlink="http://www.w3.org/1999/xlink" x="0px" y="0px"
	 width="100%" viewBox="0 0 1287 508" enable-background="new 0 0 1287 508" xml:space="preserve">
<path fill="#FFFFFF" opacity="1.000000" stroke="none" 
	d="
M961.000000,509.000000 
	C640.666687,509.000000 320.833374,509.000000 1.000043,509.000000 
	C1.000029,339.666687 1.000029,170.333389 1.000014,1.000066 
	C429.999969,1.000044 858.999939,1.000044 1288.000000,1.000022 
	C1288.000000,170.333267 1288.000000,339.666534 1288.000000,508.999908 
	C1179.166626,509.000000 1070.333374,509.000000 961.000000,509.000000 
M251.981964,443.940155 
	C251.988052,445.772186 252.165115,447.623138 251.965378,449.432434 
	C251.520966,453.458099 253.952545,454.924805 257.226410,454.940521 
	C279.377441,455.047028 301.529388,455.040009 323.680573,454.953064 
	C327.322723,454.938751 329.329895,453.169800 329.076874,449.026184 
	C328.793579,444.386414 329.103180,439.710449 329.922882,435.004639 
	C367.131561,423.840759 399.079407,404.038239 426.169586,376.298737 
	C430.926086,371.428223 433.566315,365.809387 431.386902,358.798462 
	C423.953827,334.887177 416.625519,310.942322 408.962585,287.105011 
	C408.202850,284.741669 405.427490,283.026306 403.587646,281.010193 
	C401.793365,282.873688 399.253021,284.424042 398.319275,286.648712 
	C388.096222,311.005371 373.791351,332.727905 355.557831,351.694763 
	C347.459076,360.119232 337.989838,367.226227 329.020050,374.009827 
	C329.013367,369.519440 329.001099,365.029022 329.000885,360.538635 
	C328.999268,325.446594 328.951813,290.354401 329.064850,255.262711 
	C329.078033,251.168152 327.773468,247.728806 324.282776,246.231644 
	C310.311188,240.239319 296.162720,234.659378 282.011536,228.003738 
	C282.007690,197.085144 282.011139,166.166534 281.994019,135.247940 
	C281.990448,128.823883 280.178619,127.016518 273.927795,126.998360 
	C260.631836,126.959732 247.335907,126.911987 234.006592,125.947777 
	C234.004395,94.159836 234.002457,62.371891 233.999130,30.583950 
	C233.998993,29.252611 234.139923,27.899027 233.951279,26.593945 
	C233.283417,21.973265 228.690948,19.040001 224.656281,20.766750 
	C214.028519,25.315205 203.476944,30.041859 192.846329,34.583488 
	C179.831696,40.143620 166.849792,45.797009 153.682220,50.973820 
	C148.765823,52.906700 146.893250,55.734512 146.928055,60.907417 
	C147.087067,84.539131 146.990387,108.172562 146.363480,132.146072 
	C140.980423,135.853439 135.603485,139.569733 130.212601,143.265686 
	C124.549057,147.148590 119.331863,152.414139 113.064995,154.468735 
	C107.397774,156.326736 106.927185,158.886032 106.936508,163.610214 
	C107.037971,215.068527 107.012840,266.527100 106.993790,317.985626 
	C106.986015,338.966400 106.909081,359.947174 105.984413,380.979065 
	C96.937622,380.978851 87.881630,380.716705 78.845978,381.033844 
	C60.909702,381.663330 44.800411,388.157196 29.585100,397.193359 
	C20.223970,402.752808 20.387081,402.729309 25.591232,412.303711 
	C27.548637,415.904846 29.421778,416.333710 33.082451,414.565247 
	C46.288841,408.185272 59.648830,402.107025 74.224525,399.400421 
	C85.230835,397.356598 96.144310,397.239410 106.973045,401.980133 
	C106.982025,416.969574 106.991882,431.958984 106.999649,446.948425 
	C107.003593,454.557831 108.483215,455.995544 116.355034,455.998962 
	C126.514603,456.003387 136.674179,455.999878 146.972183,456.927948 
	C146.981461,464.750122 146.982819,472.572327 147.002380,480.394470 
	C147.019669,487.304260 149.656372,489.991211 156.488205,489.995117 
	C179.122864,490.008057 201.757538,490.006500 224.392197,489.996063 
	C231.303345,489.992889 233.977417,487.344360 233.997147,480.514069 
	C234.035110,467.366943 234.056641,454.219788 234.898956,441.091888 
	C240.557953,441.743561 246.216949,442.395264 251.981964,443.940155 
M813.000000,290.499939 
	C813.000000,296.663391 812.973328,302.826996 813.007629,308.990265 
	C813.041321,315.050171 813.969360,315.992218 819.774475,315.997681 
	C828.936523,316.006317 838.108398,315.741669 847.257202,316.090240 
	C853.419983,316.325012 855.047546,315.190460 855.023438,307.956116 
	C854.956177,287.799896 855.000000,267.643250 855.000000,247.486786 
	C855.000000,245.729675 855.000000,243.972580 855.000000,242.000000 
	C858.991394,242.000000 862.349976,242.331009 865.613770,241.916183 
	C869.690308,241.398056 871.959900,243.191879 873.868164,246.477142 
	C886.515625,268.251312 899.265381,289.966003 911.935120,311.727234 
	C913.424805,314.285797 915.002441,316.099640 918.400146,316.060883 
	C931.558472,315.910736 944.719849,316.041565 957.878967,315.934509 
	C959.187927,315.923859 961.421265,315.223846 961.598877,314.463806 
	C961.959167,312.921112 961.713623,310.775421 960.835205,309.474091 
	C947.642212,289.929749 934.309265,270.479828 920.999756,251.014191 
	C917.178528,245.425522 913.327209,239.857391 909.386719,234.130203 
	C912.681458,232.361877 915.439209,231.079590 917.994751,229.475250 
	C928.117920,223.120300 936.080078,214.945648 941.153809,203.833511 
	C947.780945,189.319138 947.749390,174.287674 944.812256,159.291046 
	C940.990601,139.778549 929.680542,126.052170 910.339111,119.733223 
	C894.562073,114.578773 878.506165,113.099289 861.913025,114.838829 
	C848.308411,116.265068 834.562134,116.352341 820.876648,116.990372 
	C813.740112,117.323082 813.001587,118.028770 813.001282,125.083130 
	C812.998901,179.888748 813.000000,234.694382 813.000000,290.499939 
M709.546326,196.000000 
	C706.779724,196.000000 704.013123,196.000000 701.352966,196.000000 
	C701.352966,181.638351 701.352966,167.915634 701.352966,154.000000 
	C703.523376,154.000000 705.343933,154.000000 707.164490,154.000000 
	C728.487061,153.999985 749.809937,153.938950 771.131958,154.051758 
	C775.367371,154.074173 777.140991,152.522583 777.051819,148.213364 
	C776.875977,139.721283 776.900391,131.221329 777.044189,122.728035 
	C777.110840,118.792244 775.704224,116.954140 771.573608,116.961929 
	C736.091614,117.028801 700.609497,117.013374 665.127380,116.980652 
	C661.550903,116.977356 659.911682,118.090256 659.919067,122.137581 
	C660.034790,185.105606 660.035095,248.073944 659.918884,311.041962 
	C659.911377,315.125824 661.300720,316.085114 665.141052,316.072357 
	C701.622192,315.950958 738.104248,315.936157 774.585205,316.086517 
	C778.802795,316.103912 780.078613,314.496582 780.031311,310.649445 
	C779.928955,302.321594 780.008362,293.991608 779.997131,285.662476 
	C779.988953,279.556000 779.465637,279.007050 773.509888,279.004211 
	C751.187805,278.993683 728.865723,279.000000 706.543640,279.000000 
	C704.781555,279.000000 703.019470,279.000000 701.353882,279.000000 
	C701.353882,263.302643 701.353882,248.247223 701.353882,233.000000 
	C703.360352,233.000000 705.013794,233.000015 706.667175,233.000015 
	C724.824707,232.999985 742.982727,232.923141 761.139282,233.055832 
	C765.489258,233.087616 767.281860,231.749893 767.097900,227.092422 
	C766.756409,218.443604 766.829712,209.766815 767.077148,201.111603 
	C767.188477,197.217819 766.058777,195.867981 762.009705,195.915207 
	C744.854004,196.115280 727.694702,196.000031 709.546326,196.000000 
M515.030701,302.542450 
	C519.031982,305.030579 522.819580,307.987915 527.071777,309.925262 
	C545.070984,318.125549 563.906067,320.741516 583.571533,318.070679 
	C602.053894,315.560516 619.307678,310.111328 634.700623,299.217804 
	C637.715820,297.083984 637.526306,295.112640 636.086914,292.679901 
	C632.033875,285.829834 627.906494,279.020599 623.656006,272.291504 
	C620.511963,267.313965 618.355103,266.924133 613.353455,270.162476 
	C599.685852,279.011688 584.803101,283.693054 568.451904,282.966064 
	C554.611267,282.350739 544.074585,276.121033 536.596069,264.262360 
	C529.192139,252.521896 527.286194,239.318115 526.172058,226.076752 
	C525.094543,213.269012 525.983337,200.363907 529.042419,187.780563 
	C532.011108,175.568863 537.300781,164.507172 547.894470,157.097687 
	C559.852295,148.734116 573.397400,148.355270 586.966614,151.644180 
	C594.131470,153.380783 600.906982,156.735916 607.842102,159.402237 
	C610.797729,160.538544 613.964172,161.617630 615.898560,158.187286 
	C620.450623,150.115082 624.881897,141.958145 628.877563,133.603760 
	C629.624023,132.043015 628.743408,128.858353 627.483887,127.396706 
	C625.886475,125.542984 623.227539,124.474289 620.865906,123.429985 
	C606.318420,116.997200 590.827148,114.506958 575.151367,114.216911 
	C565.562195,114.039482 555.827087,115.401314 546.343994,117.107910 
	C523.915039,121.144279 507.068268,133.509201 496.240051,153.518036 
	C485.080139,174.139832 483.700500,196.928436 483.143921,219.688492 
	C482.944183,227.857132 483.735077,236.169388 485.126129,244.234619 
	C488.956970,266.445251 495.977203,287.214630 515.030701,302.542450 
M1115.061523,127.584183 
	C1113.687988,126.719536 1112.387207,125.700851 1110.930054,125.013184 
	C1085.198975,112.869400 1058.338867,111.384773 1031.024170,117.608040 
	C1011.309692,122.099686 995.923706,133.012329 985.488098,150.833786 
	C975.450806,167.975189 972.438110,186.828384 971.164673,206.053101 
	C970.544373,215.418152 971.679626,224.897919 971.991638,234.326706 
	C972.421753,247.324173 975.134277,259.910980 980.128601,271.825806 
	C986.869202,287.906647 997.051697,301.130585 1013.237061,309.097778 
	C1031.777832,318.224487 1051.187622,320.394592 1071.502930,318.101868 
	C1089.001343,316.126953 1104.895874,310.067932 1119.832642,301.039459 
	C1124.577393,298.171539 1125.190063,295.432465 1122.218262,290.609222 
	C1118.386597,284.390259 1114.726440,278.066010 1110.954712,271.809692 
	C1108.726074,268.112671 1105.554199,267.558868 1101.898804,269.533051 
	C1095.927979,272.757690 1089.934937,276.034332 1083.668701,278.598267 
	C1072.984009,282.970123 1061.593384,284.592499 1050.318726,282.524872 
	C1034.043213,279.540100 1024.467407,268.455231 1018.991577,253.390121 
	C1014.305420,240.497543 1013.864502,227.112396 1013.912842,213.579590 
	C1013.954163,202.011261 1014.986267,190.671463 1019.003479,179.780685 
	C1026.196777,160.279007 1037.774292,151.795624 1055.846436,150.179062 
	C1069.576050,148.950943 1082.796265,151.963318 1094.842407,159.239456 
	C1097.999268,161.146225 1101.587646,161.329102 1103.699341,157.587875 
	C1108.013794,149.944519 1112.198608,142.214508 1116.027100,134.321457 
	C1116.815918,132.695099 1115.815186,130.200729 1115.061523,127.584183 
M879.505615,84.020775 
	C878.062683,82.733635 877.634094,82.133659 879.724976,80.468391 
	C884.351074,76.783760 883.800354,71.127975 882.438599,66.349640 
	C881.800354,64.110390 878.197510,61.767437 875.587402,61.253674 
	C871.313049,60.412334 866.752258,61.026043 862.311157,61.026043 
	C862.311157,72.643280 862.311157,83.710022 862.311157,94.643944 
	C864.689575,94.643944 866.750122,94.643944 869.269043,94.643944 
	C869.269043,90.587303 869.269043,86.885506 869.269043,83.183701 
	C869.646851,83.046875 870.024597,82.910042 870.402405,82.773216 
	C872.820740,86.818199 875.239014,90.863182 877.712280,95.000000 
	C880.407166,95.000000 883.104431,94.719002 885.721252,95.058372 
	C891.202332,95.769196 895.095581,94.547989 895.214966,88.262833 
	C906.114136,87.528786 906.114136,87.528786 908.499268,94.772903 
	C910.921143,94.772903 913.366333,94.772903 916.386963,94.772903 
	C912.914917,84.783791 909.534180,75.182793 906.259949,65.545570 
	C905.482483,63.257069 905.433899,60.984081 901.867981,60.857235 
	C898.284119,60.729752 896.373962,61.946091 895.378540,65.177269 
	C894.614929,67.656021 893.816711,70.124893 892.987549,72.582542 
	C890.702942,79.354141 888.394043,86.117546 885.774963,93.825104 
	C883.395996,90.079330 881.666565,87.356255 879.505615,84.020775 
M938.000000,75.963943 
	C937.893066,77.120354 937.786133,78.276764 937.645569,79.797707 
	C933.991394,74.469055 930.304321,69.847763 927.495361,64.743294 
	C925.463257,61.050491 922.957825,60.477375 919.230103,61.336536 
	C919.230103,72.427963 919.230103,83.503777 919.230103,94.738647 
	C921.519104,94.738647 923.574646,94.738647 926.146973,94.738647 
	C926.146973,88.832962 926.146973,83.169159 926.146973,76.377014 
	C929.859253,81.803551 933.250061,85.990562 935.753601,90.653946 
	C937.906677,94.664650 940.531799,95.867630 944.712036,94.607918 
	C944.712036,83.411003 944.712036,72.345566 944.712036,61.329575 
	C942.361938,61.329575 940.305908,61.329575 938.000000,61.329575 
	C938.000000,66.131340 938.000000,70.606339 938.000000,75.963943 
M778.371887,95.000000 
	C780.776672,94.711395 783.346863,94.871346 785.557495,94.056183 
	C794.917236,90.604897 796.292175,81.626129 794.330444,70.789963 
	C793.321472,65.216614 789.556519,62.018562 784.538086,61.197021 
	C779.586182,60.386372 774.397949,61.019997 769.278809,61.019997 
	C769.278809,72.605003 769.278809,83.631020 769.278809,95.000000 
	C772.176758,95.000000 774.800110,95.000000 778.371887,95.000000 
M617.000000,69.551926 
	C617.000000,77.974388 617.000000,86.396843 617.000000,94.628899 
	C619.713318,94.628899 621.770020,94.628899 624.130615,94.628899 
	C624.130615,89.988861 624.130615,85.714821 624.130615,81.257149 
	C628.170349,81.257149 631.892517,81.257149 636.088379,81.257149 
	C636.088379,85.905327 636.088379,90.315620 636.088379,94.678711 
	C638.624939,94.678711 640.679932,94.678711 642.672302,94.678711 
	C642.672302,83.297569 642.672302,72.239944 642.672302,61.374584 
	C640.280701,61.374584 638.223938,61.374584 635.863281,61.374584 
	C635.863281,66.018204 635.863281,70.291946 635.863281,74.739586 
	C631.822754,74.739586 628.100586,74.739586 623.905396,74.739586 
	C623.905396,70.087593 623.905396,65.678177 623.905396,61.324867 
	C621.361694,61.324867 619.311279,61.324867 617.000000,61.324867 
	C617.000000,63.955162 617.000000,66.263557 617.000000,69.551926 
M670.497192,77.996582 
	C668.988281,73.391678 667.640808,68.723289 665.870117,64.221321 
	C665.352356,62.904881 663.738403,61.361279 662.435669,61.160103 
	C660.269104,60.825539 657.410828,59.927917 656.265564,63.300152 
	C652.746948,73.660553 649.185608,84.006439 645.669189,94.275414 
	C652.583008,97.126091 654.406799,92.855621 655.502869,88.112839 
	C665.968018,87.798569 665.968018,87.798569 668.644348,94.659119 
	C671.099915,94.659119 673.485901,94.659119 676.335876,94.659119 
	C674.431152,89.033371 672.678833,83.857704 670.497192,77.996582 
M677.000000,66.624153 
	C677.000000,70.955948 677.266602,75.307549 676.946716,79.615585 
	C676.185608,89.865067 680.233887,96.314934 692.865234,95.024307 
	C696.992981,94.602554 700.620605,93.129021 700.999268,88.704124 
	C701.781128,79.566925 701.943604,70.376724 702.361694,61.190781 
	C699.389282,61.190781 697.440247,61.190781 694.999939,61.190781 
	C694.999939,68.322510 694.861511,75.277901 695.057739,82.223831 
	C695.157166,85.742241 693.760620,88.254906 690.533997,88.861465 
	C686.767700,89.569473 684.972473,86.803719 684.257935,83.505272 
	C683.911743,81.907280 684.016785,80.200226 684.009644,78.542152 
	C683.984741,72.768478 684.000000,66.994629 684.000000,61.162655 
	C681.437439,61.162655 679.488953,61.162655 677.237549,61.162655 
	C677.153748,62.748844 677.076843,64.203606 677.000000,66.624153 
M740.856995,87.682076 
	C737.439636,87.519257 734.022278,87.356445 729.798157,87.155190 
	C726.671021,91.027931 727.141479,92.931953 733.091919,94.496727 
	C735.277710,95.071510 737.674255,94.821350 739.969849,95.006935 
	C745.031372,95.416122 748.144897,92.623001 749.762024,88.349648 
	C751.558472,83.602554 749.368225,78.541176 744.988403,76.017876 
	C743.298584,75.044289 741.346680,74.444687 739.839111,73.260803 
	C738.602722,72.289848 737.847900,70.705612 736.879639,69.393227 
	C738.583862,68.915642 740.271423,68.151588 741.997498,68.051468 
	C743.368286,67.971954 744.786194,68.704918 746.345276,69.120346 
	C747.369568,67.401764 748.330200,65.789886 750.077820,62.857693 
	C745.599976,62.137791 742.074463,61.463047 738.519592,61.026745 
	C734.058472,60.479210 730.728943,62.293491 729.223206,66.570267 
	C727.558594,71.298233 729.562317,76.456627 733.813232,78.937004 
	C735.773254,80.080658 737.959167,80.843552 739.892456,82.024879 
	C741.801025,83.191101 744.239685,84.466820 740.856995,87.682076 
M992.298157,80.998360 
	C997.290833,80.714958 994.213318,77.401360 995.074646,74.845253 
	C991.030640,74.845253 987.622192,74.845253 984.357910,74.845253 
	C984.357910,71.963928 984.357910,69.571335 984.357910,66.888153 
	C988.326660,66.888153 991.939453,66.888153 995.762939,66.888153 
	C995.762939,64.855194 995.762939,63.131645 995.762939,61.275932 
	C989.468140,61.275932 983.410034,61.275932 977.299194,61.275932 
	C977.299194,72.601776 977.299194,83.649208 977.299194,94.688324 
	C984.003662,94.688324 990.404785,94.688324 997.040527,94.688324 
	C996.938416,92.633072 996.852478,90.903831 996.752319,88.888420 
	C992.338196,88.888420 988.393677,88.888420 984.244446,88.888420 
	C984.244446,86.181244 984.244446,83.790794 984.244446,80.999817 
	C986.774902,80.999817 989.067322,80.999817 992.298157,80.998360 
M809.618164,74.999794 
	C802.335571,74.836632 807.490479,69.896149 805.753235,66.791328 
	C810.385620,66.791328 814.129395,66.791328 817.799805,66.791328 
	C817.799805,64.702164 817.799805,63.083351 817.799805,61.242550 
	C811.541992,61.242550 805.481445,61.242550 799.265930,61.242550 
	C799.265930,72.533455 799.265930,83.580452 799.265930,94.717651 
	C805.932739,94.717651 812.331055,94.717651 818.673767,94.717651 
	C818.673767,92.694885 818.673767,90.970108 818.673767,88.782578 
	C814.286560,88.782578 810.214905,88.782578 806.209961,88.782578 
	C806.209961,86.020340 806.209961,83.740982 806.209961,80.991806 
	C809.815002,80.991806 813.222839,80.991806 816.725586,80.991806 
	C816.725586,78.789955 816.725586,77.065384 816.725586,74.999992 
	C814.496216,74.999992 812.525513,74.999992 809.618164,74.999794 
M1053.939575,360.641907 
	C1046.550293,351.081787 1046.550293,351.081787 1043.335693,351.662933 
	C1043.335693,361.751099 1043.335693,371.811462 1043.335693,382.126770 
	C1045.089600,381.933533 1046.481567,381.780182 1048.181641,381.592865 
	C1048.181641,375.044067 1048.181641,368.856079 1048.181641,361.758972 
	C1052.347534,368.070831 1055.822266,373.688568 1059.705933,379.007568 
	C1060.889526,380.628662 1063.199585,381.427338 1065.687500,383.057251 
	C1065.687500,371.292267 1065.687500,361.229034 1065.687500,350.897980 
	C1063.953979,351.068420 1062.562622,351.205200 1060.867920,351.371826 
	C1060.867920,357.917206 1060.867920,364.115417 1060.867920,371.046906 
	C1058.289917,367.379974 1056.176392,364.373596 1053.939575,360.641907 
M805.518860,375.034241 
	C807.769287,377.811493 808.217773,382.821136 813.761963,381.794556 
	C813.761963,371.535950 813.761963,361.452637 813.761963,351.267944 
	C812.132019,351.267944 810.742920,351.267944 808.845276,351.267944 
	C808.845276,357.504486 808.845276,363.495453 808.845276,370.825653 
	C804.533752,364.451691 801.167297,359.132324 797.405884,354.108765 
	C796.168213,352.455780 793.908447,351.568115 791.273376,349.748627 
	C791.273376,361.580902 791.273376,371.653656 791.273376,381.998779 
	C792.957581,381.908478 794.349487,381.833832 796.245667,381.732147 
	C796.245667,375.084747 796.245667,368.785034 796.245667,361.481934 
	C799.095337,365.621063 801.302734,368.807709 803.485291,372.011322 
	C804.032410,372.814331 804.499573,373.671875 805.518860,375.034241 
M963.507324,95.000000 
	C964.838135,94.992851 966.312866,95.352821 967.468872,94.899704 
	C969.660400,94.040680 972.327515,93.157722 973.499634,91.413086 
	C974.169434,90.416107 972.281433,87.700623 971.530884,85.721535 
	C963.154114,90.214661 963.011047,89.851868 958.664246,86.115471 
	C955.489075,83.386124 955.568420,74.518715 957.714600,70.988075 
	C960.909180,65.732933 965.794983,66.788246 970.368774,68.996155 
	C973.753662,63.709896 973.751404,63.484634 970.503601,61.854382 
	C961.819275,57.495251 950.639587,62.786263 949.108582,72.196571 
	C948.607361,75.277489 948.939331,78.507240 949.013916,81.665993 
	C949.207825,89.876289 954.320740,94.855316 963.507324,95.000000 
M1009.511536,354.017426 
	C1005.243408,361.275116 1004.548462,368.757660 1008.186035,376.467896 
	C1009.892273,380.084412 1016.113037,383.592865 1020.439697,382.916168 
	C1025.593994,382.110016 1031.625122,381.361023 1032.727295,375.098175 
	C1033.693359,369.609680 1033.481201,363.759857 1032.815430,358.185913 
	C1032.263184,353.563049 1028.037598,351.242462 1023.886414,351.200470 
	C1019.288574,351.153900 1014.675293,352.636139 1009.511536,354.017426 
M756.015076,376.089600 
	C761.264160,386.155762 779.447510,384.136688 781.161011,374.282104 
	C781.773743,370.757904 781.838867,367.124969 781.976685,363.534882 
	C782.184631,358.119904 780.154968,353.203888 774.959595,351.780457 
	C769.625793,350.319031 763.444153,349.036438 758.682007,353.877899 
	C752.430542,360.233521 753.444824,367.723083 756.015076,376.089600 
M878.733459,351.015564 
	C878.155884,352.134186 877.092712,353.246277 877.077576,354.372406 
	C876.959534,363.178284 877.038757,371.986847 877.081421,380.794464 
	C877.082825,381.083740 877.345459,381.371735 877.515625,381.720337 
	C878.888977,381.720337 880.278931,381.720337 882.077820,381.720337 
	C882.077820,377.717590 882.077820,373.971405 882.077820,369.716095 
	C887.057373,370.579193 888.134399,374.607208 889.785706,377.646576 
	C891.653748,381.084747 893.648315,383.155731 898.274963,381.409454 
	C896.404419,378.342926 894.816833,375.167816 892.680664,372.419006 
	C890.963562,370.209442 890.324280,369.101532 893.171265,367.132385 
	C896.963440,364.509521 896.690125,360.070129 895.590210,356.278992 
	C894.487061,352.476807 891.307251,350.716980 887.159119,350.972076 
	C884.675476,351.124756 882.174927,351.001251 878.733459,351.015564 
M675.395020,381.999054 
	C676.189514,381.923004 676.983948,381.846985 678.405396,381.710907 
	C677.079956,379.404327 676.042908,377.444397 674.857483,375.578766 
	C673.583984,373.574493 672.171143,371.658783 670.885803,369.800812 
	C676.216370,364.111664 677.666748,359.275177 674.960571,355.032166 
	C670.408142,347.894135 663.343140,352.207306 657.273926,350.890289 
	C657.273926,361.602661 657.273926,371.665558 657.273926,382.005310 
	C658.957642,381.908783 660.350891,381.828918 662.157959,381.725311 
	C662.157959,377.642609 662.157959,373.903534 662.157959,370.164459 
	C662.574646,369.898590 662.991394,369.632690 663.408081,369.366821 
	C664.589355,370.504791 665.773254,371.640015 666.951294,372.781372 
	C669.833374,375.573822 669.807617,380.774353 675.395020,381.999054 
M846.000183,71.455185 
	C846.093811,70.030655 846.187500,68.606125 846.299744,66.899376 
	C850.311279,66.899376 853.931885,66.899376 857.762939,66.899376 
	C857.762939,64.859444 857.762939,63.134075 857.762939,61.285885 
	C851.460632,61.285885 845.396118,61.285885 839.314087,61.285885 
	C839.314087,72.644150 839.314087,83.713799 839.314087,94.637405 
	C841.693970,94.637405 843.752686,94.637405 846.122192,94.637405 
	C846.122192,90.000084 846.122192,85.718407 846.122192,80.972572 
	C849.500427,80.972572 852.580933,80.972572 855.707275,80.972572 
	C855.707275,78.761612 855.707275,77.034096 855.707275,74.996040 
	C853.113098,74.996040 850.764038,75.246605 848.516663,74.877396 
	C847.567932,74.721535 846.833740,73.259956 846.000183,71.455185 
M502.500122,364.000000 
	C495.411011,364.000000 488.321899,364.000000 480.957642,364.000000 
	C481.066742,366.327942 481.147583,368.052460 481.225098,369.706116 
	C500.701752,369.706116 519.728943,369.706116 539.028137,369.706116 
	C538.932800,367.668427 538.852173,365.944031 538.761169,364.000000 
	C526.719910,364.000000 515.109985,364.000000 502.500122,364.000000 
M719.000061,71.646011 
	C719.077393,70.201782 719.154785,68.757545 719.255859,66.870605 
	C722.278748,66.870605 725.025574,66.870605 728.035400,66.870605 
	C727.932800,64.669579 727.852539,62.947018 727.777222,61.330582 
	C719.595886,61.330582 711.867065,61.330582 703.951416,61.330582 
	C704.053955,63.410812 704.139526,65.148155 704.238403,67.154907 
	C707.030212,67.154907 709.303284,67.154907 712.025879,67.154907 
	C712.025879,76.503304 712.025879,85.561562 712.025879,94.728531 
	C714.544312,94.728531 716.596313,94.728531 719.000000,94.728531 
	C719.000000,87.181442 719.000000,79.899910 719.000061,71.646011 
M922.018433,372.305725 
	C921.677246,376.690002 919.022217,378.459167 914.978699,377.931030 
	C911.293091,377.449707 909.872437,374.923492 909.965393,371.248444 
	C910.100220,365.920074 909.900024,360.583191 910.034973,355.254822 
	C910.124023,351.740845 908.810547,350.372894 905.380493,351.299500 
	C905.235901,351.770599 905.058350,352.081696 905.056763,352.393707 
	C905.025635,358.558075 905.197327,364.729614 904.958130,370.885376 
	C904.581726,380.572021 907.933655,381.057312 914.736328,382.829895 
	C920.860413,384.425720 926.960754,379.280304 926.992859,372.971497 
	C927.025085,366.640137 926.914368,360.306946 927.033386,353.977661 
	C927.096069,350.643402 925.599060,350.565948 923.453491,351.354065 
	C922.994385,358.316956 922.561646,364.880951 922.018433,372.305725 
M1101.500000,370.000000 
	C1110.579712,370.000000 1119.659424,370.000000 1129.032227,370.000000 
	C1128.930786,367.694580 1128.854980,365.971466 1128.780762,364.283417 
	C1111.992432,364.283417 1095.631348,364.283417 1078.980957,364.283417 
	C1079.069336,366.304138 1079.144775,368.027222 1079.231079,370.000000 
	C1086.593750,370.000000 1093.546875,370.000000 1101.500000,370.000000 
M827.769226,351.794586 
	C822.068970,357.647888 822.450928,362.132568 829.080200,366.573486 
	C830.560242,367.564972 832.353455,368.169922 833.641174,369.347778 
	C835.421875,370.976440 838.596497,372.309937 836.056030,375.710480 
	C834.071533,378.366760 831.644287,378.595947 828.799194,377.307251 
	C827.656860,376.789795 826.435730,376.155975 825.244873,376.144196 
	C824.525635,376.137085 823.558228,377.099091 823.159424,377.864014 
	C822.920959,378.321228 823.348450,379.521881 823.847534,379.904907 
	C827.878723,382.998627 832.682190,383.930267 837.017395,381.690857 
	C839.316101,380.503357 841.164490,377.111755 841.822144,374.379578 
	C842.919189,369.821747 840.174377,366.694611 836.149231,364.551239 
	C833.595886,363.191559 831.246643,361.448669 828.931274,359.958313 
	C830.027222,355.293304 832.027344,353.880768 836.144470,355.904083 
	C837.337036,356.490173 839.199463,355.713409 840.754761,355.561401 
	C839.888489,354.256683 839.205627,352.037506 838.121216,351.819916 
	C834.953003,351.184296 831.624512,351.347351 827.769226,351.794586 
M692.684814,355.001770 
	C694.848999,355.000671 697.015259,354.938660 699.176880,355.012207 
	C702.731018,355.133209 702.345703,353.351746 701.474243,351.276184 
	C695.871033,351.276184 690.605774,351.276184 685.306030,351.276184 
	C685.306030,361.607300 685.306030,371.659363 685.306030,381.998779 
	C690.412109,381.998779 695.217712,381.902405 700.017151,382.031891 
	C703.341797,382.121552 703.435364,380.607941 702.445618,377.883911 
	C698.332092,377.883911 694.387878,377.883911 690.253540,377.883911 
	C690.253540,374.501831 690.253540,371.443756 690.253540,367.926270 
	C693.909058,367.926270 697.332520,367.926270 702.112976,367.926270 
	C699.065735,361.401093 693.273071,365.804108 689.420410,362.689117 
	C690.118652,360.386353 690.933105,357.700317 692.684814,355.001770 
M647.857788,378.628540 
	C643.983704,378.289490 640.109619,377.950470 636.350098,377.621490 
	C636.350098,374.299622 636.350098,371.236877 636.350098,368.207123 
	C646.064880,367.651459 646.064880,367.651459 645.072693,363.789001 
	C642.215271,363.789001 639.273254,363.789001 636.305542,363.789001 
	C636.305542,360.730377 636.305542,358.005096 636.305542,354.999908 
	C639.078186,354.999908 641.553406,355.023407 644.028076,354.994568 
	C648.002136,354.948273 648.001953,354.933624 647.266663,351.223877 
	C641.990967,351.223877 636.721436,351.223877 631.254700,351.223877 
	C631.254700,361.500488 631.254700,371.552460 631.254700,381.992401 
	C636.290771,381.992401 641.087036,382.096008 645.869202,381.883179 
	C646.605469,381.850403 647.276978,380.362396 647.857788,378.628540 
M951.017883,355.041504 
	C952.455322,355.712616 953.892700,356.383728 955.732788,357.242828 
	C956.479492,355.706604 957.113892,354.401337 957.734863,353.123718 
	C948.532043,347.990601 939.436462,350.544037 936.607849,359.082794 
	C935.661072,361.940735 936.299072,365.292389 935.974731,368.393494 
	C934.918091,378.495453 944.001953,385.482788 954.627136,381.619141 
	C956.107239,381.080933 957.004211,378.939117 958.171143,377.539642 
	C956.399597,377.368744 954.408447,376.589813 952.895874,377.136047 
	C947.414001,379.115662 944.011230,378.116058 942.021851,372.647888 
	C941.052490,369.983368 941.021912,366.871735 941.058411,363.968658 
	C941.135071,357.866028 943.993103,355.215118 951.017883,355.041504 
M735.632568,377.162903 
	C730.685120,375.714386 730.611450,370.967499 730.492676,367.507996 
	C730.370911,363.961304 731.845276,359.788483 733.982361,356.895264 
	C736.148438,353.962921 740.037170,354.472412 743.496582,356.060303 
	C744.326721,356.441406 745.754578,355.520294 746.907593,355.198090 
	C746.355896,354.041077 746.116089,352.342468 745.201477,351.815674 
	C739.606873,348.593445 729.872559,351.372131 727.067383,357.070099 
	C726.103516,359.027679 726.022034,361.452148 725.699524,363.686707 
	C724.861023,369.496277 725.172058,375.005859 729.865784,379.398102 
	C734.232971,383.484802 739.356506,382.983307 744.455383,381.710175 
	C746.902039,381.099274 749.113770,379.632080 747.590393,376.315918 
	C743.780334,376.784424 740.004150,377.248779 735.632568,377.162903 
M567.097168,351.085846 
	C561.843323,351.085846 556.589417,351.085846 551.262939,351.085846 
	C551.262939,361.606384 551.262939,371.652374 551.262939,381.702393 
	C552.918579,381.702393 554.307190,381.702393 556.163086,381.702393 
	C556.163086,377.355804 556.163086,373.290588 556.163086,368.798950 
	C559.709167,368.798950 562.784119,368.798950 566.128235,368.798950 
	C565.933899,366.929138 565.789001,365.534729 565.616516,363.875793 
	C562.322571,363.875793 559.386292,363.875793 556.242432,363.875793 
	C556.242432,360.848206 556.242432,358.128510 556.242432,354.997925 
	C559.428162,354.997925 562.386230,354.861969 565.325684,355.036957 
	C568.153015,355.205231 568.235046,353.658142 567.097168,351.085846 
M978.639404,355.018066 
	C985.108948,354.977142 985.108948,354.977142 984.201599,351.228088 
	C977.571228,351.228088 970.962341,351.228088 964.142273,351.228088 
	C964.142273,352.407166 963.966125,354.163116 964.169067,354.208069 
	C966.654480,354.758698 969.195557,355.058624 972.148621,355.485016 
	C972.148621,364.333313 972.148621,373.074066 972.148621,382.093262 
	C974.019531,381.927246 975.412292,381.803680 977.000000,381.662781 
	C977.000000,379.157654 976.943176,377.009583 977.010620,374.865448 
	C977.217468,368.287445 977.471924,361.710907 978.639404,355.018066 
M861.000000,370.483459 
	C861.000000,365.390808 861.000000,360.298157 861.000000,355.264038 
	C868.993530,354.722260 868.993530,354.722260 868.237488,351.208374 
	C861.623840,351.208374 855.018005,351.208374 848.132812,351.208374 
	C848.132812,352.362030 847.948914,354.087891 848.160889,354.137970 
	C850.626221,354.720428 853.151245,355.050110 856.095459,355.515472 
	C856.095459,364.267670 856.095459,373.003174 856.095459,382.007355 
	C857.953125,381.908630 859.343933,381.834747 861.000000,381.746765 
	C861.000000,378.079071 861.000000,374.776367 861.000000,370.483459 
M592.068298,351.969482 
	C592.068298,361.860443 592.068298,371.751404 592.068298,381.742249 
	C597.600891,381.742249 602.659973,381.742249 607.818787,381.742249 
	C607.818787,380.522980 607.932678,378.737610 607.802185,378.719574 
	C604.297668,378.234894 600.768066,377.931671 596.999817,377.574799 
	C596.999817,370.088409 596.895020,362.812531 597.046326,355.541992 
	C597.116333,352.182556 596.189453,350.373352 592.068298,351.969482 
M996.998779,379.227325 
	C996.998779,369.971039 996.998779,360.714722 996.998779,351.235962 
	C995.207214,351.235962 993.820679,351.235962 992.216675,351.235962 
	C992.216675,361.471100 992.216675,371.513855 992.216675,382.853058 
	C994.229309,381.721100 995.609131,380.945038 996.998779,379.227325 
M617.568359,381.980316 
	C619.989685,382.348206 621.120850,381.675110 621.061951,378.862671 
	C620.877808,370.071533 620.980103,361.274536 620.938171,352.479950 
	C620.936035,352.031403 620.623230,351.584381 620.376160,350.926392 
	C618.953979,351.067352 617.562256,351.205322 616.649231,351.295837 
	C616.649231,361.772308 616.649231,371.815948 617.568359,381.980316 
M581.000000,358.584290 
	C581.000000,356.141266 581.000000,353.698212 581.000000,351.255188 
	C580.605103,350.994934 580.210205,350.734680 579.815308,350.474426 
	C578.879883,351.327332 577.148743,352.164062 577.130981,353.035583 
	C576.936462,362.605713 577.008972,372.181274 577.008972,381.755341 
	C577.554749,382.000061 578.100586,382.244812 578.646362,382.489532 
	C579.430542,381.313751 580.850891,380.160095 580.892761,378.958435 
	C581.117615,372.498749 580.999634,366.027161 581.000000,358.584290 
M834.148682,76.098206 
	C829.896240,76.098206 825.643799,76.098206 821.248169,76.098206 
	C821.248169,78.181297 821.248169,79.896370 821.248169,81.757309 
	C825.873047,81.757309 830.250610,81.757309 834.865540,81.757309 
	C834.865540,79.913376 834.865540,78.300789 834.148682,76.098206 
M765.981689,77.611702 
	C765.498596,77.088654 765.028687,76.126831 764.530212,76.111809 
	C760.453186,75.988922 756.370911,76.042564 752.296814,76.042564 
	C752.296814,78.270355 752.296814,79.983574 752.296814,81.998985 
	C756.030823,81.998985 759.487488,81.815971 762.914734,82.055359 
	C765.793213,82.256424 766.296143,80.868195 765.981689,77.611702 
M636.218750,341.060883 
	C635.007812,342.026367 633.796814,342.991852 631.526550,344.801880 
	C635.984314,346.356995 638.770569,347.328979 641.556824,348.300934 
	C641.908325,347.696472 642.259827,347.092010 642.611389,346.487518 
	C640.707642,344.795105 638.803833,343.102692 636.218750,341.060883 
z"/>
<path fill="#585856" opacity="1.000000" stroke="none" 
	d="
M813.000000,289.999969 
	C813.000000,234.694382 812.998901,179.888748 813.001282,125.083130 
	C813.001587,118.028770 813.740112,117.323082 820.876648,116.990372 
	C834.562134,116.352341 848.308411,116.265068 861.913025,114.838829 
	C878.506165,113.099289 894.562073,114.578773 910.339111,119.733223 
	C929.680542,126.052170 940.990601,139.778549 944.812256,159.291046 
	C947.749390,174.287674 947.780945,189.319138 941.153809,203.833511 
	C936.080078,214.945648 928.117920,223.120300 917.994751,229.475250 
	C915.439209,231.079590 912.681458,232.361877 909.386719,234.130203 
	C913.327209,239.857391 917.178528,245.425522 920.999756,251.014191 
	C934.309265,270.479828 947.642212,289.929749 960.835205,309.474091 
	C961.713623,310.775421 961.959167,312.921112 961.598877,314.463806 
	C961.421265,315.223846 959.187927,315.923859 957.878967,315.934509 
	C944.719849,316.041565 931.558472,315.910736 918.400146,316.060883 
	C915.002441,316.099640 913.424805,314.285797 911.935120,311.727234 
	C899.265381,289.966003 886.515625,268.251312 873.868164,246.477142 
	C871.959900,243.191879 869.690308,241.398056 865.613770,241.916183 
	C862.349976,242.331009 858.991394,242.000000 855.000000,242.000000 
	C855.000000,243.972580 855.000000,245.729675 855.000000,247.486786 
	C855.000000,267.643250 854.956177,287.799896 855.023438,307.956116 
	C855.047546,315.190460 853.419983,316.325012 847.257202,316.090240 
	C838.108398,315.741669 828.936523,316.006317 819.774475,315.997681 
	C813.969360,315.992218 813.041321,315.050171 813.007629,308.990265 
	C812.973328,302.826996 813.000000,296.663391 813.000000,289.999969 
M855.000000,185.499878 
	C855.000000,192.590866 855.000000,199.681839 855.000000,206.999359 
	C862.471252,206.999359 869.316345,207.433304 876.084106,206.895325 
	C885.686768,206.131989 894.246094,202.760773 899.486206,193.955292 
	C904.327576,185.819839 903.754700,176.653534 902.670837,167.955475 
	C901.690063,160.084778 897.283997,152.789200 888.737793,151.565933 
	C878.488525,150.098892 867.979309,150.351562 857.578186,150.224548 
	C856.736511,150.214264 855.149292,153.005478 855.115356,154.521851 
	C854.892212,164.510422 855.000122,174.506393 855.000000,185.499878 
z"/>
<path fill="#585856" opacity="1.000000" stroke="none" 
	d="
M710.041504,196.000000 
	C727.694702,196.000031 744.854004,196.115280 762.009705,195.915207 
	C766.058777,195.867981 767.188477,197.217819 767.077148,201.111603 
	C766.829712,209.766815 766.756409,218.443604 767.097900,227.092422 
	C767.281860,231.749893 765.489258,233.087616 761.139282,233.055832 
	C742.982727,232.923141 724.824707,232.999985 706.667175,233.000015 
	C705.013794,233.000015 703.360352,233.000000 701.353882,233.000000 
	C701.353882,248.247223 701.353882,263.302643 701.353882,279.000000 
	C703.019470,279.000000 704.781555,279.000000 706.543640,279.000000 
	C728.865723,279.000000 751.187805,278.993683 773.509888,279.004211 
	C779.465637,279.007050 779.988953,279.556000 779.997131,285.662476 
	C780.008362,293.991608 779.928955,302.321594 780.031311,310.649445 
	C780.078613,314.496582 778.802795,316.103912 774.585205,316.086517 
	C738.104248,315.936157 701.622192,315.950958 665.141052,316.072357 
	C661.300720,316.085114 659.911377,315.125824 659.918884,311.041962 
	C660.035095,248.073944 660.034790,185.105606 659.919067,122.137581 
	C659.911682,118.090256 661.550903,116.977356 665.127380,116.980652 
	C700.609497,117.013374 736.091614,117.028801 771.573608,116.961929 
	C775.704224,116.954140 777.110840,118.792244 777.044189,122.728035 
	C776.900391,131.221329 776.875977,139.721283 777.051819,148.213364 
	C777.140991,152.522583 775.367371,154.074173 771.131958,154.051758 
	C749.809937,153.938950 728.487061,153.999985 707.164490,154.000000 
	C705.343933,154.000000 703.523376,154.000000 701.352966,154.000000 
	C701.352966,167.915634 701.352966,181.638351 701.352966,196.000000 
	C704.013123,196.000000 706.779724,196.000000 710.041504,196.000000 
z"/>
<path fill="#1C9CD9" opacity="1.000000" stroke="none" 
	d="
M146.985565,131.805374 
	C146.990387,108.172562 147.087067,84.539131 146.928055,60.907417 
	C146.893250,55.734512 148.765823,52.906700 153.682220,50.973820 
	C166.849792,45.797009 179.831696,40.143620 192.846329,34.583488 
	C203.476944,30.041859 214.028519,25.315205 224.656281,20.766750 
	C228.690948,19.040001 233.283417,21.973265 233.951279,26.593945 
	C234.139923,27.899027 233.998993,29.252611 233.999130,30.583950 
	C234.002457,62.371891 234.004395,94.159836 233.775406,126.518311 
	C233.377594,127.159500 233.210968,127.230148 232.577362,127.223953 
	C226.119217,127.127258 220.128052,127.096024 214.136871,127.090248 
	C205.135300,127.081558 204.088531,128.118332 204.088364,137.015762 
	C204.086945,208.914932 204.087540,280.814087 204.087845,352.713257 
	C204.087860,353.878265 204.053940,355.044861 204.101364,356.208038 
	C204.246948,359.778931 205.482590,362.304504 209.653717,362.303864 
	C217.452209,362.302704 225.250702,362.399719 233.298889,362.620667 
	C233.717819,362.890930 233.887070,362.996460 234.033142,363.562378 
	C234.031952,378.987396 234.053955,393.951965 233.885315,408.964813 
	C233.694672,409.013062 233.315781,409.118561 232.823822,409.079468 
	C214.357407,409.391266 197.269669,404.628082 180.101379,399.529480 
	C180.028854,307.779053 180.014435,216.493561 179.999954,125.208092 
	C179.999741,123.875458 180.049759,122.540520 179.989548,121.210587 
	C179.758804,116.113342 175.241135,113.080040 171.060822,115.775291 
	C163.173172,120.860825 155.647705,126.508080 147.780121,131.929825 
	C147.588531,131.937790 147.229691,132.073059 147.183502,131.992599 
	C147.137314,131.912140 146.985565,131.805374 146.985565,131.805374 
z"/>
<path fill="#585856" opacity="1.000000" stroke="none" 
	d="
M514.778320,302.280518 
	C495.977203,287.214630 488.956970,266.445251 485.126129,244.234619 
	C483.735077,236.169388 482.944183,227.857132 483.143921,219.688492 
	C483.700500,196.928436 485.080139,174.139832 496.240051,153.518036 
	C507.068268,133.509201 523.915039,121.144279 546.343994,117.107910 
	C555.827087,115.401314 565.562195,114.039482 575.151367,114.216911 
	C590.827148,114.506958 606.318420,116.997200 620.865906,123.429985 
	C623.227539,124.474289 625.886475,125.542984 627.483887,127.396706 
	C628.743408,128.858353 629.624023,132.043015 628.877563,133.603760 
	C624.881897,141.958145 620.450623,150.115082 615.898560,158.187286 
	C613.964172,161.617630 610.797729,160.538544 607.842102,159.402237 
	C600.906982,156.735916 594.131470,153.380783 586.966614,151.644180 
	C573.397400,148.355270 559.852295,148.734116 547.894470,157.097687 
	C537.300781,164.507172 532.011108,175.568863 529.042419,187.780563 
	C525.983337,200.363907 525.094543,213.269012 526.172058,226.076752 
	C527.286194,239.318115 529.192139,252.521896 536.596069,264.262360 
	C544.074585,276.121033 554.611267,282.350739 568.451904,282.966064 
	C584.803101,283.693054 599.685852,279.011688 613.353455,270.162476 
	C618.355103,266.924133 620.511963,267.313965 623.656006,272.291504 
	C627.906494,279.020599 632.033875,285.829834 636.086914,292.679901 
	C637.526306,295.112640 637.715820,297.083984 634.700623,299.217804 
	C619.307678,310.111328 602.053894,315.560516 583.571533,318.070679 
	C563.906067,320.741516 545.070984,318.125549 527.071777,309.925262 
	C522.819580,307.987915 519.031982,305.030579 514.778320,302.280518 
z"/>
<path fill="#585856" opacity="1.000000" stroke="none" 
	d="
M1115.350342,127.845314 
	C1115.815186,130.200729 1116.815918,132.695099 1116.027100,134.321457 
	C1112.198608,142.214508 1108.013794,149.944519 1103.699341,157.587875 
	C1101.587646,161.329102 1097.999268,161.146225 1094.842407,159.239456 
	C1082.796265,151.963318 1069.576050,148.950943 1055.846436,150.179062 
	C1037.774292,151.795624 1026.196777,160.279007 1019.003479,179.780685 
	C1014.986267,190.671463 1013.954163,202.011261 1013.912842,213.579590 
	C1013.864502,227.112396 1014.305420,240.497543 1018.991577,253.390121 
	C1024.467407,268.455231 1034.043213,279.540100 1050.318726,282.524872 
	C1061.593384,284.592499 1072.984009,282.970123 1083.668701,278.598267 
	C1089.934937,276.034332 1095.927979,272.757690 1101.898804,269.533051 
	C1105.554199,267.558868 1108.726074,268.112671 1110.954712,271.809692 
	C1114.726440,278.066010 1118.386597,284.390259 1122.218262,290.609222 
	C1125.190063,295.432465 1124.577393,298.171539 1119.832642,301.039459 
	C1104.895874,310.067932 1089.001343,316.126953 1071.502930,318.101868 
	C1051.187622,320.394592 1031.777832,318.224487 1013.237061,309.097778 
	C997.051697,301.130585 986.869202,287.906647 980.128601,271.825806 
	C975.134277,259.910980 972.421753,247.324173 971.991638,234.326706 
	C971.679626,224.897919 970.544373,215.418152 971.164673,206.053101 
	C972.438110,186.828384 975.450806,167.975189 985.488098,150.833786 
	C995.923706,133.012329 1011.309692,122.099686 1031.024170,117.608040 
	C1058.338867,111.384773 1085.198975,112.869400 1110.930054,125.013184 
	C1112.387207,125.700851 1113.687988,126.719536 1115.350342,127.845314 
z"/>
<path fill="#C0D22A" opacity="1.000000" stroke="none" 
	d="
M106.863617,380.927948 
	C106.909081,359.947174 106.986015,338.966400 106.993790,317.985626 
	C107.012840,266.527100 107.037971,215.068527 106.936508,163.610214 
	C106.927185,158.886032 107.397774,156.326736 113.064995,154.468735 
	C119.331863,152.414139 124.549057,147.148590 130.212601,143.265686 
	C135.603485,139.569733 140.980423,135.853439 146.674530,131.975723 
	C146.985565,131.805374 147.137314,131.912140 147.103378,132.303482 
	C147.268021,133.492416 147.466599,134.289993 147.695908,135.548843 
	C147.738953,219.602646 147.751968,303.195190 147.755203,386.787750 
	C147.755234,387.782715 147.628998,388.777649 147.201294,389.821625 
	C133.611618,387.223602 120.382370,384.576569 107.088539,381.676880 
	C106.970505,381.258789 106.917053,381.093384 106.863617,380.927948 
z"/>
<path fill="#BE1072" opacity="1.000000" stroke="none" 
	d="
M282.079681,228.926910 
	C296.162720,234.659378 310.311188,240.239319 324.282776,246.231644 
	C327.773468,247.728806 329.078033,251.168152 329.064850,255.262711 
	C328.951813,290.354401 328.999268,325.446594 329.000885,360.538635 
	C329.001099,365.029022 329.013367,369.519440 329.005157,374.744019 
	C328.940002,375.660828 328.889771,375.843506 328.540741,376.168976 
	C305.194427,392.121887 280.070129,402.794067 252.221344,406.950043 
	C252.112442,406.904846 251.879150,406.939301 251.931137,406.479248 
	C251.972168,391.714722 251.961212,377.410278 251.990936,362.884888 
	C252.031631,362.663971 252.064056,362.215790 252.525452,362.176727 
	C259.638214,362.127960 266.289612,362.120117 272.940979,362.108002 
	C280.522766,362.094208 281.046326,361.559204 281.051392,353.770813 
	C281.078491,312.199677 281.103027,270.628540 281.367615,229.034439 
	C281.606720,229.011490 282.079681,228.926910 282.079681,228.926910 
z"/>
<path fill="#AFB0AF" opacity="1.000000" stroke="none" 
	d="
M328.839508,376.026184 
	C328.889771,375.843506 328.940002,375.660828 329.066467,375.204712 
	C337.989838,367.226227 347.459076,360.119232 355.557831,351.694763 
	C373.791351,332.727905 388.096222,311.005371 398.319275,286.648712 
	C399.253021,284.424042 401.793365,282.873688 403.587646,281.010193 
	C405.427490,283.026306 408.202850,284.741669 408.962585,287.105011 
	C416.625519,310.942322 423.953827,334.887177 431.386902,358.798462 
	C433.566315,365.809387 430.926086,371.428223 426.169586,376.298737 
	C399.079407,404.038239 367.131561,423.840759 329.432312,435.044739 
	C328.941711,435.084869 328.746277,434.992981 328.842712,434.536407 
	C328.905945,414.728607 328.872742,395.377411 328.839508,376.026184 
z"/>
<path fill="#6C247C" opacity="1.000000" stroke="none" 
	d="
M282.045593,228.465332 
	C282.079681,228.926910 281.606720,229.011490 281.026978,228.886948 
	C273.893188,225.970596 267.307739,223.249725 260.795044,220.364639 
	C255.538910,218.036194 252.019409,220.154953 252.018097,226.006210 
	C252.007874,271.409393 252.042984,316.812592 252.064056,362.215790 
	C252.064056,362.215790 252.031631,362.663971 251.528839,362.839172 
	C245.369476,363.043549 239.712891,363.072754 234.056305,363.101959 
	C233.887070,362.996460 233.717819,362.890930 233.291458,362.199921 
	C233.037659,283.509888 233.041000,205.405334 233.044327,127.300804 
	C233.210968,127.230148 233.377594,127.159500 233.792084,126.978409 
	C247.335907,126.911987 260.631836,126.959732 273.927795,126.998360 
	C280.178619,127.016518 281.990448,128.823883 281.994019,135.247940 
	C282.011139,166.166534 282.007690,197.085144 282.045593,228.465332 
z"/>
<path fill="#1C9CD9" opacity="1.000000" stroke="none" 
	d="
M234.084991,441.072632 
	C234.056641,454.219788 234.035110,467.366943 233.997147,480.514069 
	C233.977417,487.344360 231.303345,489.992889 224.392197,489.996063 
	C201.757538,490.006500 179.122864,490.008057 156.488205,489.995117 
	C149.656372,489.991211 147.019669,487.304260 147.002380,480.394470 
	C146.982819,472.572327 146.981461,464.750122 146.976288,456.241943 
	C146.980392,455.555969 147.095749,455.102905 147.308548,455.056580 
	C147.521347,455.010223 147.950333,454.931732 148.413544,455.031464 
	C157.016571,455.152802 165.156509,455.211548 173.296127,455.181152 
	C177.691544,455.164734 180.029800,453.013397 180.013138,448.452454 
	C179.987045,441.309814 180.054077,434.166779 180.468796,427.014282 
	C187.010681,428.882629 193.094727,431.049957 199.335693,432.575195 
	C210.526993,435.310272 221.812637,437.659271 233.204407,440.347809 
	C233.557602,440.758423 233.802628,440.940643 234.084991,441.072632 
z"/>
<path fill="#C0D22A" opacity="1.000000" stroke="none" 
	d="
M147.095749,455.102905 
	C147.095749,455.102905 146.980392,455.555969 146.907074,455.777893 
	C136.674179,455.999878 126.514603,456.003387 116.355034,455.998962 
	C108.483215,455.995544 107.003593,454.557831 106.999649,446.948425 
	C106.991882,431.958984 106.982025,416.969574 107.019409,401.449951 
	C107.065773,400.919800 107.250999,400.750854 107.644615,400.821503 
	C110.291069,401.400177 112.618530,401.694794 114.784172,402.452148 
	C125.569237,406.223877 136.311737,410.117340 147.168793,414.173523 
	C147.389603,414.672424 147.588425,414.897095 147.822601,415.516998 
	C147.737076,428.618713 147.693756,441.256561 147.490265,454.060120 
	C147.145599,454.489746 147.067474,454.782104 147.095749,455.102905 
z"/>
<path fill="#AFB0AF" opacity="1.000000" stroke="none" 
	d="
M106.424011,380.953491 
	C106.917053,381.093384 106.970505,381.258789 107.031509,382.149811 
	C107.109711,388.833893 107.180351,394.792358 107.250992,400.750854 
	C107.250999,400.750854 107.065773,400.919800 106.960663,400.988220 
	C96.144310,397.239410 85.230835,397.356598 74.224525,399.400421 
	C59.648830,402.107025 46.288841,408.185272 33.082451,414.565247 
	C29.421778,416.333710 27.548637,415.904846 25.591232,412.303711 
	C20.387081,402.729309 20.223970,402.752808 29.585100,397.193359 
	C44.800411,388.157196 60.909702,381.663330 78.845978,381.033844 
	C87.881630,380.716705 96.937622,380.978851 106.424011,380.953491 
z"/>
<path fill="#585856" opacity="1.000000" stroke="none" 
	d="
M879.721375,84.326981 
	C881.666565,87.356255 883.395996,90.079330 885.774963,93.825104 
	C888.394043,86.117546 890.702942,79.354141 892.987549,72.582542 
	C893.816711,70.124893 894.614929,67.656021 895.378540,65.177269 
	C896.373962,61.946091 898.284119,60.729752 901.867981,60.857235 
	C905.433899,60.984081 905.482483,63.257069 906.259949,65.545570 
	C909.534180,75.182793 912.914917,84.783791 916.386963,94.772903 
	C913.366333,94.772903 910.921143,94.772903 908.499268,94.772903 
	C906.114136,87.528786 906.114136,87.528786 895.214966,88.262833 
	C895.095581,94.547989 891.202332,95.769196 885.721252,95.058372 
	C883.104431,94.719002 880.407166,95.000000 877.712280,95.000000 
	C875.239014,90.863182 872.820740,86.818199 870.402405,82.773216 
	C870.024597,82.910042 869.646851,83.046875 869.269043,83.183701 
	C869.269043,86.885506 869.269043,90.587303 869.269043,94.643944 
	C866.750122,94.643944 864.689575,94.643944 862.311157,94.643944 
	C862.311157,83.710022 862.311157,72.643280 862.311157,61.026043 
	C866.752258,61.026043 871.313049,60.412334 875.587402,61.253674 
	C878.197510,61.767437 881.800354,64.110390 882.438599,66.349640 
	C883.800354,71.127975 884.351074,76.783760 879.724976,80.468391 
	C877.634094,82.133659 878.062683,82.733635 879.721375,84.326981 
M875.073059,74.388252 
	C877.071045,68.498978 875.611511,66.710762 869.364746,67.410492 
	C869.364746,70.565941 869.364746,73.710167 869.364746,77.657745 
	C871.475586,76.562210 872.999268,75.771454 875.073059,74.388252 
M902.008606,74.685135 
	C901.604980,73.860016 901.201355,73.034897 900.464905,71.529312 
	C899.429443,75.386475 898.601624,78.470284 897.730591,81.714813 
	C900.357666,81.714813 902.104492,81.714813 904.400330,81.714813 
	C903.528625,79.354568 902.812012,77.414230 902.008606,74.685135 
z"/>
<path fill="#BE1072" opacity="1.000000" stroke="none" 
	d="
M329.048279,435.067566 
	C329.103180,439.710449 328.793579,444.386414 329.076874,449.026184 
	C329.329895,453.169800 327.322723,454.938751 323.680573,454.953064 
	C301.529388,455.040009 279.377441,455.047028 257.226410,454.940521 
	C253.952545,454.924805 251.520966,453.458099 251.965378,449.432434 
	C252.165115,447.623138 251.988052,445.772186 252.045364,443.512817 
	C252.108765,443.085510 252.330307,443.002747 252.752625,443.003845 
	C263.413696,443.006409 273.768280,443.981384 283.864075,442.780731 
	C298.920563,440.990051 313.794617,437.665131 328.746277,434.992981 
	C328.746277,434.992981 328.941711,435.084869 329.048279,435.067566 
z"/>
<path fill="#AFB0AF" opacity="1.000000" stroke="none" 
	d="
M234.491974,441.082275 
	C233.802628,440.940643 233.557602,440.758423 233.253311,439.862366 
	C233.209717,429.171997 233.262756,419.145294 233.315781,409.118561 
	C233.315781,409.118561 233.694672,409.013062 234.302429,408.991333 
	C240.566498,408.292816 246.222824,407.616058 251.879150,406.939301 
	C251.879150,406.939301 252.112442,406.904846 252.143326,407.410767 
	C252.226242,419.612030 252.278275,431.307373 252.330292,443.002747 
	C252.330307,443.002747 252.108765,443.085510 251.992355,443.066223 
	C246.216949,442.395264 240.557953,441.743561 234.491974,441.082275 
z"/>
<path fill="#585856" opacity="1.000000" stroke="none" 
	d="
M938.000000,75.522644 
	C938.000000,70.606339 938.000000,66.131340 938.000000,61.329575 
	C940.305908,61.329575 942.361938,61.329575 944.712036,61.329575 
	C944.712036,72.345566 944.712036,83.411003 944.712036,94.607918 
	C940.531799,95.867630 937.906677,94.664650 935.753601,90.653946 
	C933.250061,85.990562 929.859253,81.803551 926.146973,76.377014 
	C926.146973,83.169159 926.146973,88.832962 926.146973,94.738647 
	C923.574646,94.738647 921.519104,94.738647 919.230103,94.738647 
	C919.230103,83.503777 919.230103,72.427963 919.230103,61.336536 
	C922.957825,60.477375 925.463257,61.050491 927.495361,64.743294 
	C930.304321,69.847763 933.991394,74.469055 937.645569,79.797707 
	C937.786133,78.276764 937.893066,77.120354 938.000000,75.522644 
z"/>
<path fill="#585856" opacity="1.000000" stroke="none" 
	d="
M777.897705,95.000000 
	C774.800110,95.000000 772.176758,95.000000 769.278809,95.000000 
	C769.278809,83.631020 769.278809,72.605003 769.278809,61.019997 
	C774.397949,61.019997 779.586182,60.386372 784.538086,61.197021 
	C789.556519,62.018562 793.321472,65.216614 794.330444,70.789963 
	C796.292175,81.626129 794.917236,90.604897 785.557495,94.056183 
	C783.346863,94.871346 780.776672,94.711395 777.897705,95.000000 
M776.000000,78.493141 
	C776.000000,81.938316 776.000000,85.383484 776.000000,89.065514 
	C780.273438,88.787331 784.043518,88.965591 786.089355,84.711967 
	C788.533203,79.631027 788.587402,74.382195 785.242676,70.130600 
	C783.537720,67.963394 779.657776,67.507156 776.000000,65.954529 
	C776.000000,70.907936 776.000000,74.208275 776.000000,78.493141 
z"/>
<path fill="#585856" opacity="1.000000" stroke="none" 
	d="
M617.000000,69.061935 
	C617.000000,66.263557 617.000000,63.955162 617.000000,61.324867 
	C619.311279,61.324867 621.361694,61.324867 623.905396,61.324867 
	C623.905396,65.678177 623.905396,70.087593 623.905396,74.739586 
	C628.100586,74.739586 631.822754,74.739586 635.863281,74.739586 
	C635.863281,70.291946 635.863281,66.018204 635.863281,61.374584 
	C638.223938,61.374584 640.280701,61.374584 642.672302,61.374584 
	C642.672302,72.239944 642.672302,83.297569 642.672302,94.678711 
	C640.679932,94.678711 638.624939,94.678711 636.088379,94.678711 
	C636.088379,90.315620 636.088379,85.905327 636.088379,81.257149 
	C631.892517,81.257149 628.170349,81.257149 624.130615,81.257149 
	C624.130615,85.714821 624.130615,89.988861 624.130615,94.628899 
	C621.770020,94.628899 619.713318,94.628899 617.000000,94.628899 
	C617.000000,86.396843 617.000000,77.974388 617.000000,69.061935 
z"/>
<path fill="#585856" opacity="1.000000" stroke="none" 
	d="
M670.711853,78.339310 
	C672.678833,83.857704 674.431152,89.033371 676.335876,94.659119 
	C673.485901,94.659119 671.099915,94.659119 668.644348,94.659119 
	C665.968018,87.798569 665.968018,87.798569 655.502869,88.112839 
	C654.406799,92.855621 652.583008,97.126091 645.669189,94.275414 
	C649.185608,84.006439 652.746948,73.660553 656.265564,63.300152 
	C657.410828,59.927917 660.269104,60.825539 662.435669,61.160103 
	C663.738403,61.361279 665.352356,62.904881 665.870117,64.221321 
	C667.640808,68.723289 668.988281,73.391678 670.711853,78.339310 
M663.941895,79.856819 
	C662.932373,77.294609 661.922913,74.732399 660.601379,71.378235 
	C659.851318,73.952850 659.373657,75.493378 658.957275,77.050301 
	C658.563477,78.522652 658.234009,80.012207 657.582336,82.711464 
	C660.392273,81.823418 662.180725,81.258186 663.941895,79.856819 
z"/>
<path fill="#585856" opacity="1.000000" stroke="none" 
	d="
M677.000000,66.141266 
	C677.076843,64.203606 677.153748,62.748844 677.237549,61.162655 
	C679.488953,61.162655 681.437439,61.162655 684.000000,61.162655 
	C684.000000,66.994629 683.984741,72.768478 684.009644,78.542152 
	C684.016785,80.200226 683.911743,81.907280 684.257935,83.505272 
	C684.972473,86.803719 686.767700,89.569473 690.533997,88.861465 
	C693.760620,88.254906 695.157166,85.742241 695.057739,82.223831 
	C694.861511,75.277901 694.999939,68.322510 694.999939,61.190781 
	C697.440247,61.190781 699.389282,61.190781 702.361694,61.190781 
	C701.943604,70.376724 701.781128,79.566925 700.999268,88.704124 
	C700.620605,93.129021 696.992981,94.602554 692.865234,95.024307 
	C680.233887,96.314934 676.185608,89.865067 676.946716,79.615585 
	C677.266602,75.307549 677.000000,70.955948 677.000000,66.141266 
z"/>
<path fill="#585856" opacity="1.000000" stroke="none" 
	d="
M741.101685,87.399353 
	C744.239685,84.466820 741.801025,83.191101 739.892456,82.024879 
	C737.959167,80.843552 735.773254,80.080658 733.813232,78.937004 
	C729.562317,76.456627 727.558594,71.298233 729.223206,66.570267 
	C730.728943,62.293491 734.058472,60.479210 738.519592,61.026745 
	C742.074463,61.463047 745.599976,62.137791 750.077820,62.857693 
	C748.330200,65.789886 747.369568,67.401764 746.345276,69.120346 
	C744.786194,68.704918 743.368286,67.971954 741.997498,68.051468 
	C740.271423,68.151588 738.583862,68.915642 736.879639,69.393227 
	C737.847900,70.705612 738.602722,72.289848 739.839111,73.260803 
	C741.346680,74.444687 743.298584,75.044289 744.988403,76.017876 
	C749.368225,78.541176 751.558472,83.602554 749.762024,88.349648 
	C748.144897,92.623001 745.031372,95.416122 739.969849,95.006935 
	C737.674255,94.821350 735.277710,95.071510 733.091919,94.496727 
	C727.141479,92.931953 726.671021,91.027931 729.798157,87.155190 
	C734.022278,87.356445 737.439636,87.519257 741.101685,87.399353 
z"/>
<path fill="#585856" opacity="1.000000" stroke="none" 
	d="
M991.828918,80.999084 
	C989.067322,80.999817 986.774902,80.999817 984.244446,80.999817 
	C984.244446,83.790794 984.244446,86.181244 984.244446,88.888420 
	C988.393677,88.888420 992.338196,88.888420 996.752319,88.888420 
	C996.852478,90.903831 996.938416,92.633072 997.040527,94.688324 
	C990.404785,94.688324 984.003662,94.688324 977.299194,94.688324 
	C977.299194,83.649208 977.299194,72.601776 977.299194,61.275932 
	C983.410034,61.275932 989.468140,61.275932 995.762939,61.275932 
	C995.762939,63.131645 995.762939,64.855194 995.762939,66.888153 
	C991.939453,66.888153 988.326660,66.888153 984.357910,66.888153 
	C984.357910,69.571335 984.357910,71.963928 984.357910,74.845253 
	C987.622192,74.845253 991.030640,74.845253 995.074646,74.845253 
	C994.213318,77.401360 997.290833,80.714958 991.828918,80.999084 
z"/>
<path fill="#585856" opacity="1.000000" stroke="none" 
	d="
M810.086487,74.999893 
	C812.525513,74.999992 814.496216,74.999992 816.725586,74.999992 
	C816.725586,77.065384 816.725586,78.789955 816.725586,80.991806 
	C813.222839,80.991806 809.815002,80.991806 806.209961,80.991806 
	C806.209961,83.740982 806.209961,86.020340 806.209961,88.782578 
	C810.214905,88.782578 814.286560,88.782578 818.673767,88.782578 
	C818.673767,90.970108 818.673767,92.694885 818.673767,94.717651 
	C812.331055,94.717651 805.932739,94.717651 799.265930,94.717651 
	C799.265930,83.580452 799.265930,72.533455 799.265930,61.242550 
	C805.481445,61.242550 811.541992,61.242550 817.799805,61.242550 
	C817.799805,63.083351 817.799805,64.702164 817.799805,66.791328 
	C814.129395,66.791328 810.385620,66.791328 805.753235,66.791328 
	C807.490479,69.896149 802.335571,74.836632 810.086487,74.999893 
z"/>
<path fill="#585856" opacity="1.000000" stroke="none" 
	d="
M1054.001221,361.004547 
	C1056.176392,364.373596 1058.289917,367.379974 1060.867920,371.046906 
	C1060.867920,364.115417 1060.867920,357.917206 1060.867920,351.371826 
	C1062.562622,351.205200 1063.953979,351.068420 1065.687500,350.897980 
	C1065.687500,361.229034 1065.687500,371.292267 1065.687500,383.057251 
	C1063.199585,381.427338 1060.889526,380.628662 1059.705933,379.007568 
	C1055.822266,373.688568 1052.347534,368.070831 1048.181641,361.758972 
	C1048.181641,368.856079 1048.181641,375.044067 1048.181641,381.592865 
	C1046.481567,381.780182 1045.089600,381.933533 1043.335693,382.126770 
	C1043.335693,371.811462 1043.335693,361.751099 1043.335693,351.662933 
	C1046.550293,351.081787 1046.550293,351.081787 1054.001221,361.004547 
z"/>
<path fill="#585856" opacity="1.000000" stroke="none" 
	d="
M805.261108,374.769287 
	C804.499573,373.671875 804.032410,372.814331 803.485291,372.011322 
	C801.302734,368.807709 799.095337,365.621063 796.245667,361.481934 
	C796.245667,368.785034 796.245667,375.084747 796.245667,381.732147 
	C794.349487,381.833832 792.957581,381.908478 791.273376,381.998779 
	C791.273376,371.653656 791.273376,361.580902 791.273376,349.748627 
	C793.908447,351.568115 796.168213,352.455780 797.405884,354.108765 
	C801.167297,359.132324 804.533752,364.451691 808.845276,370.825653 
	C808.845276,363.495453 808.845276,357.504486 808.845276,351.267944 
	C810.742920,351.267944 812.132019,351.267944 813.761963,351.267944 
	C813.761963,361.452637 813.761963,371.535950 813.761963,381.794556 
	C808.217773,382.821136 807.769287,377.811493 805.261108,374.769287 
z"/>
<path fill="#585856" opacity="1.000000" stroke="none" 
	d="
M963.062134,95.000000 
	C954.320740,94.855316 949.207825,89.876289 949.013916,81.665993 
	C948.939331,78.507240 948.607361,75.277489 949.108582,72.196571 
	C950.639587,62.786263 961.819275,57.495251 970.503601,61.854382 
	C973.751404,63.484634 973.753662,63.709896 970.368774,68.996155 
	C965.794983,66.788246 960.909180,65.732933 957.714600,70.988075 
	C955.568420,74.518715 955.489075,83.386124 958.664246,86.115471 
	C963.011047,89.851868 963.154114,90.214661 971.530884,85.721535 
	C972.281433,87.700623 974.169434,90.416107 973.499634,91.413086 
	C972.327515,93.157722 969.660400,94.040680 967.468872,94.899704 
	C966.312866,95.352821 964.838135,94.992851 963.062134,95.000000 
z"/>
<path fill="#585856" opacity="1.000000" stroke="none" 
	d="
M1009.790161,353.735046 
	C1014.675293,352.636139 1019.288574,351.153900 1023.886414,351.200470 
	C1028.037598,351.242462 1032.263184,353.563049 1032.815430,358.185913 
	C1033.481201,363.759857 1033.693359,369.609680 1032.727295,375.098175 
	C1031.625122,381.361023 1025.593994,382.110016 1020.439697,382.916168 
	C1016.113037,383.592865 1009.892273,380.084412 1008.186035,376.467896 
	C1004.548462,368.757660 1005.243408,361.275116 1009.790161,353.735046 
M1011.000671,365.663757 
	C1011.170410,367.117767 1011.140503,368.629913 1011.544128,370.015839 
	C1013.375549,376.304688 1016.429443,378.719330 1021.381287,377.987183 
	C1025.798584,377.334045 1028.875488,373.102875 1029.000000,367.510437 
	C1029.157471,360.440063 1026.314819,355.759247 1021.411255,355.014130 
	C1016.171692,354.217926 1013.641174,356.602264 1011.000671,365.663757 
z"/>
<path fill="#585856" opacity="1.000000" stroke="none" 
	d="
M755.910217,375.703918 
	C753.444824,367.723083 752.430542,360.233521 758.682007,353.877899 
	C763.444153,349.036438 769.625793,350.319031 774.959595,351.780457 
	C780.154968,353.203888 782.184631,358.119904 781.976685,363.534882 
	C781.838867,367.124969 781.773743,370.757904 781.161011,374.282104 
	C779.447510,384.136688 761.264160,386.155762 755.910217,375.703918 
M759.425964,364.075195 
	C759.995056,367.509613 759.851440,371.283569 761.290344,374.303589 
	C763.822021,379.617188 772.664490,379.462402 775.245239,374.089691 
	C776.582275,371.306183 776.805542,367.835236 776.922485,364.652466 
	C777.116272,359.375854 773.347412,355.280731 768.588684,355.001892 
	C763.478882,354.702515 760.705078,357.385925 759.425964,364.075195 
z"/>
<path fill="#585856" opacity="1.000000" stroke="none" 
	d="
M879.207703,351.008728 
	C882.174927,351.001251 884.675476,351.124756 887.159119,350.972076 
	C891.307251,350.716980 894.487061,352.476807 895.590210,356.278992 
	C896.690125,360.070129 896.963440,364.509521 893.171265,367.132385 
	C890.324280,369.101532 890.963562,370.209442 892.680664,372.419006 
	C894.816833,375.167816 896.404419,378.342926 898.274963,381.409454 
	C893.648315,383.155731 891.653748,381.084747 889.785706,377.646576 
	C888.134399,374.607208 887.057373,370.579193 882.077820,369.716095 
	C882.077820,373.971405 882.077820,377.717590 882.077820,381.720337 
	C880.278931,381.720337 878.888977,381.720337 877.515625,381.720337 
	C877.345459,381.371735 877.082825,381.083740 877.081421,380.794464 
	C877.038757,371.986847 876.959534,363.178284 877.077576,354.372406 
	C877.092712,353.246277 878.155884,352.134186 879.207703,351.008728 
M882.062500,365.012207 
	C884.512451,364.689941 887.343933,364.991425 889.270264,363.813141 
	C890.438965,363.098236 891.202820,359.144928 890.406006,358.310364 
	C888.544495,356.360779 885.631409,355.415314 882.007812,353.445312 
	C882.007812,358.222473 882.007812,361.167542 882.062500,365.012207 
z"/>
<path fill="#585856" opacity="1.000000" stroke="none" 
	d="
M674.989380,381.999023 
	C669.807617,380.774353 669.833374,375.573822 666.951294,372.781372 
	C665.773254,371.640015 664.589355,370.504791 663.408081,369.366821 
	C662.991394,369.632690 662.574646,369.898590 662.157959,370.164459 
	C662.157959,373.903534 662.157959,377.642609 662.157959,381.725311 
	C660.350891,381.828918 658.957642,381.908783 657.273926,382.005310 
	C657.273926,371.665558 657.273926,361.602661 657.273926,350.890289 
	C663.343140,352.207306 670.408142,347.894135 674.960571,355.032166 
	C677.666748,359.275177 676.216370,364.111664 670.885803,369.800812 
	C672.171143,371.658783 673.583984,373.574493 674.857483,375.578766 
	C676.042908,377.444397 677.079956,379.404327 678.405396,381.710907 
	C676.983948,381.846985 676.189514,381.923004 674.989380,381.999023 
M666.969971,355.039795 
	C665.403076,355.039795 663.836182,355.039795 662.229736,355.039795 
	C662.229736,359.008179 662.229736,362.409332 662.229736,366.147888 
	C665.811401,365.586670 669.870605,365.907440 670.514465,361.586517 
	C670.800232,359.668945 668.761719,357.405060 666.969971,355.039795 
z"/>
<path fill="#585856" opacity="1.000000" stroke="none" 
	d="
M846.001099,71.923538 
	C846.833740,73.259956 847.567932,74.721535 848.516663,74.877396 
	C850.764038,75.246605 853.113098,74.996040 855.707275,74.996040 
	C855.707275,77.034096 855.707275,78.761612 855.707275,80.972572 
	C852.580933,80.972572 849.500427,80.972572 846.122192,80.972572 
	C846.122192,85.718407 846.122192,90.000084 846.122192,94.637405 
	C843.752686,94.637405 841.693970,94.637405 839.314087,94.637405 
	C839.314087,83.713799 839.314087,72.644150 839.314087,61.285885 
	C845.396118,61.285885 851.460632,61.285885 857.762939,61.285885 
	C857.762939,63.134075 857.762939,64.859444 857.762939,66.899376 
	C853.931885,66.899376 850.311279,66.899376 846.299744,66.899376 
	C846.187500,68.606125 846.093811,70.030655 846.001099,71.923538 
z"/>
<path fill="#585856" opacity="1.000000" stroke="none" 
	d="
M503.000061,364.000000 
	C515.109985,364.000000 526.719910,364.000000 538.761169,364.000000 
	C538.852173,365.944031 538.932800,367.668427 539.028137,369.706116 
	C519.728943,369.706116 500.701752,369.706116 481.225098,369.706116 
	C481.147583,368.052460 481.066742,366.327942 480.957642,364.000000 
	C488.321899,364.000000 495.411011,364.000000 503.000061,364.000000 
z"/>
<path fill="#585856" opacity="1.000000" stroke="none" 
	d="
M719.000000,72.132195 
	C719.000000,79.899910 719.000000,87.181442 719.000000,94.728531 
	C716.596313,94.728531 714.544312,94.728531 712.025879,94.728531 
	C712.025879,85.561562 712.025879,76.503304 712.025879,67.154907 
	C709.303284,67.154907 707.030212,67.154907 704.238403,67.154907 
	C704.139526,65.148155 704.053955,63.410812 703.951416,61.330582 
	C711.867065,61.330582 719.595886,61.330582 727.777222,61.330582 
	C727.852539,62.947018 727.932800,64.669579 728.035400,66.870605 
	C725.025574,66.870605 722.278748,66.870605 719.255859,66.870605 
	C719.154785,68.757545 719.077393,70.201782 719.000000,72.132195 
z"/>
<path fill="#585856" opacity="1.000000" stroke="none" 
	d="
M922.073608,371.875305 
	C922.561646,364.880951 922.994385,358.316956 923.453491,351.354065 
	C925.599060,350.565948 927.096069,350.643402 927.033386,353.977661 
	C926.914368,360.306946 927.025085,366.640137 926.992859,372.971497 
	C926.960754,379.280304 920.860413,384.425720 914.736328,382.829895 
	C907.933655,381.057312 904.581726,380.572021 904.958130,370.885376 
	C905.197327,364.729614 905.025635,358.558075 905.056763,352.393707 
	C905.058350,352.081696 905.235901,351.770599 905.380493,351.299500 
	C908.810547,350.372894 910.124023,351.740845 910.034973,355.254822 
	C909.900024,360.583191 910.100220,365.920074 909.965393,371.248444 
	C909.872437,374.923492 911.293091,377.449707 914.978699,377.931030 
	C919.022217,378.459167 921.677246,376.690002 922.073608,371.875305 
z"/>
<path fill="#585856" opacity="1.000000" stroke="none" 
	d="
M1101.000000,370.000000 
	C1093.546875,370.000000 1086.593750,370.000000 1079.231079,370.000000 
	C1079.144775,368.027222 1079.069336,366.304138 1078.980957,364.283417 
	C1095.631348,364.283417 1111.992432,364.283417 1128.780762,364.283417 
	C1128.854980,365.971466 1128.930786,367.694580 1129.032227,370.000000 
	C1119.659424,370.000000 1110.579712,370.000000 1101.000000,370.000000 
z"/>
<path fill="#585856" opacity="1.000000" stroke="none" 
	d="
M828.064087,351.495972 
	C831.624512,351.347351 834.953003,351.184296 838.121216,351.819916 
	C839.205627,352.037506 839.888489,354.256683 840.754761,355.561401 
	C839.199463,355.713409 837.337036,356.490173 836.144470,355.904083 
	C832.027344,353.880768 830.027222,355.293304 828.931274,359.958313 
	C831.246643,361.448669 833.595886,363.191559 836.149231,364.551239 
	C840.174377,366.694611 842.919189,369.821747 841.822144,374.379578 
	C841.164490,377.111755 839.316101,380.503357 837.017395,381.690857 
	C832.682190,383.930267 827.878723,382.998627 823.847534,379.904907 
	C823.348450,379.521881 822.920959,378.321228 823.159424,377.864014 
	C823.558228,377.099091 824.525635,376.137085 825.244873,376.144196 
	C826.435730,376.155975 827.656860,376.789795 828.799194,377.307251 
	C831.644287,378.595947 834.071533,378.366760 836.056030,375.710480 
	C838.596497,372.309937 835.421875,370.976440 833.641174,369.347778 
	C832.353455,368.169922 830.560242,367.564972 829.080200,366.573486 
	C822.450928,362.132568 822.068970,357.647888 828.064087,351.495972 
z"/>
<path fill="#585856" opacity="1.000000" stroke="none" 
	d="
M692.216187,355.008057 
	C690.933105,357.700317 690.118652,360.386353 689.420410,362.689117 
	C693.273071,365.804108 699.065735,361.401093 702.112976,367.926270 
	C697.332520,367.926270 693.909058,367.926270 690.253540,367.926270 
	C690.253540,371.443756 690.253540,374.501831 690.253540,377.883911 
	C694.387878,377.883911 698.332092,377.883911 702.445618,377.883911 
	C703.435364,380.607941 703.341797,382.121552 700.017151,382.031891 
	C695.217712,381.902405 690.412109,381.998779 685.306030,381.998779 
	C685.306030,371.659363 685.306030,361.607300 685.306030,351.276184 
	C690.605774,351.276184 695.871033,351.276184 701.474243,351.276184 
	C702.345703,353.351746 702.731018,355.133209 699.176880,355.012207 
	C697.015259,354.938660 694.848999,355.000671 692.216187,355.008057 
z"/>
<path fill="#585856" opacity="1.000000" stroke="none" 
	d="
M647.918091,379.087952 
	C647.276978,380.362396 646.605469,381.850403 645.869202,381.883179 
	C641.087036,382.096008 636.290771,381.992401 631.254700,381.992401 
	C631.254700,371.552460 631.254700,361.500488 631.254700,351.223877 
	C636.721436,351.223877 641.990967,351.223877 647.266663,351.223877 
	C648.001953,354.933624 648.002136,354.948273 644.028076,354.994568 
	C641.553406,355.023407 639.078186,354.999908 636.305542,354.999908 
	C636.305542,358.005096 636.305542,360.730377 636.305542,363.789001 
	C639.273254,363.789001 642.215271,363.789001 645.072693,363.789001 
	C646.064880,367.651459 646.064880,367.651459 636.350098,368.207123 
	C636.350098,371.236877 636.350098,374.299622 636.350098,377.621490 
	C640.109619,377.950470 643.983704,378.289490 647.918091,379.087952 
z"/>
<path fill="#585856" opacity="1.000000" stroke="none" 
	d="
M950.611816,355.023499 
	C943.993103,355.215118 941.135071,357.866028 941.058411,363.968658 
	C941.021912,366.871735 941.052490,369.983368 942.021851,372.647888 
	C944.011230,378.116058 947.414001,379.115662 952.895874,377.136047 
	C954.408447,376.589813 956.399597,377.368744 958.171143,377.539673 
	C957.004211,378.939117 956.107239,381.080933 954.627136,381.619141 
	C944.001953,385.482788 934.918091,378.495453 935.974731,368.393494 
	C936.299072,365.292389 935.661072,361.940735 936.607849,359.082794 
	C939.436462,350.544037 948.532043,347.990601 957.734863,353.123718 
	C957.113892,354.401337 956.479492,355.706604 955.732788,357.242828 
	C953.892700,356.383728 952.455322,355.712616 950.611816,355.023499 
z"/>
<path fill="#585856" opacity="1.000000" stroke="none" 
	d="
M735.930298,377.438019 
	C740.004150,377.248779 743.780334,376.784424 747.590393,376.315918 
	C749.113770,379.632080 746.902039,381.099274 744.455383,381.710175 
	C739.356506,382.983307 734.232971,383.484802 729.865784,379.398102 
	C725.172058,375.005859 724.861023,369.496277 725.699524,363.686707 
	C726.022034,361.452148 726.103516,359.027679 727.067383,357.070099 
	C729.872559,351.372131 739.606873,348.593445 745.201477,351.815674 
	C746.116089,352.342468 746.355896,354.041077 746.907593,355.198059 
	C745.754578,355.520294 744.326721,356.441406 743.496582,356.060303 
	C740.037170,354.472412 736.148438,353.962921 733.982361,356.895264 
	C731.845276,359.788483 730.370911,363.961304 730.492676,367.507996 
	C730.611450,370.967499 730.685120,375.714386 735.930298,377.438019 
z"/>
<path fill="#585856" opacity="1.000000" stroke="none" 
	d="
M567.475586,351.351624 
	C568.235046,353.658142 568.153015,355.205231 565.325684,355.036957 
	C562.386230,354.861969 559.428162,354.997925 556.242432,354.997925 
	C556.242432,358.128510 556.242432,360.848206 556.242432,363.875793 
	C559.386292,363.875793 562.322571,363.875793 565.616516,363.875793 
	C565.789001,365.534729 565.933899,366.929138 566.128235,368.798950 
	C562.784119,368.798950 559.709167,368.798950 556.163086,368.798950 
	C556.163086,373.290588 556.163086,377.355804 556.163086,381.702393 
	C554.307190,381.702393 552.918579,381.702393 551.262939,381.702393 
	C551.262939,371.652374 551.262939,361.606384 551.262939,351.085846 
	C556.589417,351.085846 561.843323,351.085846 567.475586,351.351624 
z"/>
<path fill="#585856" opacity="1.000000" stroke="none" 
	d="
M978.173645,355.075928 
	C977.471924,361.710907 977.217468,368.287445 977.010620,374.865448 
	C976.943176,377.009583 977.000000,379.157654 977.000000,381.662781 
	C975.412292,381.803680 974.019531,381.927246 972.148621,382.093262 
	C972.148621,373.074066 972.148621,364.333313 972.148621,355.485016 
	C969.195557,355.058624 966.654480,354.758698 964.169067,354.208069 
	C963.966125,354.163116 964.142273,352.407166 964.142273,351.228088 
	C970.962341,351.228088 977.571228,351.228088 984.201599,351.228088 
	C985.108948,354.977142 985.108948,354.977142 978.173645,355.075928 
z"/>
<path fill="#585856" opacity="1.000000" stroke="none" 
	d="
M861.000000,370.978577 
	C861.000000,374.776367 861.000000,378.079071 861.000000,381.746765 
	C859.343933,381.834747 857.953125,381.908630 856.095459,382.007355 
	C856.095459,373.003174 856.095459,364.267670 856.095459,355.515472 
	C853.151245,355.050110 850.626221,354.720428 848.160889,354.137970 
	C847.948914,354.087891 848.132812,352.362030 848.132812,351.208374 
	C855.018005,351.208374 861.623840,351.208374 868.237488,351.208374 
	C868.993530,354.722260 868.993530,354.722260 861.000000,355.264038 
	C861.000000,360.298157 861.000000,365.390808 861.000000,370.978577 
z"/>
<path fill="#585856" opacity="1.000000" stroke="none" 
	d="
M592.284424,351.568665 
	C596.189453,350.373352 597.116333,352.182556 597.046326,355.541992 
	C596.895020,362.812531 596.999817,370.088409 596.999817,377.574799 
	C600.768066,377.931671 604.297668,378.234894 607.802185,378.719574 
	C607.932678,378.737610 607.818787,380.522980 607.818787,381.742249 
	C602.659973,381.742249 597.600891,381.742249 592.068298,381.742249 
	C592.068298,371.751404 592.068298,361.860443 592.284424,351.568665 
z"/>
<path fill="#585856" opacity="1.000000" stroke="none" 
	d="
M996.993896,379.698181 
	C995.609131,380.945038 994.229309,381.721100 992.216675,382.853058 
	C992.216675,371.513855 992.216675,361.471100 992.216675,351.235962 
	C993.820679,351.235962 995.207214,351.235962 996.998779,351.235962 
	C996.998779,360.714722 996.998779,369.971039 996.993896,379.698181 
z"/>
<path fill="#585856" opacity="1.000000" stroke="none" 
	d="
M617.108765,381.919922 
	C616.649231,371.815948 616.649231,361.772308 616.649231,351.295837 
	C617.562256,351.205322 618.953979,351.067352 620.376160,350.926392 
	C620.623230,351.584381 620.936035,352.031403 620.938171,352.479950 
	C620.980103,361.274536 620.877808,370.071533 621.061951,378.862671 
	C621.120850,381.675110 619.989685,382.348206 617.108765,381.919922 
z"/>
<path fill="#585856" opacity="1.000000" stroke="none" 
	d="
M581.000000,359.071960 
	C580.999634,366.027161 581.117615,372.498749 580.892761,378.958435 
	C580.850891,380.160095 579.430542,381.313751 578.646362,382.489532 
	C578.100586,382.244812 577.554749,382.000061 577.008972,381.755341 
	C577.008972,372.181274 576.936462,362.605713 577.130981,353.035583 
	C577.148743,352.164062 578.879883,351.327332 579.815308,350.474426 
	C580.210205,350.734680 580.605103,350.994934 581.000000,351.255188 
	C581.000000,353.698212 581.000000,356.141266 581.000000,359.071960 
z"/>
<path fill="#585856" opacity="1.000000" stroke="none" 
	d="
M834.507080,76.393204 
	C834.865540,78.300789 834.865540,79.913376 834.865540,81.757309 
	C830.250610,81.757309 825.873047,81.757309 821.248169,81.757309 
	C821.248169,79.896370 821.248169,78.181297 821.248169,76.098206 
	C825.643799,76.098206 829.896240,76.098206 834.507080,76.393204 
z"/>
<path fill="#585856" opacity="1.000000" stroke="none" 
	d="
M765.989563,78.073830 
	C766.296143,80.868195 765.793213,82.256424 762.914734,82.055359 
	C759.487488,81.815971 756.030823,81.998985 752.296814,81.998985 
	C752.296814,79.983574 752.296814,78.270355 752.296814,76.042564 
	C756.370911,76.042564 760.453186,75.988922 764.530212,76.111809 
	C765.028687,76.126831 765.498596,77.088654 765.989563,78.073830 
z"/>
<path fill="#585856" opacity="1.000000" stroke="none" 
	d="
M636.559448,341.235596 
	C638.803833,343.102692 640.707642,344.795105 642.611389,346.487518 
	C642.259827,347.092010 641.908325,347.696472 641.556824,348.300934 
	C638.770569,347.328979 635.984314,346.356995 631.526550,344.801880 
	C633.796814,342.991852 635.007812,342.026367 636.559448,341.235596 
z"/>
<path fill="#FFFFFF" opacity="1.000000" stroke="none" 
	d="
M855.000000,184.999908 
	C855.000122,174.506393 854.892212,164.510422 855.115356,154.521851 
	C855.149292,153.005478 856.736511,150.214264 857.578186,150.224548 
	C867.979309,150.351562 878.488525,150.098892 888.737793,151.565933 
	C897.283997,152.789200 901.690063,160.084778 902.670837,167.955475 
	C903.754700,176.653534 904.327576,185.819839 899.486206,193.955292 
	C894.246094,202.760773 885.686768,206.131989 876.084106,206.895325 
	C869.316345,207.433304 862.471252,206.999359 855.000000,206.999359 
	C855.000000,199.681839 855.000000,192.590866 855.000000,184.999908 
z"/>
<path fill="#168E47" opacity="1.000000" stroke="none" 
	d="
M147.561707,389.772614 
	C147.628998,388.777649 147.755234,387.782715 147.755203,386.787750 
	C147.751968,303.195190 147.738953,219.602646 147.814682,135.165771 
	C147.925720,133.521576 147.948715,132.721725 147.971695,131.921860 
	C155.647705,126.508080 163.173172,120.860825 171.060822,115.775291 
	C175.241135,113.080040 179.758804,116.113342 179.989548,121.210587 
	C180.049759,122.540520 179.999741,123.875458 179.999954,125.208092 
	C180.014435,216.493561 180.028854,307.779053 180.008545,399.515869 
	C179.973801,399.967255 179.786911,399.973969 179.430756,399.929413 
	C168.710480,396.916748 158.346329,393.948669 147.902237,390.669800 
	C147.735413,390.163574 147.648560,389.968079 147.561707,389.772614 
z"/>
<path fill="#40267D" opacity="1.000000" stroke="none" 
	d="
M232.577362,127.223953 
	C233.041000,205.405334 233.037659,283.509888 233.041763,362.035156 
	C225.250702,362.399719 217.452209,362.302704 209.653717,362.303864 
	C205.482590,362.304504 204.246948,359.778931 204.101364,356.208038 
	C204.053940,355.044861 204.087860,353.878265 204.087845,352.713257 
	C204.087540,280.814087 204.086945,208.914932 204.088364,137.015762 
	C204.088531,128.118332 205.135300,127.081558 214.136871,127.090248 
	C220.128052,127.096024 226.119217,127.127258 232.577362,127.223953 
z"/>
<path fill="#20779A" opacity="1.000000" stroke="none" 
	d="
M232.823822,409.079468 
	C233.262756,419.145294 233.209717,429.171997 233.107773,439.684174 
	C221.812637,437.659271 210.526993,435.310272 199.335693,432.575195 
	C193.094727,431.049957 187.010681,428.882629 180.406235,426.754608 
	C179.925568,426.329193 179.894562,426.153778 179.914124,425.513916 
	C179.905426,416.690979 179.846161,408.332458 179.786911,399.973969 
	C179.786911,399.973969 179.973801,399.967255 180.066635,399.980865 
	C197.269669,404.628082 214.357407,409.391266 232.823822,409.079468 
z"/>
<path fill="#FFFFFF" opacity="1.000000" stroke="none" 
	d="
M251.931137,406.479248 
	C246.222824,407.616058 240.566498,408.292816 234.493073,408.943085 
	C234.053955,393.951965 234.031952,378.987396 234.033142,363.562378 
	C239.712891,363.072754 245.369476,363.043549 251.488159,363.060120 
	C251.961212,377.410278 251.972168,391.714722 251.931137,406.479248 
z"/>
<path fill="#7DAD3F" opacity="1.000000" stroke="none" 
	d="
M147.780121,131.929825 
	C147.948715,132.721725 147.925720,133.521576 147.783951,134.704514 
	C147.466599,134.289993 147.268021,133.492416 147.149567,132.383942 
	C147.229691,132.073059 147.588531,131.937790 147.780121,131.929825 
z"/>
<path fill="#849837" opacity="1.000000" stroke="none" 
	d="
M147.201279,389.821625 
	C147.648560,389.968079 147.735413,390.163574 147.864441,391.139404 
	C147.627472,399.269165 147.348358,406.618530 147.069229,413.967926 
	C136.311737,410.117340 125.569237,406.223877 114.784172,402.452148 
	C112.618530,401.694794 110.291069,401.400177 107.644608,400.821503 
	C107.180351,394.792358 107.109711,388.833893 107.096092,382.402466 
	C120.382370,384.576569 133.611618,387.223602 147.201279,389.821625 
z"/>
<path fill="#5D266F" opacity="1.000000" stroke="none" 
	d="
M252.525452,362.176727 
	C252.042984,316.812592 252.007874,271.409393 252.018097,226.006210 
	C252.019409,220.154953 255.538910,218.036194 260.795044,220.364639 
	C267.307739,223.249725 273.893188,225.970596 280.787842,228.909897 
	C281.103027,270.628540 281.078491,312.199677 281.051392,353.770813 
	C281.046326,361.559204 280.522766,362.094208 272.940979,362.108002 
	C266.289612,362.120117 259.638214,362.127960 252.525452,362.176727 
z"/>
<path fill="#8D215C" opacity="1.000000" stroke="none" 
	d="
M252.752609,443.003845 
	C252.278275,431.307373 252.226242,419.612030 252.252228,407.455933 
	C280.070129,402.794067 305.194427,392.121887 328.540741,376.168976 
	C328.872742,395.377411 328.905945,414.728607 328.842712,434.536438 
	C313.794617,437.665131 298.920563,440.990051 283.864075,442.780731 
	C273.768280,443.981384 263.413696,443.006409 252.752609,443.003845 
z"/>
<path fill="#168E47" opacity="1.000000" stroke="none" 
	d="
M179.863556,425.978394 
	C179.894562,426.153778 179.925568,426.329193 180.019119,426.764252 
	C180.054077,434.166779 179.987045,441.309814 180.013138,448.452454 
	C180.029800,453.013397 177.691544,455.164734 173.296127,455.181152 
	C165.156509,455.211548 157.016571,455.152802 148.380112,454.760254 
	C147.805786,454.224365 147.728119,454.059387 147.650421,453.894409 
	C147.693756,441.256561 147.737076,428.618713 148.206818,415.533478 
	C150.341904,415.689636 152.048294,416.299744 153.759628,416.895660 
	C162.460220,419.925262 171.162125,422.951172 179.863556,425.978394 
z"/>
<path fill="#7DAD3F" opacity="1.000000" stroke="none" 
	d="
M147.490280,454.060120 
	C147.728119,454.059387 147.805786,454.224365 147.916901,454.660522 
	C147.950333,454.931732 147.521347,455.010223 147.308548,455.056580 
	C147.067474,454.782104 147.145599,454.489746 147.490280,454.060120 
z"/>
<path fill="#207040" opacity="1.000000" stroke="none" 
	d="
M179.914124,425.513916 
	C171.162125,422.951172 162.460220,419.925262 153.759628,416.895660 
	C152.048294,416.299744 150.341904,415.689636 148.249023,415.069611 
	C147.588425,414.897095 147.389603,414.672424 147.168793,414.173523 
	C147.348358,406.618530 147.627472,399.269165 147.944397,391.450165 
	C158.346329,393.948669 168.710480,396.916748 179.430756,399.929413 
	C179.846161,408.332458 179.905426,416.690979 179.914124,425.513916 
z"/>
<path fill="#FFFFFF" opacity="1.000000" stroke="none" 
	d="
M874.797974,74.684471 
	C872.999268,75.771454 871.475586,76.562210 869.364746,77.657745 
	C869.364746,73.710167 869.364746,70.565941 869.364746,67.410492 
	C875.611511,66.710762 877.071045,68.498978 874.797974,74.684471 
z"/>
<path fill="#FFFFFF" opacity="1.000000" stroke="none" 
	d="
M902.052002,75.079514 
	C902.812012,77.414230 903.528625,79.354568 904.400330,81.714813 
	C902.104492,81.714813 900.357666,81.714813 897.730591,81.714813 
	C898.601624,78.470284 899.429443,75.386475 900.464905,71.529312 
	C901.201355,73.034897 901.604980,73.860016 902.052002,75.079514 
z"/>
<path fill="#FFFFFF" opacity="1.000000" stroke="none" 
	d="
M776.000000,78.000870 
	C776.000000,74.208275 776.000000,70.907936 776.000000,65.954529 
	C779.657776,67.507156 783.537720,67.963394 785.242676,70.130600 
	C788.587402,74.382195 788.533203,79.631027 786.089355,84.711967 
	C784.043518,88.965591 780.273438,88.787331 776.000000,89.065514 
	C776.000000,85.383484 776.000000,81.938316 776.000000,78.000870 
z"/>
<path fill="#FFFFFF" opacity="1.000000" stroke="none" 
	d="
M663.955566,80.274887 
	C662.180725,81.258186 660.392273,81.823418 657.582336,82.711464 
	C658.234009,80.012207 658.563477,78.522652 658.957275,77.050301 
	C659.373657,75.493378 659.851318,73.952850 660.601379,71.378235 
	C661.922913,74.732399 662.932373,77.294609 663.955566,80.274887 
z"/>
<path fill="#FFFFFF" opacity="1.000000" stroke="none" 
	d="
M1011.003296,365.241028 
	C1013.641174,356.602264 1016.171692,354.217926 1021.411255,355.014130 
	C1026.314819,355.759247 1029.157471,360.440063 1029.000000,367.510437 
	C1028.875488,373.102875 1025.798584,377.334045 1021.381287,377.987183 
	C1016.429443,378.719330 1013.375549,376.304688 1011.544128,370.015839 
	C1011.140503,368.629913 1011.170410,367.117767 1011.003296,365.241028 
z"/>
<path fill="#FFFFFF" opacity="1.000000" stroke="none" 
	d="
M759.668213,363.736298 
	C760.705078,357.385925 763.478882,354.702515 768.588684,355.001892 
	C773.347412,355.280731 777.116272,359.375854 776.922485,364.652466 
	C776.805542,367.835236 776.582275,371.306183 775.245239,374.089691 
	C772.664490,379.462402 763.822021,379.617188 761.290344,374.303589 
	C759.851440,371.283569 759.995056,367.509613 759.668213,363.736298 
z"/>
<path fill="#FFFFFF" opacity="1.000000" stroke="none" 
	d="
M882.035156,364.562408 
	C882.007812,361.167542 882.007812,358.222473 882.007812,353.445312 
	C885.631409,355.415314 888.544495,356.360779 890.406006,358.310364 
	C891.202820,359.144928 890.438965,363.098236 889.270264,363.813141 
	C887.343933,364.991425 884.512451,364.689941 882.035156,364.562408 
z"/>
<path fill="#FFFFFF" opacity="1.000000" stroke="none" 
	d="
M667.374084,355.169067 
	C668.761719,357.405060 670.800232,359.668945 670.514465,361.586517 
	C669.870605,365.907440 665.811401,365.586670 662.229736,366.147888 
	C662.229736,362.409332 662.229736,359.008179 662.229736,355.039795 
	C663.836182,355.039795 665.403076,355.039795 667.374084,355.169067 
z"/>
</svg>