<?xml version='1.0' encoding='iso-8859-1'?>
<!DOCTYPE svg PUBLIC '-//W3C//DTD SVG 1.1//EN' 'http://www.w3.org/Graphics/SVG/1.1/DTD/svg11.dtd'>
<!-- Uploaded to: SVG Repo, www.svgrepo.com, Generator: SVG Repo Mixer Tools -->

<svg color="#000000" version="1.1" xmlns="http://www.w3.org/2000/svg" viewBox="0 0 512 512" xmlns:xlink="http://www.w3.org/1999/xlink" enable-background="new 0 0 512 512">
<defs>
    <style>
      path {
        fill: currentColor;
      }
   </style>
</defs>
  <path d="M502.176,97.219c-6-2.492-12.885-1.117-17.463,3.469L384,201.375V112c0-6.469-3.848-12.305-9.824-14.781  c-5.992-2.492-12.834-1.117-17.412,3.469L253.55,203.906L241.119,29.711C239.923,13.055,225.906,0,209.203,0H175  c-16.703,0-30.727,13.055-31.922,29.719L129.203,224H127L113.125,29.711C111.93,13.055,97.906,0,81.203,0H47  C30.297,0,16.223,13.055,15.027,29.719L0,240v240c0,17.648,14.453,32,32.102,32H96V320h128v192h256.102  C497.75,512,512,497.648,512,480V112C512,105.531,508.152,99.695,502.176,97.219z M432,416h-47.898h-32H304v-96h48.102h32H432V416z"/>
</svg>
