<svg version="1.1" id="map-france-departements" xmlns="http://www.w3.org/2000/svg" 
xmlns:xlink="http://www.w3.org/1999/xlink" x="0px" y="0px" viewBox="-197.9 57.2 84.9 101.5" 
style="enable-background:new -197.9 57.2 84.9 101.5;" xml:space="preserve" fill="none" stroke="black" stroke-width="0.3">

	<g>
		<g>
			<path id="Nord" d="M-120.2,90.1l-8.6-0.1l-1.6,1.5l-1.6-6.7l-9.3-2.2l-2.3-6.2l0.3-2.2l-2.8-3.3l-4.3,0.4l-4.1,2.8    l-2.2-1l-2.1-3.8h-2.4l-0.9-2l0.7-4.3l-1.8-4.4l-2.1-1.3l-12,3l4.9,9.4l4.1,2l-0.5,2l3,3.1l10.9,0.6l-0.8,4.6l4.4,0.6l2.8,4    l-2.3,1.2l6,7.8l-2.7,8l2.4,1.9l13-0.8l3.5-1.5l11.9,3.4l2.4-4.5l-2.8-8.2L-120.2,90.1z"/>
			<title>Nord</title>
		</g>
		<g>
			<path id="Aisne" d="M-145.1,105.5l-0.4,2.7l-2.7,6l1.7,5.3l0.3,7.5l-0.8,5.5l-3.7,5.2l2.1,3.5l2.2,1.6l2,5.7l-0.5,2.1    l3,3l6.7,4.8l5.8-7.8l-1.9-0.7l-0.5-4l4-1.6l-2.5-6l0.9-2l5.9-3l3.9,1.4l1-2l-0.3-10.5l2-0.3l3.7-5.3v-4.9l-0.7-4.3l-14.7-4.2    l-3.5,1.5L-145.1,105.5z"/>
			<title>Aisne</title>
		</g>
		<g>
			<path id="Oise" d="M-154.2,120.5l-6.2,5.2l-9.5-5l-10.7-1.7l-2.3,0.9l-3-2.8l-2.3,3.5l1.1,6.4l-1,5.9l2.3,6.3l-2,2.4    l4.6,2.6l4.7-1.3l6.7,1.7l1.8-1.4l8,4.7l5.1,0.8l11.6-2.7l-1.1-3.2l-2.2-1.6l-2.1-3.5l3.7-5.2l0.8-5.5l-0.3-7.5L-154.2,120.5z"/>
			<title>Oise</title>
		</g>
		<g>
			<path id="Pas-de-Calais"  d="M-165.8,76.8l-3-3.1l0.5-2l-4.1-2l-4.9-9.4l-10.1,3.1l-4.3,3.7v21.7l1.6,1.3l9.1,0.8    l0.6,2.2l5.4,4.2l8.8-1.8l-1.9,4.2l1.3,2.4l1.8-2.3l11.3,5l6.2-1.2l2.7-8l-6-7.8l2.3-1.2l-2.8-4l-4.4-0.6l0.8-4.6L-165.8,76.8z"/>
			<title>Pas-de-Calais</title>
		</g>
		<g>
			<path id="Somme" d="M-145.5,108.2l0.4-2.7l-2.4-1.9l-6.2,1.2l-11.3-5l-1.8,2.3l-1.3-2.4l1.9-4.2l-8.8,1.8l-5.4-4.2    l-0.6-2.2l-9.1-0.8l-2.8,1.1l-0.1,5.2l-4.7,6.6l9.2,7.9l2.6,6.2l3,2.8l2.3-0.9l10.7,1.7l9.5,5l6.2-5.2l7.7-1l-1.7-5.2    L-145.5,108.2z"/>
			<title>Somme</title>
		</g>
	</g>
</svg>